<svg width="480" height="315" viewBox="0 0 480 315" fill="none" xmlns="http://www.w3.org/2000/svg">
<path d="M211.9 78.658C196.514 28.0001 127.14 11.6975 87.4315 49.5528C86.8787 50.1054 86.3259 50.658 85.681 51.2107C28.7444 107.395 55.6465 245.829 174.495 280.921C293.435 316.013 417.074 251.908 424.076 194.619C430.986 137.329 376.169 119.369 291.04 135.395C242.948 144.421 221.481 110.158 211.9 78.658Z" fill="#E7F5FE"/>
<path d="M325.405 75.7105L327.155 66.5921L318.587 64.9342C318.587 62.7237 318.219 60.421 317.482 58.2105L324.576 53.421L319.416 45.6842L312.691 50.1974C310.664 48.171 308.269 46.6053 305.781 45.5L307.439 36.9342L298.318 35.1842L296.568 44.0263C294.725 44.1184 292.791 44.4868 291.04 45.1316L286.249 38.0395L278.51 43.1974L283.025 49.921C280.998 51.9474 279.432 54.3421 278.326 56.8289L270.864 55.3553L269.021 64.4737L276.76 66.0395C276.852 68.4342 277.405 70.8289 278.418 73.1316L271.693 77.6447L276.852 85.3816L283.946 80.5921C285.973 82.3421 288.276 83.7237 290.764 84.5526L289.105 93.2105L298.226 94.9605L300.069 85.5658C302.096 85.3816 304.031 84.8289 305.965 84L310.48 90.7237L318.219 85.5658L313.428 78.4737C314.718 77 315.731 75.4342 316.56 73.6842L325.405 75.7105ZM302.464 72.0263C298.595 74.6974 293.251 73.5921 290.58 69.7237C287.908 65.8553 289.013 60.5132 292.883 57.8421C296.752 55.171 302.096 56.2763 304.768 60.1447C307.439 64.1053 306.334 69.4474 302.464 72.0263Z" fill="#E7F5FE"/>
<path d="M259.071 44.3948L259.992 39.5132L255.386 38.5922C255.386 37.3948 255.201 36.1974 254.741 35.0001L258.518 32.4211L255.754 28.2764L252.161 30.6711C251.056 29.5659 249.858 28.7369 248.476 28.1843L249.397 23.579L244.514 22.658L243.593 27.3553C242.579 27.4474 241.566 27.6316 240.645 27.908L238.065 24.1316L233.919 26.8948L236.315 30.4869C235.209 31.5922 234.38 32.7895 233.827 34.1711L229.773 33.3422L228.852 38.2237L232.998 39.0527C233.09 40.3422 233.366 41.6316 233.919 42.829L230.326 45.2238L233.09 49.3685L236.867 46.7895C237.973 47.7106 239.171 48.4474 240.553 48.908L239.631 53.5132L244.514 54.4343L245.528 49.4606C246.633 49.3685 247.647 49.0922 248.66 48.6316L251.055 52.2237L255.201 49.4606L252.622 45.6843C253.267 44.9474 253.819 44.0264 254.28 43.1053L259.071 44.3948ZM246.817 42.3685C244.698 43.7501 241.842 43.1974 240.46 41.079C239.079 38.9606 239.631 36.1053 241.75 34.7237C243.869 33.3422 246.725 33.8948 248.107 36.0132C249.489 38.1316 248.936 40.9869 246.817 42.3685Z" fill="#E7F5FE"/>
<path d="M44.0382 132.816L45.328 126.369L39.2474 125.171C39.2474 123.605 38.971 121.947 38.4182 120.382L43.3933 116.974L39.7081 111.447L34.9173 114.671C33.5353 113.197 31.7848 112.092 30.0344 111.355L31.2321 105.276L24.7829 103.987L23.5852 110.25C22.2954 110.342 20.9134 110.619 19.6236 110.987L16.2148 106.013L10.687 109.697L13.9115 114.487C12.4374 115.869 11.3319 117.619 10.5948 119.369L5.25125 118.355L3.96143 124.803L9.48926 125.908C9.58139 127.566 9.94991 129.316 10.687 130.882L5.89617 134.105L9.58139 139.632L14.5564 136.224C16.0305 137.513 17.5967 138.434 19.3472 138.987L18.1495 145.066L24.5987 146.355L25.8885 139.724C27.2704 139.54 28.7445 139.171 30.1265 138.619L33.3511 143.408L38.8789 139.724L35.4701 134.75C36.3914 133.737 37.1284 132.632 37.6812 131.342L44.0382 132.816ZM27.7311 130.237C24.9672 132.079 21.1898 131.342 19.3472 128.579C17.5046 125.816 18.2417 122.04 21.0056 120.197C23.7695 118.355 27.5468 119.092 29.3895 121.855C31.2321 124.619 30.495 128.395 27.7311 130.237Z" fill="#E7F5FE"/>
<path d="M476.038 229.895L477.328 223.447L471.247 222.25C471.247 220.684 470.971 219.026 470.418 217.461L475.393 214.053L471.708 208.526L466.917 211.75C465.535 210.276 463.785 209.171 462.034 208.434L463.232 202.355L456.783 201.066L455.585 207.329C454.295 207.421 452.913 207.697 451.624 208.066L448.215 203.092L442.687 206.776L445.912 211.566C444.437 212.947 443.332 214.697 442.595 216.447L437.251 215.434L435.961 221.882L441.489 222.987C441.581 224.645 441.95 226.395 442.687 227.961L437.896 231.184L441.581 236.711L446.556 233.303C448.031 234.592 449.597 235.513 451.347 236.066L450.149 242.145L456.599 243.434L457.888 236.803C459.27 236.618 460.744 236.25 462.126 235.697L465.351 240.487L470.879 236.803L467.47 231.829C468.391 230.816 469.128 229.711 469.681 228.421L476.038 229.895ZM459.731 227.316C456.967 229.158 453.19 228.421 451.347 225.658C449.505 222.895 450.242 219.118 453.006 217.276C455.769 215.434 459.547 216.171 461.389 218.934C463.232 221.605 462.495 225.382 459.731 227.316Z" fill="#E7F5FE"/>
<path d="M88.0764 157.04C72.1378 140.645 56.3835 122.592 47.3547 109.329C35.562 92.1053 30.0342 77.829 30.8634 66.9606C30.9555 66.2237 31.5083 65.6711 32.2453 65.7632C32.9824 65.8553 33.5352 66.408 33.443 67.1448C31.9689 86.1185 51.8691 116.974 90.9325 156.211L88.0764 157.04Z" fill="#6CB1EF"/>
<path d="M38.234 93.1184C38.234 93.1184 29.8502 100.211 17.9653 85.0131C17.9653 85.0131 33.8118 77.8289 38.234 93.1184Z" fill="#B6E9FE"/>
<path d="M43.9461 101.224C43.9461 101.224 36.3914 93.3027 50.8559 80.5922C50.8559 80.5922 58.9633 96.0658 43.9461 101.224Z" fill="#B6E9FE"/>
<path d="M32.7983 75.25C32.7983 75.25 23.0325 70.2763 32.4298 53.5132C32.4298 53.5132 45.236 65.3026 32.7983 75.25Z" fill="#B6E9FE"/>
<path d="M54.9098 117.987C54.9098 117.987 49.4741 127.474 33.167 117.25C33.167 117.158 45.6046 105 54.9098 117.987Z" fill="#B6E9FE"/>
<path d="M62.0035 125.355C62.0035 125.355 53.2511 118.816 65.2281 103.803C65.3202 103.803 75.9152 117.618 62.0035 125.355Z" fill="#B6E9FE"/>
<path d="M70.6642 136.408C70.6642 136.408 65.4128 145.987 48.9214 136.04C48.9214 136.132 61.1747 123.697 70.6642 136.408Z" fill="#B6E9FE"/>
<path d="M420.852 142.487C434.303 123.974 447.201 103.711 454.111 89.3422C463.232 70.5527 466.641 55.6316 464.245 45.0395C464.061 44.3027 463.416 43.9343 462.679 44.0264C461.942 44.2106 461.573 44.8553 461.666 45.5921C465.904 64.1974 450.702 97.5395 417.812 142.118L420.852 142.487Z" fill="#6CB1EF"/>
<path d="M460.929 71.9342C460.929 71.9342 470.234 77.7368 479.723 60.9737C479.723 60.9737 462.956 56.1842 460.929 71.9342Z" fill="#B6E9FE"/>
<path d="M456.414 80.7764C456.414 80.7764 462.679 71.8422 446.556 61.3422C446.556 61.4343 440.844 77.829 456.414 80.7764Z" fill="#B6E9FE"/>
<path d="M463.6 53.5132C463.6 53.5132 472.537 47.1579 460.744 31.9605C460.836 31.8684 449.873 45.5 463.6 53.5132Z" fill="#B6E9FE"/>
<path d="M448.03 98.9211C448.03 98.9211 454.848 107.487 469.497 94.9606C469.405 95.0527 455.309 84.829 448.03 98.9211Z" fill="#B6E9FE"/>
<path d="M442.042 107.303C442.042 107.303 449.781 99.5658 435.685 86.4868C435.685 86.4868 427.209 101.684 442.042 107.303Z" fill="#B6E9FE"/>
<path d="M435.132 119.553C435.132 119.553 441.766 128.303 456.599 116.053C456.599 116.053 442.687 105.553 435.132 119.553Z" fill="#B6E9FE"/>
<path d="M159.938 151.238V129.225L152.476 122.317L114.334 129.225V151.238H94.8941L149.067 69.7245L141.604 62.8167H91.8538L30.9556 151.054V181.817L38.4181 188.725H105.305L105.489 206.409L112.952 213.409H159.938V188.725H179.009V151.238L171.547 144.238L159.938 151.238Z" fill="#EF8417"/>
<path d="M171.547 181.817H152.476V206.409H105.489V181.817H30.9556V151.053L91.946 62.8167H141.604L87.4316 144.33H106.871V122.409H152.476V144.33H171.547V181.817Z" fill="#FFC840"/>
<path d="M250.871 66.408C212.913 66.408 185.827 93.9474 185.827 141.566C185.827 189.184 212.913 216.724 250.871 216.724C288.829 216.724 315.915 189.184 315.915 141.566C315.915 93.9474 288.829 66.408 250.871 66.408ZM250.871 177.855C241.381 177.855 234.472 169.197 234.472 141.566C234.472 113.842 241.473 105.276 250.871 105.276C260.36 105.276 267.27 113.934 267.27 141.566C267.27 169.29 260.36 177.855 250.871 177.855Z" fill="#EF8417"/>
<path d="M178.364 134.658C178.364 87.0395 205.451 59.5 243.408 59.5C281.366 59.5 308.453 87.0395 308.453 134.658C308.453 182.276 281.366 209.816 243.408 209.816C205.451 209.724 178.364 182.184 178.364 134.658ZM259.808 134.658C259.808 106.934 252.806 98.3684 243.408 98.3684C233.919 98.3684 227.009 107.026 227.009 134.658C227.009 162.382 234.011 170.947 243.408 170.947C252.806 170.947 259.808 162.289 259.808 134.658Z" fill="#FFC840"/>
<path d="M447.938 151.238V129.225L440.476 122.317L402.334 129.225V151.238H382.894L437.067 69.7245L429.604 62.8167H379.946L318.956 151.054V181.817L326.418 188.725H393.305L393.489 206.409L400.952 213.409H447.938V188.725H467.009V151.238L459.547 144.238L447.938 151.238Z" fill="#EF8417"/>
<path d="M459.547 181.817H440.476V206.409H393.489V181.817H318.956V151.053L379.946 62.8167H429.604L375.432 144.33H394.963V122.409H440.568V144.33H459.639V181.817H459.547Z" fill="#FFC840"/>
<path d="M439.555 300.171C440.476 300.171 441.397 299.803 442.042 299.158C443.516 297.592 444.438 295.75 444.438 293.908V293.816C444.438 280.737 460.468 281.658 465.535 265.724C470.695 249.79 450.334 248.408 438.725 258.263C430.342 265.355 420.392 255.408 408.23 263.697C397.727 270.882 403.532 288.474 386.303 283.04C380.775 281.29 375.8 282.947 371.654 286.079C366.864 289.671 363.731 294.737 362.441 300.263H439.555V300.171Z" fill="#B6E9FE"/>
<path d="M401.044 300.171L444.714 272.079C445.359 271.711 445.451 270.882 445.082 270.237C444.714 269.592 443.885 269.5 443.24 269.869L396.161 300.171H401.044Z" fill="#6CB1EF"/>
<path d="M103.278 290.961L98.1186 285.895L96.0918 285.803L90.3797 285.618C90.3797 285.618 37.9574 196.553 70.7559 167.539C80.8902 158.605 98.5793 165.974 94.6177 207.053C91.2088 245.184 103.278 290.961 103.278 290.961Z" fill="#6CB1EF"/>
<path d="M98.211 285.895L96.1841 285.803C87.0632 264.25 82.3645 241.04 80.1534 224.829C77.3895 205.487 77.2974 191.487 77.2974 191.395C77.2974 190.934 77.6659 190.474 78.2187 190.474C78.6793 190.474 79.14 190.842 79.14 191.395C79.14 191.579 79.2321 205.487 81.996 224.645C84.2072 240.947 88.9058 264.342 98.211 285.895Z" fill="#B6E9FE"/>
<path d="M112.399 303.855L107.24 305.79L104.476 306.803L96.7368 309.658C96.7368 309.658 -22.9407 219.947 4.79058 162.842C13.3587 145.25 41.09 145.342 58.7791 202.355C75.1783 255.224 112.399 303.855 112.399 303.855Z" fill="#B6E9FE"/>
<path d="M107.24 305.789L104.476 306.803C80.2454 283.039 61.0823 254.671 49.0132 234.224C34.6408 209.908 26.6255 191.303 26.5334 191.118C26.257 190.474 26.5334 189.645 27.2704 189.368C27.9153 189.092 28.7445 189.368 29.0209 190.013C29.113 190.197 37.0362 208.71 51.3165 232.842C63.4777 253.474 82.733 282.118 107.24 305.789Z" fill="#6CB1EF"/>
<path d="M414.126 300.724C414.034 298.697 413.85 296.671 413.389 294.553C409.151 275.211 420.668 271.526 435.869 265.447C451.071 259.368 452.821 241.132 442.134 226.118C431.355 211.013 450.702 198.855 443.608 176.197C436.514 153.447 411.823 168.553 406.387 189.553C402.518 204.566 382.802 201.342 375.432 220.868C369.075 237.816 390.357 253.474 365.758 261.211C357.927 263.697 353.597 269.684 351.293 276.776C348.714 284.882 349.174 293.355 352.215 300.724H414.126Z" fill="#6CB1EF"/>
<path d="M384.092 300.724L424.537 200.79C424.906 199.868 424.445 198.763 423.524 198.395C422.602 198.026 421.497 198.487 421.128 199.408L380.038 300.724H384.092Z" fill="#B6E9FE"/>
<path d="M183.8 230.079C183.8 230.079 183.984 224.737 182.602 220.776C181.22 216.816 179.378 207.605 175.048 208.25C173.481 208.434 176.153 212.118 175.324 215.803C175.324 215.803 170.441 213.868 167.124 211.75C164.176 209.908 158.188 206.961 155.424 205.671C154.687 205.303 153.858 206.224 154.41 206.868C155.147 207.974 156.99 209.632 161.044 211.75C161.044 211.75 151.002 207.053 149.527 208.434C148.053 209.816 160.675 215.342 160.675 215.342C160.675 215.342 150.541 212.118 149.896 213.684C149.527 214.605 159.57 219.579 159.57 219.579C159.57 219.579 149.804 217.368 151.739 219.487C152.291 220.132 170.533 226.947 175.14 236.342C175.048 236.434 182.787 233.579 183.8 230.079Z" fill="#FFB288"/>
<path d="M212.545 294.737C196.791 294.737 177.812 240.855 171.547 233.395L183.8 227.039C183.8 227.039 199.094 251.447 211.9 260.105C211.992 260.197 212.176 260.289 212.269 260.382L213.19 258.263L231.063 219.395C231.063 219.395 236.96 211.013 245.804 216.171C267.731 228.789 234.288 294.737 212.545 294.737Z" fill="#2858AD"/>
<path d="M215.032 273.829C215.032 274.29 214.664 274.658 214.203 274.658C213.743 274.658 213.374 274.29 213.374 273.829C213.374 269.224 212.637 264.066 211.992 260.105C212.084 260.197 212.269 260.29 212.361 260.382L213.282 258.263C214.111 262.5 215.032 268.487 215.032 273.829Z" fill="#6CB1EF"/>
<path d="M359.033 178.684C359.033 178.684 355.992 174.355 354.979 170.211C353.965 166.066 350.557 157.408 354.518 155.566C355.992 154.921 355.716 159.434 358.388 162.105C358.388 162.105 361.428 157.868 363.086 154.276C364.56 151.145 367.969 145.434 369.628 142.855C370.088 142.118 371.194 142.487 371.194 143.316C371.102 144.697 370.457 147 368.246 151.053C368.246 151.053 374.142 141.658 376.169 142.026C378.196 142.303 370.549 153.908 370.549 153.908C370.549 153.908 377.274 145.711 378.656 146.632C379.486 147.184 373.773 156.763 373.773 156.763C373.773 156.763 380.775 149.579 380.315 152.434C380.13 153.263 368.614 168.921 369.812 179.329C369.812 179.329 361.704 181.079 359.033 178.684Z" fill="#FFB288"/>
<path d="M370.457 177.303C369.627 187.066 371.746 248.96 357.927 256.513C347.7 262.039 313.52 249.882 293.988 231.645C291.132 214.513 300.253 201.618 300.253 201.618L343.37 227.5L344.384 228.145C344.568 227.684 344.752 227.224 344.936 226.763C350.556 211.658 357.466 177.395 357.466 177.395C361.981 178.039 367.14 178.316 370.457 177.303Z" fill="#2858AD"/>
<path d="M350.372 238.184C350.188 238.368 350.004 238.461 349.727 238.461C349.543 238.461 349.359 238.368 349.175 238.276C346.503 235.697 344.568 231.368 343.186 227.592L344.199 228.237C344.384 227.776 344.568 227.316 344.752 226.855C346.042 230.539 347.885 234.776 350.372 237.079C350.741 237.263 350.741 237.816 350.372 238.184Z" fill="#6CB1EF"/>
<path d="M231.8 299.434C237.973 276.04 230.694 242.237 230.694 229.158C230.694 205.211 249.673 195.724 249.673 195.724L268.376 191.026C268.376 191.026 302.096 196.921 311.861 211.105C315.178 215.895 317.942 231.276 320.153 249.145C320.245 249.882 320.337 250.526 320.429 251.263C322.456 267.75 324.023 285.987 325.22 299.526H231.8V299.434Z" fill="#2858AD"/>
<path d="M262.479 215.25C262.111 215.25 261.742 214.974 261.65 214.605C261.558 214.145 261.834 213.684 262.295 213.592C272.521 211.75 275.562 200.605 275.562 200.513C275.654 200.053 276.114 199.776 276.575 199.961C277.036 200.053 277.312 200.513 277.128 200.974C277.036 201.434 273.811 213.224 262.479 215.25C262.571 215.25 262.571 215.25 262.479 215.25Z" fill="#6CB1EF"/>
<path d="M285.696 287.184C274.18 287.184 263.216 281.105 255.754 275.763C246.725 269.224 240.736 262.132 240.644 262.132C240.368 261.763 240.368 261.211 240.736 260.934C241.105 260.658 241.658 260.658 241.934 261.026C242.026 261.118 247.923 268.026 256.767 274.474C264.875 280.368 277.128 287 289.75 285.342C290.21 285.25 290.671 285.618 290.671 286.079C290.763 286.54 290.395 287 289.934 287C288.552 287.092 287.078 287.184 285.696 287.184Z" fill="#6CB1EF"/>
<path d="M277.497 293.908C262.664 293.908 251.792 284.605 251.332 284.237C250.963 283.961 250.963 283.408 251.24 283.04C251.516 282.671 252.069 282.671 252.437 282.947C252.529 283.04 263.216 292.25 277.497 292.25C277.681 292.25 277.865 292.25 278.142 292.25C278.602 292.25 278.971 292.618 278.971 293.079C278.971 293.54 278.602 293.908 278.142 293.908C277.865 293.908 277.681 293.908 277.497 293.908Z" fill="#6CB1EF"/>
<path d="M320.429 251.171C309.466 244.632 299.147 236.711 298.502 236.25C298.134 235.974 298.042 235.421 298.318 235.053C298.594 234.684 299.147 234.592 299.516 234.868C299.7 234.961 309.466 242.421 320.153 248.961C320.245 249.789 320.337 250.526 320.429 251.171Z" fill="#6CB1EF"/>
<path d="M256.432 177.22C271.301 173.339 280.208 158.143 276.326 143.279C272.445 128.414 257.245 119.51 242.376 123.39C227.507 127.271 218.601 142.467 222.482 157.331C226.364 172.196 241.564 181.1 256.432 177.22Z" fill="#26387A"/>
<path d="M221.574 152.434C221.574 152.434 213.374 152.342 212.453 144.697C211.624 138.158 220.1 140.368 218.165 135.579C216.23 130.789 213.65 126.737 219.639 123.882C224.89 121.395 225.996 125.171 231.892 117.711C238.802 108.961 249.397 122.316 257.228 120.75C268.745 118.447 271.877 124.526 274.365 129.316C276.852 134.197 273.351 138.895 273.351 138.895L221.574 152.434Z" fill="#26387A"/>
<path d="M228.944 163.671C228.944 163.671 223.232 159.066 221.297 164.592C219.363 170.118 227.47 182.829 234.38 177.395L228.944 163.671Z" fill="#F77853"/>
<path d="M231.432 173.618C231.155 173.711 230.787 173.618 230.695 173.342C228.391 169.382 223.509 168.829 223.416 168.829C223.048 168.829 222.771 168.461 222.771 168.092C222.771 167.724 223.14 167.447 223.509 167.447C223.693 167.447 229.129 168.092 231.8 172.697C231.985 173.066 231.892 173.434 231.524 173.618C231.616 173.618 231.524 173.618 231.432 173.618Z" fill="#E85143"/>
<path d="M226.457 172.697C226.365 172.697 226.18 172.697 226.088 172.697C225.72 172.605 225.535 172.237 225.627 171.868C225.627 171.776 226.088 170.395 227.562 169.197C227.839 168.921 228.299 169.013 228.484 169.289C228.76 169.566 228.668 170.026 228.391 170.211C227.286 171.132 226.917 172.237 226.917 172.237C226.825 172.421 226.641 172.605 226.457 172.697Z" fill="#E85143"/>
<path d="M266.626 181.632L270.219 195.447C270.219 195.447 266.165 203 260.729 204.934C255.294 206.868 250.227 201.158 250.227 201.158L246.726 187.895L266.626 181.632Z" fill="#FFB288"/>
<path d="M266.626 181.632L268.192 187.803C265.52 192.961 259.163 195.724 248.937 196.829L246.633 187.987L266.626 181.632Z" fill="#F77853"/>
<path d="M271.969 142.395C273.075 147.829 274.365 154.645 274.733 160.263C274.825 161.645 274.825 163.026 274.825 164.224C274.549 175.184 271.877 194.526 249.582 192.5C239.724 191.671 232.998 182.737 228.484 173.066C225.443 166.526 223.416 159.526 222.219 154.553C221.021 149.395 222.587 144.053 226.365 140.368C236.591 130.421 249.95 129.684 259.163 130.697C265.428 131.342 270.587 136.132 271.969 142.395Z" fill="#FFB288"/>
<path d="M252.806 183.013C255.401 183.013 257.505 180.91 257.505 178.316C257.505 175.721 255.401 173.618 252.806 173.618C250.211 173.618 248.107 175.721 248.107 178.316C248.107 180.91 250.211 183.013 252.806 183.013Z" fill="white"/>
<path d="M250.042 158.514L250.318 159.619C250.871 161.83 252.253 163.672 254.28 164.777C256.215 165.882 258.426 166.251 260.637 165.606L260.913 165.514C262.756 164.961 264.23 163.764 265.428 161.922C266.533 160.08 266.81 157.777 266.257 155.567L265.888 154.277C265.796 153.909 265.612 153.632 265.428 153.356C265.151 152.988 264.875 152.711 264.506 152.527C263.862 152.159 263.032 151.975 262.295 152.251L252.253 154.922C251.148 155.198 250.318 156.119 250.134 157.225C249.95 157.593 249.95 157.961 250.042 158.514C250.042 158.422 250.042 158.422 250.042 158.514ZM251.24 158.146C250.963 157.225 251.516 156.303 252.437 156.027L262.48 153.356C263.401 153.08 264.322 153.632 264.599 154.553L264.967 155.843C265.428 157.685 265.151 159.711 264.23 161.277C263.309 162.843 262.019 163.856 260.453 164.317L260.176 164.409C258.334 164.869 256.399 164.593 254.741 163.672C253.082 162.659 251.885 161.093 251.424 159.251L251.24 158.146Z" fill="#26387A"/>
<path d="M229.865 163.763L230.142 164.868C230.694 167.079 232.076 168.921 234.103 170.026C236.038 171.132 238.249 171.5 240.46 170.855L240.737 170.763C242.579 170.21 244.053 169.013 245.251 167.171C246.357 165.329 246.725 163.026 246.08 160.816L245.712 159.526C245.712 159.526 245.712 159.526 245.712 159.434C245.619 159.066 245.435 158.697 245.159 158.421C244.422 157.5 243.224 157.132 242.119 157.408L232.076 160.079C231.155 160.355 230.51 160.908 230.142 161.645C229.957 162.013 229.865 162.474 229.865 162.842C229.773 163.21 229.865 163.487 229.865 163.763ZM231.063 163.487C230.786 162.566 231.339 161.645 232.261 161.368L242.303 158.697C243.224 158.421 244.145 158.974 244.422 159.895L244.79 161.184C245.251 163.026 244.975 165.053 244.053 166.618C243.132 168.184 241.842 169.197 240.276 169.658L240 169.75C238.157 170.21 236.222 169.934 234.564 169.013C232.905 168 231.708 166.434 231.247 164.592L231.063 163.487Z" fill="#26387A"/>
<path d="M272.153 149.118C268.652 149.855 266.533 151.513 265.704 152.25C265.428 152.434 264.875 153.079 264.875 153.171L265.704 154C265.704 154 266.349 153.355 266.625 153.079C267.455 152.434 269.297 150.961 272.522 150.316L272.153 149.118Z" fill="#26387A"/>
<path d="M250.871 158.329L250.963 157.132C250.871 157.132 249.028 156.947 247.278 157.5C245.343 158.053 244.238 158.974 244.146 158.974L244.975 159.895C244.975 159.895 245.896 159.066 247.554 158.698C249.213 158.237 250.871 158.329 250.871 158.329Z" fill="#26387A"/>
<path d="M224.982 161.737L225.259 162.935C227.746 162.474 230.326 163.027 230.326 163.027L230.602 161.829C230.418 161.829 227.746 161.276 224.982 161.737Z" fill="#26387A"/>
<path d="M238.689 165.961C239.624 165.717 240.07 164.322 239.684 162.845C239.299 161.369 238.228 160.37 237.292 160.614C236.357 160.858 235.911 162.253 236.297 163.729C236.682 165.206 237.753 166.205 238.689 165.961Z" fill="#26387A"/>
<path d="M258.48 160.734C259.416 160.49 259.861 159.095 259.476 157.618C259.09 156.142 258.019 155.142 257.084 155.387C256.148 155.631 255.703 157.026 256.088 158.502C256.474 159.979 257.545 160.978 258.48 160.734Z" fill="#26387A"/>
<path d="M229.681 158.882C229.681 158.882 233.735 152.158 239.723 150.684L240.921 153.079C240.921 153.079 235.209 155.658 231.8 161C230.879 160.355 230.05 160.171 229.681 158.882Z" fill="#26387A"/>
<path d="M263.125 150.592C263.125 150.592 256.307 146.632 250.411 148.197L250.503 150.868C250.503 150.868 256.768 150.408 262.295 153.539C262.848 152.342 263.401 151.882 263.125 150.592Z" fill="#26387A"/>
<path d="M251.793 171.592C252.898 171.316 253.912 170.579 254.004 170.487C254.28 170.303 254.372 169.842 254.096 169.566C253.912 169.289 253.451 169.197 253.175 169.474C252.622 169.842 251.332 170.579 250.595 170.395C250.503 170.395 250.227 170.21 250.134 169.842C249.305 167.632 247.923 159.803 247.923 159.711C247.831 159.342 247.463 159.066 247.094 159.158C246.726 159.25 246.449 159.618 246.541 159.987C246.633 160.355 247.923 168 248.845 170.395C249.213 171.316 249.766 171.592 250.227 171.776C250.779 171.776 251.332 171.776 251.793 171.592Z" fill="#F77853"/>
<path d="M255.201 185.961C256.86 185.501 258.15 184.303 258.15 184.211C258.426 183.934 258.426 183.474 258.15 183.29C257.873 183.013 257.412 183.013 257.228 183.29C257.228 183.29 256.215 184.303 254.925 184.672C253.727 184.948 252.345 184.579 252.345 184.579C251.977 184.487 251.608 184.672 251.516 185.04C251.424 185.409 251.608 185.777 251.977 185.869C251.977 185.869 253.635 186.422 255.201 185.961Z" fill="#F77853"/>
<path d="M229.405 168.276C228.207 165.697 226.825 162.382 226.733 160.447C226.549 157.132 228.668 154.553 227.01 151.697C225.351 148.842 227.747 144.697 229.958 143.592C232.169 142.395 238.065 142.118 242.856 138.158C247.463 134.289 256.952 133.737 259.347 136.684C262.203 140.276 259.9 141.289 265.889 144.421C268.284 145.618 267.178 150.776 267.639 153.816C267.823 155.197 268.008 155.842 268.468 157.316L268.653 158.053L274.457 156.487C273.904 151.697 272.983 146.632 272.061 142.303C270.772 136.039 265.52 131.342 259.163 130.605C249.95 129.592 236.683 130.329 226.365 140.276C222.587 143.96 221.021 149.303 222.219 154.46C223.14 158.421 224.614 163.671 226.733 168.921L229.405 168.276Z" fill="#26387A"/>
<path d="M272.43 159.711C271.969 158.145 271.693 156.671 271.601 155.013C271.416 152.895 271.509 150.868 273.443 149.395C274.917 148.289 276.76 147.737 278.51 149.395C282.933 153.263 283.209 168.829 274.549 167.447L272.43 159.711Z" fill="#FFB288"/>
<path d="M274.918 162.842C275.194 162.75 275.378 162.382 275.286 162.105C274.457 157.592 277.774 154 277.866 153.908C278.142 153.632 278.142 153.171 277.866 152.987C277.589 152.71 277.129 152.71 276.944 152.987C276.76 153.171 273.075 157.132 273.996 162.382C274.088 162.75 274.457 163.026 274.825 162.934L274.918 162.842Z" fill="#F77853"/>
<path d="M278.142 158.79C278.234 158.698 278.326 158.606 278.419 158.514C278.603 158.237 278.511 157.777 278.234 157.592C278.142 157.592 276.944 156.763 275.01 156.855C274.641 156.855 274.365 157.224 274.365 157.592C274.365 157.961 274.733 158.237 275.102 158.237C276.576 158.237 277.497 158.79 277.497 158.79C277.681 158.882 277.958 158.882 278.142 158.79Z" fill="#F77853"/>
<path d="M242.856 299.342H126.679C125.481 299.342 124.56 298.421 124.56 297.224V287C124.56 285.803 125.481 284.882 126.679 284.882H242.856C244.053 284.882 244.975 285.803 244.975 287V297.224C244.975 298.421 244.053 299.342 242.856 299.342Z" fill="#26387A"/>
<path d="M124.56 299.342L101.896 222.158C100.606 217.829 104.199 213.592 109.174 213.592H159.017C162.334 213.592 165.374 215.618 166.203 218.566L191.171 299.342H124.56Z" fill="#26387A"/>
<path d="M166.203 218.566L190.894 298.697H196.606L171.915 218.566C170.994 215.618 168.046 213.592 164.729 213.592H159.017C162.334 213.592 165.282 215.618 166.203 218.566Z" fill="#1A2C60"/>
<path d="M153.397 259.276C154.687 264.711 151.186 269.132 145.566 269.132C139.946 269.132 134.418 264.618 133.128 259.184C131.838 253.75 135.339 249.329 140.959 249.329C146.579 249.421 152.107 253.842 153.397 259.276Z" fill="#1A2C60"/>
<path d="M435.317 306.711V307.447C435.317 311.5 432 314.816 427.946 314.816H46.0653C42.0115 314.816 38.6948 311.5 38.6948 307.447V306.711C38.6948 302.658 42.0115 299.342 46.0653 299.342H427.946C432 299.342 435.317 302.658 435.317 306.711Z" fill="#FFC840"/>
<path d="M435.317 306.711V307.079H38.7871V306.711C38.7871 302.658 42.1038 299.342 46.1576 299.342H428.039C432 299.342 435.317 302.658 435.317 306.711Z" fill="#EF8417"/>
<path d="M66.887 17.1322H65.6893C65.505 17.1322 65.2286 17.0401 65.1365 16.8558C65.0444 16.6716 65.0444 16.3952 65.1365 16.2109L65.7814 15.1975C65.9657 14.9211 66.3342 14.829 66.6106 15.0132C66.887 15.1975 66.9791 15.566 66.7948 15.8424L66.7027 16.0267H66.887C67.2555 16.0267 67.5319 16.3031 67.5319 16.6716C67.5319 16.8558 67.2555 17.1322 66.887 17.1322Z" fill="#B6E9FE"/>
<path d="M67.3475 14.1843C67.2554 14.1843 67.1633 14.1843 67.0711 14.0922C66.7948 13.908 66.7026 13.5395 66.8869 13.2632L67.9924 11.4211C68.1767 11.1448 68.5452 11.0527 68.8216 11.2369C69.098 11.4211 69.1901 11.7895 69.0059 12.0659L67.9003 13.908C67.8082 14.0922 67.6239 14.1843 67.3475 14.1843ZM69.5587 10.408C69.4665 10.408 69.3744 10.408 69.2823 10.3159C69.0059 10.1316 68.9138 9.76323 69.098 9.48691L70.2036 7.6448C70.3878 7.36849 70.7564 7.27638 71.0328 7.46059C71.3092 7.6448 71.4013 8.01322 71.217 8.28954L70.1115 10.1316C69.9272 10.3159 69.7429 10.408 69.5587 10.408ZM71.6777 6.72375C71.5855 6.72375 71.4934 6.72375 71.4013 6.63164C71.1249 6.44743 71.0328 6.07901 71.217 5.8027L72.3226 3.96059C72.5068 3.68428 72.8754 3.59217 73.1518 3.77638C73.4281 3.96059 73.5203 4.32901 73.336 4.60533L72.2304 6.44743C72.1383 6.53954 71.9541 6.72375 71.6777 6.72375Z" fill="#B6E9FE"/>
<path d="M75.0866 2.94819C74.9023 2.94819 74.718 2.85606 74.5338 2.6718L74.4417 2.48753L74.3495 2.6718C74.1653 2.94819 73.7967 3.04032 73.5204 2.85606C73.244 2.6718 73.1518 2.30327 73.3361 2.02688L73.981 1.01345C74.0731 0.829187 74.2574 0.737061 74.5338 0.737061C74.718 0.737061 74.9944 0.829187 75.0866 1.01345L75.7315 2.02688C75.9157 2.30327 75.8236 2.6718 75.5472 2.85606C75.2708 2.94819 75.1787 2.94819 75.0866 2.94819Z" fill="#B6E9FE"/>
<path d="M81.5355 14.1843C81.3513 14.1843 81.167 14.0922 80.9827 13.908L79.8772 12.0659C79.6929 11.7895 79.785 11.4211 80.0614 11.2369C80.3378 11.0527 80.7064 11.1448 80.8906 11.4211L81.9962 13.2632C82.1804 13.5395 82.0883 13.908 81.8119 14.0922C81.8119 14.1843 81.6277 14.1843 81.5355 14.1843ZM79.4165 10.408C79.2323 10.408 79.048 10.3159 78.8637 10.1316L77.7582 8.28954C77.5739 8.01322 77.666 7.6448 77.9424 7.46059C78.2188 7.27638 78.5873 7.36849 78.7716 7.6448L79.8772 9.48691C80.0614 9.76323 79.9693 10.1316 79.6929 10.3159C79.6008 10.408 79.5086 10.408 79.4165 10.408ZM77.2054 6.72375C77.0211 6.72375 76.8369 6.63164 76.6526 6.44743L75.547 4.60533C75.3628 4.32901 75.4549 3.96059 75.7313 3.77638C76.0077 3.59217 76.3762 3.68428 76.5605 3.96059L77.666 5.8027C77.8503 6.07901 77.7582 6.44743 77.4818 6.63164C77.4818 6.63164 77.3897 6.72375 77.2054 6.72375Z" fill="#B6E9FE"/>
<path d="M83.2863 17.1323H81.9965C81.628 17.1323 81.3516 16.8559 81.3516 16.4874C81.3516 16.1188 81.628 15.8425 81.9965 15.8425H82.1807L82.0886 15.6582C81.9043 15.3818 81.9965 15.0133 82.2729 14.829C82.5493 14.6448 82.9178 14.7369 83.102 15.0133L83.7469 16.0267C83.8391 16.211 83.8391 16.4874 83.7469 16.6716C83.6548 16.948 83.4706 17.1323 83.2863 17.1323Z" fill="#B6E9FE"/>
<path d="M79.8773 17.132H77.7583C77.3898 17.132 77.1134 16.8556 77.1134 16.4871C77.1134 16.1186 77.3898 15.8422 77.7583 15.8422H79.8773C80.2458 15.8422 80.5222 16.1186 80.5222 16.4871C80.5222 16.8556 80.2458 17.132 79.8773 17.132ZM75.5472 17.132H73.4282C73.0596 17.132 72.7833 16.8556 72.7833 16.4871C72.7833 16.1186 73.0596 15.8422 73.4282 15.8422H75.5472C75.9157 15.8422 76.1921 16.1186 76.1921 16.4871C76.1921 16.8556 75.9157 17.132 75.5472 17.132ZM71.217 17.132H69.098C68.7295 17.132 68.4531 16.8556 68.4531 16.4871C68.4531 16.1186 68.7295 15.8422 69.098 15.8422H71.217C71.5856 15.8422 71.862 16.1186 71.862 16.4871C71.862 16.8556 71.5856 17.132 71.217 17.132Z" fill="#B6E9FE"/>
<path d="M104.384 27.3552C104.384 27.3552 104.292 27.3552 104.384 27.3552C103.462 27.2631 102.633 26.9868 101.804 26.6184C101.528 26.4342 101.343 26.1579 101.528 25.7894C101.712 25.5131 101.988 25.3289 102.357 25.5131C103.002 25.7894 103.739 26.0658 104.476 26.1579C104.844 26.25 105.029 26.5263 105.029 26.8026C104.936 27.171 104.66 27.3552 104.384 27.3552ZM106.779 27.3552C106.503 27.3552 106.226 27.171 106.134 26.8026C106.042 26.4342 106.318 26.1579 106.687 26.1579C107.424 26.0658 108.161 25.8815 108.806 25.5131C109.082 25.3289 109.451 25.5131 109.635 25.7894C109.819 26.0658 109.635 26.4342 109.359 26.6184C108.622 26.9868 107.7 27.2631 106.779 27.3552C106.871 27.3552 106.779 27.3552 106.779 27.3552ZM111.201 25.421C111.017 25.421 110.833 25.3289 110.741 25.2368C110.556 24.9605 110.556 24.5921 110.833 24.4079C111.386 23.9473 111.938 23.3026 112.307 22.75C112.491 22.4737 112.86 22.3815 113.136 22.5658C113.412 22.75 113.505 23.1184 113.32 23.3947C112.86 24.1315 112.307 24.7763 111.662 25.3289C111.478 25.3289 111.293 25.421 111.201 25.421ZM100.054 25.421C99.8693 25.421 99.7771 25.3289 99.685 25.2368C99.0401 24.6842 98.4873 24.0394 98.0267 23.3026C97.8424 23.0263 97.9345 22.6579 98.2109 22.4736C98.4873 22.2894 98.8558 22.3816 99.0401 22.6579C99.4086 23.3026 99.9614 23.8552 100.514 24.3158C100.791 24.5 100.791 24.9605 100.606 25.1447C100.33 25.3289 100.146 25.421 100.054 25.421ZM113.781 21.3684C113.689 21.3684 113.689 21.3684 113.597 21.3684C113.32 21.2763 113.136 20.9079 113.228 20.6315C113.412 19.8947 113.505 19.1579 113.505 18.421C113.505 18.0526 113.781 17.7763 114.15 17.7763C114.518 17.7763 114.794 18.0526 114.794 18.421C114.794 19.25 114.702 20.171 114.426 21C114.242 21.1842 114.057 21.3684 113.781 21.3684ZM97.3818 21.3684C97.1054 21.3684 96.9211 21.1842 96.829 20.9079C96.5526 20.0789 96.4604 19.25 96.4604 18.3289C96.4604 17.9605 96.7368 17.6842 97.1054 17.6842C97.4739 17.6842 97.7503 17.9605 97.7503 18.3289C97.7503 19.0658 97.8424 19.8026 98.0267 20.5394C98.1188 20.8158 97.9345 21.1842 97.6581 21.2763C97.566 21.3684 97.4739 21.3684 97.3818 21.3684ZM113.781 16.5789C113.505 16.5789 113.32 16.3947 113.228 16.1184C113.044 15.3815 112.675 14.7368 112.307 14.0921C112.123 13.8158 112.215 13.4473 112.491 13.2631C112.768 13.0789 113.136 13.171 113.32 13.4473C113.781 14.1842 114.15 15.0131 114.426 15.8421C114.518 16.1184 114.334 16.4868 114.057 16.5789C113.873 16.5789 113.781 16.5789 113.781 16.5789ZM97.3818 16.5789C97.2896 16.5789 97.2896 16.5789 97.1975 16.5789C96.9211 16.4868 96.7368 16.1184 96.829 15.8421C97.1054 15.0131 97.4739 14.1842 97.9345 13.4473C98.1188 13.171 98.4873 13.0789 98.7637 13.2631C99.0401 13.4473 99.1322 13.8158 98.948 14.0921C98.5794 14.7368 98.2109 15.3815 98.0267 16.1184C97.9345 16.3947 97.6581 16.5789 97.3818 16.5789ZM111.201 12.5263C111.017 12.5263 110.925 12.4342 110.833 12.3421C110.28 11.8816 109.635 11.421 108.898 11.1447C108.622 10.9605 108.437 10.6842 108.622 10.3158C108.806 10.0394 109.082 9.85523 109.451 10.0394C110.28 10.4079 111.017 10.8684 111.662 11.421C111.938 11.6052 111.938 12.0658 111.754 12.25C111.478 12.4342 111.293 12.5263 111.201 12.5263ZM100.054 12.5263C99.8693 12.5263 99.685 12.4342 99.5929 12.3421C99.4086 12.0658 99.4086 11.6973 99.685 11.5131C100.33 10.9605 101.067 10.5 101.896 10.1315C102.173 9.94734 102.541 10.1316 102.725 10.4079C102.91 10.6842 102.725 11.0526 102.449 11.2368C101.804 11.5131 101.159 11.9737 100.514 12.4342C100.33 12.4342 100.146 12.5263 100.054 12.5263ZM106.779 10.5C105.95 10.4079 105.213 10.4079 104.476 10.5C104.107 10.5 103.831 10.3158 103.831 9.94734C103.739 9.57892 104.015 9.3026 104.384 9.3026C105.213 9.21049 106.134 9.21049 106.963 9.3026C107.332 9.3947 107.516 9.67102 107.516 9.94734C107.332 10.3158 107.055 10.5 106.779 10.5Z" fill="#FFC840"/>
<path d="M61.7274 50.3816C61.6353 50.3816 61.6353 50.3816 61.7274 50.3816C60.8061 50.2895 59.9769 50.0132 59.1478 49.6447C58.8714 49.4605 58.6871 49.1842 58.8714 48.8158C59.0556 48.5395 59.332 48.3553 59.7006 48.5395C60.3455 48.8158 61.0825 49.0921 61.8196 49.1842C62.1881 49.2763 62.3723 49.5527 62.3723 49.829C62.2802 50.1974 62.0038 50.3816 61.7274 50.3816ZM64.1228 50.3816C63.8464 50.3816 63.57 50.1974 63.4779 49.829C63.3858 49.4605 63.6622 49.1842 64.0307 49.1842C64.7677 49.0921 65.5048 48.9079 66.1497 48.5395C66.4261 48.3553 66.7946 48.5395 66.9789 48.8158C67.1631 49.0921 66.9789 49.4605 66.7025 49.6447C65.8733 50.0132 65.0441 50.1974 64.1228 50.3816ZM68.453 48.3553C68.2687 48.3553 68.0844 48.2632 67.9923 48.1711C67.808 47.8948 67.808 47.5263 68.0844 47.3421C68.6372 46.8816 69.19 46.2369 69.5585 45.6842C69.7428 45.4079 70.1113 45.3158 70.3877 45.5C70.6641 45.6842 70.7562 46.0526 70.572 46.329C70.1113 47.0658 69.5585 47.7105 68.9136 48.2632C68.7293 48.3553 68.6372 48.3553 68.453 48.3553ZM57.3052 48.3553C57.1209 48.3553 57.0288 48.2632 56.9366 48.1711C56.2917 47.6184 55.7389 46.9737 55.2783 46.2369C55.094 45.9605 55.1862 45.5921 55.4625 45.4079C55.7389 45.2237 56.1075 45.3158 56.2917 45.5921C56.6602 46.2369 57.213 46.7895 57.7658 47.25C58.0422 47.4342 58.0422 47.8947 57.8579 48.079C57.6737 48.2632 57.4894 48.3553 57.3052 48.3553ZM71.0326 44.3027C70.9405 44.3027 70.9405 44.3027 70.8483 44.3027C70.5719 44.2105 70.3877 43.8421 70.4798 43.5658C70.6641 42.829 70.7562 42.0921 70.7562 41.3553C70.7562 40.9869 71.0326 40.7105 71.4011 40.7105C71.7697 40.7105 72.046 40.9869 72.046 41.3553C72.046 42.1842 71.9539 43.1053 71.6775 43.9342C71.5854 44.2105 71.309 44.3027 71.0326 44.3027ZM54.7255 44.3027C54.4491 44.3027 54.2649 44.1184 54.1727 43.8421C53.8963 43.0132 53.8042 42.1842 53.8042 41.2632C53.8042 40.8948 54.0806 40.6184 54.4491 40.6184C54.8176 40.6184 55.094 40.8948 55.094 41.2632C55.094 42 55.1862 42.7369 55.3704 43.4737C55.4625 43.75 55.2783 44.1184 55.0019 44.2105C54.8176 44.3026 54.8176 44.3027 54.7255 44.3027ZM71.0326 39.5132C70.7562 39.5132 70.572 39.329 70.4798 39.0526C70.2956 38.3158 69.927 37.6711 69.5585 37.0263C69.3743 36.75 69.4664 36.3816 69.7428 36.1974C70.0192 36.0132 70.3877 36.1053 70.572 36.3816C71.0326 37.1184 71.4011 37.9474 71.6775 38.7763C71.7697 39.0527 71.5854 39.4211 71.309 39.5132C71.2169 39.5132 71.1247 39.5132 71.0326 39.5132ZM54.7255 39.5132C54.6334 39.5132 54.6334 39.5132 54.5412 39.5132C54.2648 39.4211 54.0806 39.0527 54.1727 38.7763C54.4491 37.9474 54.8176 37.1184 55.2783 36.3816C55.4625 36.1053 55.8311 36.0132 56.1075 36.1974C56.3839 36.3816 56.476 36.75 56.2917 37.0263C55.9232 37.6711 55.5547 38.3158 55.3704 39.0526C55.2783 39.4211 55.0019 39.5132 54.7255 39.5132ZM68.453 35.5527C68.2687 35.5527 68.1766 35.4605 68.0844 35.3684C67.5316 34.9079 66.8867 34.4474 66.1497 34.1711C65.8733 33.9869 65.689 33.7105 65.8733 33.3421C66.0576 33.0658 66.334 32.8816 66.7025 33.0658C67.5316 33.4342 68.2687 33.8947 68.9136 34.4474C69.19 34.6316 69.19 35.0921 69.0057 35.2763C68.8215 35.4605 68.6372 35.5527 68.453 35.5527ZM57.3052 35.5527C57.1209 35.5527 56.9366 35.4605 56.8445 35.3684C56.6602 35.0921 56.6602 34.7237 56.9366 34.5395C57.5816 33.9869 58.3186 33.5263 59.1478 33.1579C59.4242 32.9737 59.7927 33.1579 59.9769 33.4342C60.1612 33.7105 59.9769 34.079 59.7006 34.2632C59.0556 34.5395 58.4107 35 57.7658 35.4605C57.5815 35.4605 57.4894 35.5527 57.3052 35.5527ZM64.1228 33.5263C64.1228 33.5263 64.0307 33.5263 64.1228 33.5263C63.2936 33.4342 62.5566 33.4342 61.8196 33.5263C61.451 33.5263 61.1746 33.3421 61.1746 32.9737C61.0825 32.6053 61.3589 32.329 61.7274 32.329C62.5566 32.2369 63.4779 32.2369 64.3071 32.329C64.6756 32.4211 64.8599 32.6974 64.8599 32.9737C64.6756 33.3421 64.3992 33.5263 64.1228 33.5263Z" fill="#FFC840"/>
<path d="M347.24 62.0796H346.042C345.858 62.0796 345.582 61.9875 345.49 61.8032C345.397 61.619 345.397 61.3426 345.49 61.1583L346.134 60.1449C346.319 59.8685 346.687 59.7763 346.964 59.9606C347.24 60.1449 347.332 60.5134 347.148 60.7898L347.056 60.974H347.24C347.609 60.974 347.885 61.2504 347.885 61.6189C347.885 61.8032 347.609 62.0796 347.24 62.0796Z" fill="#B6E9FE"/>
<path d="M347.701 59.1324C347.608 59.1324 347.516 59.1324 347.424 59.0403C347.148 58.8561 347.056 58.4877 347.24 58.2113L348.345 56.3692C348.53 56.0929 348.898 56.0008 349.175 56.185C349.451 56.3692 349.543 56.7377 349.359 57.014L348.253 58.8561C348.161 59.0403 347.885 59.1324 347.701 59.1324ZM349.912 55.4482C349.82 55.4482 349.727 55.4482 349.635 55.3561C349.359 55.1719 349.267 54.8034 349.451 54.5271L350.557 52.685C350.741 52.4087 351.109 52.3166 351.386 52.5008C351.662 52.685 351.754 53.0534 351.57 53.3298L350.464 55.1719C350.28 55.3561 350.096 55.4482 349.912 55.4482ZM352.031 51.6719C351.939 51.6719 351.846 51.6719 351.754 51.5798C351.478 51.3956 351.386 51.0271 351.57 50.7508L352.676 48.9087C352.86 48.6324 353.228 48.5403 353.505 48.7245C353.781 48.9087 353.873 49.2771 353.689 49.5535L352.583 51.3956C352.399 51.5798 352.215 51.6719 352.031 51.6719Z" fill="#B6E9FE"/>
<path d="M355.44 47.9875C355.255 47.9875 355.071 47.8954 354.887 47.7111L354.795 47.5269L354.703 47.7111C354.518 47.9875 354.15 48.0796 353.873 47.8954C353.597 47.7111 353.505 47.3426 353.689 47.0662L354.334 46.0528C354.426 45.8685 354.61 45.7764 354.887 45.7764C355.163 45.7764 355.347 45.8685 355.44 46.0528L356.084 47.0662C356.269 47.3426 356.177 47.7111 355.9 47.8954C355.624 47.8954 355.532 47.9875 355.44 47.9875Z" fill="#B6E9FE"/>
<path d="M361.889 59.1324C361.705 59.1324 361.521 59.0403 361.336 58.8561L360.231 57.014C360.046 56.7377 360.139 56.3692 360.415 56.185C360.691 56.0008 361.06 56.0929 361.244 56.3692L362.35 58.2113C362.534 58.4877 362.442 58.8561 362.165 59.0403C362.073 59.1324 361.981 59.1324 361.889 59.1324ZM359.678 55.4482C359.494 55.4482 359.309 55.3561 359.125 55.1719L358.02 53.3298C357.835 53.0534 357.927 52.685 358.204 52.5008C358.48 52.3166 358.849 52.4087 359.033 52.685L360.139 54.5271C360.323 54.8034 360.231 55.1719 359.954 55.3561C359.954 55.4482 359.862 55.4482 359.678 55.4482ZM357.559 51.6719C357.375 51.6719 357.19 51.5798 357.006 51.3956L355.901 49.5535C355.716 49.2771 355.808 48.9087 356.085 48.7245C356.361 48.5403 356.73 48.6324 356.914 48.9087L358.02 50.7508C358.204 51.0271 358.112 51.3956 357.835 51.5798C357.743 51.6719 357.651 51.6719 357.559 51.6719Z" fill="#B6E9FE"/>
<path d="M363.547 62.0797H362.349C361.981 62.0797 361.705 61.8033 361.705 61.4348C361.705 61.0662 361.981 60.7898 362.349 60.7898H362.534L362.442 60.6056C362.257 60.3292 362.35 59.9607 362.626 59.7764C362.902 59.5921 363.271 59.6843 363.455 59.9607L364.1 60.9741C364.192 61.1584 364.192 61.4348 364.1 61.619C364.008 61.8033 363.824 62.0797 363.547 62.0797Z" fill="#B6E9FE"/>
<path d="M360.23 62.0794H358.111C357.743 62.0794 357.466 61.803 357.466 61.4345C357.466 61.0659 357.743 60.7896 358.111 60.7896H360.23C360.599 60.7896 360.875 61.0659 360.875 61.4345C360.783 61.803 360.507 62.0794 360.23 62.0794ZM355.9 62.0794H353.781C353.413 62.0794 353.136 61.803 353.136 61.4345C353.136 61.0659 353.413 60.7896 353.781 60.7896H355.9C356.269 60.7896 356.545 61.0659 356.545 61.4345C356.453 61.803 356.177 62.0794 355.9 62.0794ZM351.57 62.0794H349.451C349.083 62.0794 348.806 61.803 348.806 61.4345C348.806 61.0659 349.083 60.7896 349.451 60.7896H351.57C351.939 60.7896 352.215 61.0659 352.215 61.4345C352.123 61.803 351.846 62.0794 351.57 62.0794Z" fill="#B6E9FE"/>
<path d="M392.2 39.698H391.002C390.818 39.698 390.542 39.6059 390.449 39.4216C390.357 39.2374 390.357 38.961 390.449 38.7767L391.094 37.7633C391.279 37.4869 391.647 37.3948 391.924 37.579C392.2 37.7633 392.292 38.1318 392.108 38.4082L392.016 38.5924H392.2C392.569 38.5924 392.845 38.8688 392.845 39.2374C392.845 39.4216 392.569 39.698 392.2 39.698Z" fill="#B6E9FE"/>
<path d="M392.661 36.7509C392.568 36.7509 392.476 36.7509 392.384 36.6588C392.108 36.4746 392.016 36.1062 392.2 35.8299L393.305 33.9878C393.49 33.7114 393.858 33.6193 394.135 33.8035C394.411 33.9878 394.503 34.3562 394.319 34.6325L393.213 36.4746C393.121 36.6588 392.845 36.7509 392.661 36.7509ZM394.78 32.9746C394.687 32.9746 394.595 32.9746 394.503 32.8825C394.227 32.6983 394.135 32.3299 394.319 32.0536L395.424 30.2114C395.609 29.9351 395.977 29.843 396.254 30.0272C396.53 30.2115 396.622 30.5799 396.438 30.8562L395.332 32.6983C395.24 32.8825 395.056 32.9746 394.78 32.9746ZM396.991 29.2904C396.899 29.2904 396.806 29.2904 396.714 29.1983C396.438 29.0141 396.346 28.6457 396.53 28.3693L397.636 26.5272C397.82 26.2509 398.188 26.1588 398.465 26.343C398.741 26.5272 398.833 26.8957 398.649 27.172L397.543 29.0141C397.359 29.1983 397.175 29.2904 396.991 29.2904Z" fill="#B6E9FE"/>
<path d="M400.4 25.5139C400.215 25.5139 400.031 25.4217 399.847 25.2375L399.755 25.0532L399.663 25.2375C399.478 25.5139 399.11 25.606 398.833 25.4217C398.557 25.2375 398.465 24.8689 398.649 24.5926L399.294 23.5791C399.386 23.3949 399.57 23.3027 399.847 23.3027C400.031 23.3027 400.307 23.3949 400.4 23.5791L401.044 24.5926C401.229 24.8689 401.137 25.2375 400.86 25.4217C400.584 25.5139 400.492 25.5139 400.4 25.5139Z" fill="#B6E9FE"/>
<path d="M406.849 36.7509C406.664 36.7509 406.48 36.6588 406.296 36.4746L405.19 34.6325C405.006 34.3562 405.098 33.9878 405.374 33.8035C405.651 33.6193 406.019 33.7114 406.204 33.9878L407.309 35.8299C407.493 36.1062 407.401 36.4746 407.125 36.6588C407.033 36.7509 406.941 36.7509 406.849 36.7509ZM404.637 32.9746C404.453 32.9746 404.269 32.8825 404.085 32.6983L402.979 30.8562C402.795 30.5799 402.887 30.2115 403.163 30.0272C403.44 29.843 403.808 29.9351 403.992 30.2114L405.098 32.0536C405.282 32.3299 405.19 32.6983 404.914 32.8825C404.914 32.9746 404.822 32.9746 404.637 32.9746ZM402.518 29.2904C402.334 29.2904 402.15 29.1983 401.966 29.0141L400.86 27.172C400.676 26.8957 400.768 26.5272 401.044 26.343C401.321 26.1588 401.689 26.2509 401.873 26.5272L402.979 28.3693C403.163 28.6457 403.071 29.0141 402.795 29.1983C402.703 29.1983 402.61 29.2904 402.518 29.2904Z" fill="#B6E9FE"/>
<path d="M408.507 39.6982H407.309C406.941 39.6982 406.665 39.4218 406.665 39.0533C406.665 38.6848 406.941 38.4084 407.309 38.4084H407.494L407.402 38.2241C407.217 37.9477 407.309 37.5792 407.586 37.3949C407.862 37.2107 408.231 37.3028 408.415 37.5792L409.06 38.5926C409.152 38.7769 409.152 39.0533 409.06 39.2375C408.968 39.5139 408.784 39.6982 408.507 39.6982Z" fill="#B6E9FE"/>
<path d="M405.19 39.6978H403.071C402.703 39.6978 402.426 39.4214 402.426 39.0529C402.426 38.6843 402.703 38.408 403.071 38.408H405.19C405.559 38.408 405.835 38.6843 405.835 39.0529C405.743 39.4214 405.467 39.6978 405.19 39.6978ZM400.86 39.6978H398.741C398.372 39.6978 398.096 39.4214 398.096 39.0529C398.096 38.6843 398.372 38.408 398.741 38.408H400.86C401.229 38.408 401.505 38.6843 401.505 39.0529C401.413 39.4214 401.136 39.6978 400.86 39.6978ZM396.53 39.6978H394.319C393.95 39.6978 393.674 39.4214 393.674 39.0529C393.674 38.6843 393.95 38.408 394.319 38.408H396.438C396.806 38.408 397.083 38.6843 397.083 39.0529C397.083 39.4214 396.806 39.6978 396.53 39.6978Z" fill="#B6E9FE"/>
<path d="M368.246 36.7501C368.246 36.7501 368.154 36.7501 368.246 36.7501C367.325 36.658 366.495 36.3817 365.666 36.0132C365.39 35.829 365.206 35.5527 365.39 35.1843C365.574 34.908 365.851 34.7237 366.219 34.908C366.864 35.1843 367.601 35.4606 368.338 35.5527C368.707 35.6448 368.891 35.9211 368.891 36.1974C368.799 36.5659 368.522 36.7501 368.246 36.7501ZM370.641 36.7501C370.365 36.7501 370.089 36.5659 369.996 36.1974C369.904 35.829 370.181 35.5527 370.549 35.5527C371.286 35.4606 372.023 35.2764 372.668 34.908C372.945 34.7237 373.313 34.908 373.497 35.1843C373.682 35.4606 373.497 35.829 373.221 36.0132C372.484 36.3817 371.563 36.658 370.641 36.7501C370.733 36.7501 370.641 36.7501 370.641 36.7501ZM374.971 34.8159C374.787 34.8159 374.603 34.7238 374.511 34.6317C374.327 34.3553 374.327 33.9869 374.603 33.8027C375.156 33.3422 375.709 32.6974 376.077 32.1448C376.261 31.8685 376.63 31.7764 376.906 31.9606C377.183 32.1448 377.275 32.5132 377.09 32.7895C376.63 33.5264 376.077 34.1711 375.432 34.7237C375.34 34.7237 375.156 34.8159 374.971 34.8159ZM363.916 34.8159C363.732 34.8159 363.639 34.7238 363.547 34.6317C362.902 34.079 362.35 33.4343 361.889 32.6974C361.705 32.4211 361.797 32.0527 362.073 31.8685C362.35 31.6843 362.718 31.7764 362.902 32.0527C363.271 32.6974 363.824 33.2501 364.376 33.7106C364.653 33.8948 364.653 34.3553 364.469 34.5395C364.192 34.7238 364.008 34.8159 363.916 34.8159ZM377.643 30.7632C377.551 30.7632 377.551 30.7632 377.459 30.7632C377.183 30.6711 376.998 30.3027 377.09 30.0264C377.275 29.2895 377.367 28.5527 377.367 27.8159C377.367 27.4474 377.643 27.1711 378.012 27.1711C378.38 27.1711 378.657 27.4474 378.657 27.8159C378.657 28.6448 378.565 29.5659 378.288 30.3948C378.104 30.579 377.92 30.7632 377.643 30.7632ZM361.244 30.7632C360.968 30.7632 360.783 30.579 360.691 30.3027C360.415 29.4737 360.323 28.6448 360.323 27.7238C360.323 27.3553 360.599 27.079 360.968 27.079C361.336 27.079 361.613 27.3553 361.613 27.7238C361.613 28.4606 361.705 29.1974 361.889 29.9343C361.981 30.2106 361.797 30.579 361.52 30.6711C361.428 30.7632 361.336 30.7632 361.244 30.7632ZM377.643 25.9738C377.367 25.9738 377.183 25.7895 377.09 25.5132C376.906 24.7764 376.538 24.1316 376.169 23.4869C375.985 23.2106 376.077 22.8422 376.353 22.658C376.63 22.4738 376.998 22.5659 377.183 22.8422C377.643 23.579 378.012 24.408 378.288 25.2369C378.38 25.5132 378.196 25.8816 377.92 25.9738C377.735 25.9738 377.643 25.9738 377.643 25.9738ZM361.244 25.9738C361.152 25.9738 361.152 25.9738 361.06 25.9738C360.783 25.8816 360.599 25.5132 360.691 25.2369C360.968 24.408 361.336 23.579 361.797 22.8422C361.981 22.5659 362.35 22.4738 362.626 22.658C362.902 22.8422 362.995 23.2106 362.81 23.4869C362.442 24.1316 362.073 24.7764 361.889 25.5132C361.797 25.7895 361.52 25.9738 361.244 25.9738ZM374.971 21.9211C374.787 21.9211 374.695 21.829 374.603 21.7369C374.05 21.2764 373.405 20.8159 372.668 20.5395C372.392 20.3553 372.208 20.079 372.392 19.7106C372.576 19.4343 372.852 19.2501 373.221 19.4343C374.05 19.8027 374.787 20.2632 375.432 20.8159C375.709 21.0001 375.709 21.4606 375.524 21.6448C375.34 21.829 375.156 21.9211 374.971 21.9211ZM363.916 21.9211C363.732 21.9211 363.547 21.829 363.455 21.7369C363.271 21.4606 363.271 21.0922 363.547 20.908C364.192 20.3553 364.929 19.8948 365.758 19.5264C366.035 19.3422 366.403 19.5264 366.588 19.8027C366.772 20.079 366.588 20.4474 366.311 20.6316C365.666 20.908 365.021 21.3685 364.376 21.829C364.192 21.9211 364.008 21.9211 363.916 21.9211ZM370.641 19.9869C369.812 19.8948 369.075 19.8948 368.338 19.9869C367.97 19.9869 367.693 19.8027 367.693 19.4343C367.601 19.0659 367.877 18.7895 368.246 18.7895C369.075 18.6974 369.996 18.6974 370.826 18.7895C371.194 18.8816 371.378 19.158 371.378 19.4343C371.194 19.7106 370.918 19.9869 370.641 19.9869Z" fill="#FFC840"/>
<path d="M346.963 107.487V126.921C346.963 129.5 344.844 131.526 342.357 131.526H307.071L296.384 135.303C295.278 135.671 294.265 134.658 294.633 133.553L298.687 123.145V107.395C298.687 104.816 300.806 102.79 303.386 102.79H342.357C344.844 102.79 346.963 104.908 346.963 107.487Z" fill="#B6E9FE"/>
<path d="M312.967 121.119C314.85 121.119 316.376 119.593 316.376 117.711C316.376 115.828 314.85 114.303 312.967 114.303C311.085 114.303 309.559 115.828 309.559 117.711C309.559 119.593 311.085 121.119 312.967 121.119Z" fill="#6CB1EF"/>
<path d="M323.563 121.119C325.445 121.119 326.971 119.593 326.971 117.711C326.971 115.828 325.445 114.303 323.563 114.303C321.68 114.303 320.154 115.828 320.154 117.711C320.154 119.593 321.68 121.119 323.563 121.119Z" fill="#6CB1EF"/>
<path d="M334.25 121.119C336.132 121.119 337.658 119.593 337.658 117.711C337.658 115.828 336.132 114.303 334.25 114.303C332.367 114.303 330.841 115.828 330.841 117.711C330.841 119.593 332.367 121.119 334.25 121.119Z" fill="#6CB1EF"/>
</svg>
