<svg width="14" height="13" viewBox="0 0 14 13" xmlns="http://www.w3.org/2000/svg">
<path d="M2.875 12.5V11.125H0.125V9.75H2.875V8.375L4.9375 10.4375L2.875 12.5ZM8.375 0.8125C9.8875 0.8125 11.125 2.05 11.125 3.5625C11.125 5.075 9.8875 6.3125 8.375 6.3125C6.8625 6.3125 5.625 5.075 5.625 3.5625C5.625 2.05 6.8625 0.8125 8.375 0.8125ZM13.875 10.4375V11.8125H6.79375C6.93125 11.4 7 10.9187 7 10.4375C7 9.475 6.65625 8.65 6.175 7.89375C6.8625 7.75625 7.61875 7.6875 8.375 7.6875C11.4 7.6875 13.875 8.925 13.875 10.4375Z"/>
</svg>
