<svg width="10" height="16" viewBox="0 0 10 16" fill="none" xmlns="http://www.w3.org/2000/svg">
<path d="M9.09922 7.5L1.79922 0.2C1.69922 0.1 1.49922 0 1.29922 0C1.19922 0 0.999219 0.1 0.899219 0.2C0.699219 0.3 0.699219 0.5 0.699219 0.6C0.699219 0.7 0.699219 1 0.899219 1.1L7.79922 8L0.899219 14.9C0.799219 15 0.699219 15.2 0.699219 15.4C0.699219 15.6 0.799219 15.7 0.899219 15.9C0.999219 15.9 1.19922 16 1.29922 16C1.49922 16 1.59922 15.9 1.79922 15.8L9.19922 8.4C9.29922 8.3 9.39922 8.1 9.39922 7.9C9.29922 7.8 9.29922 7.7 9.09922 7.5Z" fill="#3174E6"/>
</svg>
