<svg width="8" height="12" viewBox="0 0 8 12" xmlns="http://www.w3.org/2000/svg">
<path d="M0.925391 6.375L6.47539 11.925C6.55039 12 6.70039 12.075 6.77539 12.075C6.92539 12.075 7.00039 12 7.15039 11.925C7.22539 11.85 7.30039 11.7 7.30039 11.55C7.30039 11.4 7.22539 11.325 7.15039 11.175L1.90039 6L7.07539 0.825C7.15039 0.75 7.22539 0.6 7.22539 0.45C7.22539 0.3 7.15039 0.225 7.07539 0.075C7.00039 0.075 6.85039 0 6.77539 0C6.62539 0 6.55039 0.075 6.40039 0.15L0.925391 5.625C0.775391 5.775 0.775391 5.85 0.775391 6C0.775391 6.15 0.775391 6.225 0.925391 6.375Z"/>
</svg>
