<svg width="14" height="14" viewBox="0 0 14 14" fill="none" xmlns="http://www.w3.org/2000/svg">
<path d="M6.7375 4.8124H1.75L4.2875 2.2749C4.375 2.1874 4.4625 2.0999 4.4625 1.9249C4.4625 1.8374 4.375 1.6624 4.2875 1.5749C4.2 1.4874 4.025 1.3999 3.9375 1.3999C3.85 1.3999 3.675 1.4874 3.5875 1.5749L0.175 4.8999C0.0875 5.0749 0 5.1624 0 5.3374V5.5124L0.175 5.7749L3.5 9.0999C3.5875 9.1874 3.7625 9.2749 3.85 9.2749C4.025 9.2749 4.1125 9.1874 4.2 9.0999C4.2875 9.0124 4.375 8.8374 4.375 8.7499C4.375 8.6624 4.2875 8.4874 4.2 8.3999L1.75 5.8624H6.65C10.0625 5.8624 12.8625 8.6624 12.8625 12.0749C12.8625 12.3374 13.125 12.5999 13.3875 12.5999C13.65 12.5999 13.9125 12.3374 13.9125 12.0749C14 8.0499 10.7625 4.8124 6.7375 4.8124Z" fill="#5D657B"/>
</svg>
