<svg width="16" height="16" viewBox="0 0 16 16" fill="none" xmlns="http://www.w3.org/2000/svg">
<g clip-path="url(#clip0)">
<path d="M8 16C12.4183 16 16 12.4183 16 8C16 3.58172 12.4183 0 8 0C3.58172 0 0 3.58172 0 8C0 12.4183 3.58172 16 8 16Z" fill="#F2C94C"/>
<path d="M7.9998 13.4847C9.13501 13.4847 10.0553 11.9245 10.0553 9.99994C10.0553 8.07534 9.13501 6.51514 7.9998 6.51514C6.8646 6.51514 5.94434 8.07534 5.94434 9.99994C5.94434 11.9245 6.8646 13.4847 7.9998 13.4847Z" fill="#695342"/>
<path d="M9.73482 11.8676C8.23508 11.0436 7.01375 11.5108 6.30762 11.9786C6.67828 12.8884 7.29802 13.4847 7.99935 13.4847C8.72948 13.4847 9.37002 12.8394 9.73482 11.8676Z" fill="#F06669"/>
<path d="M2.47559 7.47599L2.52359 13.7987C3.36679 14.5928 4.38012 15.2056 5.50599 15.5752V5.54639L2.47559 7.47599Z" fill="#56CCF2"/>
<path d="M10.4941 5.54639V15.5763C11.6205 15.2067 12.6328 14.5917 13.4765 13.7976L13.5245 7.47599L10.4941 5.54639Z" fill="#56CCF2"/>
<path d="M13.1439 7.81788C13.0388 7.81788 12.9332 7.78428 12.8442 7.71495L10.617 5.98002C10.4895 5.88082 10.4191 5.72455 10.4298 5.56348C10.4404 5.40242 10.53 5.25682 10.6692 5.17468L13.0047 3.80082C13.2367 3.66428 13.5359 3.74162 13.673 3.97415C13.8095 4.20615 13.7322 4.50535 13.4996 4.64242L11.7834 5.65202L13.4436 6.94588C13.6564 7.11175 13.6943 7.41842 13.5284 7.63068C13.433 7.75335 13.289 7.81788 13.1439 7.81788Z" fill="#303030"/>
<path d="M2.85666 7.81781C2.7116 7.81781 2.5676 7.75328 2.4716 7.62954C2.30573 7.41674 2.34413 7.11008 2.5564 6.94474L4.21666 5.65088L2.5004 4.64181C2.2684 4.50528 2.19053 4.20608 2.32706 3.97354C2.46413 3.74154 2.76333 3.66368 2.99533 3.80021L5.3308 5.17408C5.47 5.25621 5.56013 5.40181 5.57026 5.56288C5.58093 5.72394 5.51053 5.88021 5.38306 5.97941L3.15586 7.71434C3.06733 7.78421 2.96173 7.81781 2.85666 7.81781Z" fill="#303030"/>
</g>
<defs>
<clipPath id="clip0">
<rect width="16" height="16" fill="white"/>
</clipPath>
</defs>
</svg>
