<svg width="40" height="40" viewBox="0 0 40 40" fill="none" xmlns="http://www.w3.org/2000/svg">
<path d="M38.2904 30.2073L36.7153 31.7824C34.6978 33.8346 31.7345 34.6515 28.9133 33.9588C26.0656 33.1715 23.3603 31.9476 20.8833 30.3049C18.5878 28.8268 16.4621 27.1098 14.532 25.1626C12.7579 23.4055 11.1626 21.4697 9.77218 19.3982C8.24316 17.171 7.03015 14.749 6.16804 12.2011C5.18208 9.20586 5.9536 5.94176 8.17603 3.75395L10.0065 1.92344C10.5174 1.4126 11.3415 1.41936 11.8693 1.93014L17.7372 7.79809C18.2565 8.31738 18.2719 9.15013 17.7611 9.66097L14.3725 13.0495C13.3933 14.0115 13.2858 15.5557 14.1104 16.6698C15.3605 18.3796 16.7471 19.9876 18.2357 21.4762C19.9147 23.1552 21.7213 24.6894 23.6639 26.053C24.7862 26.8347 26.2874 26.7183 27.2496 25.7734L30.5271 22.444C31.0379 21.9331 31.8705 21.9314 32.3898 22.4507L38.2666 28.3444C38.7859 28.8637 38.7926 29.6878 38.2904 30.2073Z" fill="white"/>
</svg>
