<svg width="12" height="12" viewBox="0 0 12 12" fill="none" xmlns="http://www.w3.org/2000/svg">
<path d="M11.1756 11.7041C11.0374 11.7041 10.9053 11.6481 10.8038 11.5466L6.03065 6.7744L1.19627 11.5475C1.09477 11.6481 0.962649 11.7041 0.824399 11.7041C0.686149 11.7041 0.554023 11.6481 0.452523 11.5466C0.351898 11.446 0.295898 11.3139 0.295898 11.1756C0.295898 11.0374 0.351023 10.9053 0.452523 10.8046L5.22565 6.03152L0.452523 1.19627C0.351898 1.09477 0.295898 0.962649 0.295898 0.824399C0.295898 0.686149 0.351898 0.554023 0.452523 0.452523C0.554023 0.351898 0.686149 0.295898 0.824399 0.295898C0.962649 0.295898 1.09477 0.351898 1.19627 0.453398L5.9694 5.22652L10.8038 0.452523C10.9044 0.351898 11.0374 0.295898 11.1756 0.295898C11.3139 0.295898 11.446 0.351898 11.5475 0.453398C11.6481 0.554024 11.7041 0.686149 11.7041 0.824399C11.7041 0.962649 11.6481 1.09477 11.5475 1.19627L6.77352 5.9694L11.5475 10.8038C11.6481 10.9053 11.7041 11.0374 11.7041 11.1748C11.7041 11.313 11.649 11.4451 11.5475 11.5466C11.446 11.6481 11.3139 11.7041 11.1756 11.7041Z" fill="#009688"/>
</svg>
