<svg width="18" height="18" viewBox="0 0 18 18" fill="none" xmlns="http://www.w3.org/2000/svg">
<circle cx="9" cy="9" r="9" fill="#9EA6BD"/>
<path d="M13.7039 11.6248L13.2989 12.0298C12.7801 12.5575 12.0181 12.7675 11.2927 12.5894C10.5604 12.387 9.86475 12.0723 9.2278 11.6499C8.63755 11.2698 8.09094 10.8283 7.59461 10.3275C7.13842 9.87573 6.72819 9.37794 6.37066 8.84526C5.97749 8.27256 5.66557 7.64976 5.44388 6.99459C5.19035 6.22439 5.38874 5.38505 5.96023 4.82247L6.43093 4.35176C6.56228 4.22041 6.7742 4.22214 6.90992 4.35349L8.41882 5.86239C8.55235 5.99592 8.55632 6.21006 8.42496 6.34142L7.55361 7.21276C7.30181 7.46012 7.27416 7.8572 7.4862 8.14367C7.80765 8.58335 8.16421 8.99682 8.547 9.37961C8.97875 9.81136 9.4433 10.2059 9.94281 10.5565C10.2314 10.7575 10.6174 10.7276 10.8649 10.4846L11.7076 9.62847C11.839 9.49711 12.0531 9.49666 12.1866 9.63019L13.6978 11.1457C13.8313 11.2793 13.8331 11.4912 13.7039 11.6248Z" fill="white"/>
</svg>
