<svg width="13" height="13" viewBox="0 0 13 13" xmlns="http://www.w3.org/2000/svg">
<path d="M11.5833 9.08333C10.7833 9.08333 9.98333 8.95 9.18333 8.68333C8.98333 8.61667 8.71667 8.68333 8.51667 8.81667L7.05 10.2833C5.18333 9.28333 3.65 7.75 2.65 5.88333L4.11667 4.41667C4.31667 4.21667 4.38333 4.01667 4.25 3.75C4.05 3.01667 3.91667 2.21667 3.91667 1.41667C3.91667 1.01667 3.65 0.75 3.25 0.75H0.916667C0.516667 0.75 0.25 1.01667 0.25 1.41667C0.25 7.68333 5.31667 12.75 11.5833 12.75C11.9833 12.75 12.25 12.4833 12.25 12.0833V9.75C12.25 9.35 11.9833 9.08333 11.5833 9.08333Z"/>
</svg>
