<svg width="14" height="16" viewBox="0 0 14 16" fill="none" xmlns="http://www.w3.org/2000/svg">
<path d="M9.24443 2.73602V2.78502V2.73602H1.97843C1.19943 2.73602 0.56643 3.37002 0.56543 4.15002V14.586C0.56543 15.365 1.19943 15.999 1.97843 16H9.24443C10.0234 15.999 10.6564 15.365 10.6574 14.586V4.15002C10.6534 3.37102 10.0204 2.73702 9.24443 2.73602ZM9.43543 14.583C9.43543 14.69 9.34843 14.777 9.24143 14.778H1.97443C1.86743 14.778 1.78043 14.69 1.78043 14.583V4.15002C1.78043 4.04302 1.86743 3.95602 1.97443 3.95602H9.24043C9.34743 3.95602 9.43443 4.04302 9.43443 4.15002V14.583H9.43543Z" fill="#5D657B"/>
<path d="M12.0228 0V0.049V0H4.75675C3.97775 0.001 3.34475 0.635 3.34375 1.414C3.34475 1.75 3.61675 2.023 3.95275 2.024C4.28875 2.023 4.56175 1.75 4.56275 1.414C4.56275 1.307 4.64975 1.22 4.75675 1.219H12.0228C12.1288 1.219 12.2168 1.307 12.2178 1.414V11.85C12.2178 11.957 12.1298 12.044 12.0228 12.044C11.6868 12.045 11.4148 12.318 11.4137 12.654C11.4148 12.99 11.6868 13.263 12.0228 13.264C12.8018 13.263 13.4358 12.629 13.4358 11.85V1.414C13.4358 0.635 12.8028 0.001 12.0228 0Z" fill="#5D657B"/>
</svg>
