<svg width="24" height="24" viewBox="0 0 24 24" xmlns="http://www.w3.org/2000/svg">
<path d="M18.1111 16.1111C17.0444 16.1111 15.9778 15.9333 14.9111 15.5778C14.6444 15.4889 14.2889 15.5778 14.0222 15.7556L12.0667 17.7111C9.57778 16.3778 7.53333 14.3333 6.2 11.8444L8.15556 9.88889C8.42222 9.62222 8.51111 9.35556 8.33333 9C8.06667 8.02222 7.88889 6.95556 7.88889 5.88889C7.88889 5.35556 7.53333 5 7 5H3.88889C3.35556 5 3 5.35556 3 5.88889C3 14.2444 9.75556 21 18.1111 21C18.6444 21 19 20.6444 19 20.1111V17C19 16.4667 18.6444 16.1111 18.1111 16.1111Z" />
</svg>
