<svg width="20" height="14" viewBox="0 0 20 14" xmlns="http://www.w3.org/2000/svg">
<path d="M14.5 10.5C16.2 10.5 18.3 11.3 18.5 11.8V12.5H10.5V11.8C10.8 11.3 12.8 10.5 14.5 10.5ZM14.5 9C12.7 9 9 9.9 9 11.8V14H20V11.7C20 9.9 16.3 9 14.5 9ZM7 8C4.7 8 0 9.2 0 11.5V14H7V12.5H1.5V11.5C1.5 10.9 4.3 9.3 7.8 9.5C8.2 9 8.8 8.6 9.4 8.2C8.6 8.1 7.8 8 7 8ZM7 1.5C7.8 1.5 8.5 2.2 8.5 3C8.5 3.8 7.8 4.5 7 4.5C6.2 4.5 5.5 3.8 5.5 3C5.5 2.2 6.2 1.5 7 1.5ZM7 0C5.3 0 4 1.3 4 3C4 4.7 5.3 6 7 6C8.7 6 10 4.7 10 3C10 1.3 8.7 0 7 0ZM14.5 3.5C15.1 3.5 15.5 3.9 15.5 4.5C15.5 5.1 15.1 5.5 14.5 5.5C13.9 5.5 13.5 5.1 13.5 4.5C13.5 3.9 13.9 3.5 14.5 3.5ZM14.5 2C13.1 2 12 3.1 12 4.5C12 5.9 13.1 7 14.5 7C15.9 7 17 5.9 17 4.5C17 3.1 15.9 2 14.5 2Z"/>
</svg>
