<svg width="16" height="16" viewBox="0 0 16 16" fill="none" xmlns="http://www.w3.org/2000/svg">
<g clip-path="url(#clip0)">
<path d="M13.915 14.519C13.757 14.519 13.606 14.455 13.49 14.339L8.03496 8.88496L2.50996 14.34C2.39396 14.455 2.24296 14.519 2.08496 14.519C1.92696 14.519 1.77596 14.455 1.65996 14.339C1.54496 14.224 1.48096 14.073 1.48096 13.915C1.48096 13.757 1.54396 13.606 1.65996 13.491L7.11496 8.03596L1.65996 2.50996C1.54496 2.39396 1.48096 2.24296 1.48096 2.08496C1.48096 1.92696 1.54496 1.77596 1.65996 1.65996C1.77596 1.54496 1.92696 1.48096 2.08496 1.48096C2.24296 1.48096 2.39396 1.54496 2.50996 1.66096L7.96496 7.11596L13.49 1.65996C13.605 1.54496 13.757 1.48096 13.915 1.48096C14.073 1.48096 14.224 1.54496 14.34 1.66096C14.455 1.77596 14.519 1.92696 14.519 2.08496C14.519 2.24296 14.455 2.39396 14.34 2.50996L8.88396 7.96496L14.34 13.49C14.455 13.606 14.519 13.757 14.519 13.914C14.519 14.072 14.456 14.223 14.34 14.339C14.224 14.455 14.073 14.519 13.915 14.519Z" fill="#275DB8"/>
</g>
<defs>
<clipPath id="clip0">
<rect width="16" height="16" fill="white"/>
</clipPath>
</defs>
</svg>
