<svg width="14" height="14" viewBox="0 0 14 14" fill="none" xmlns="http://www.w3.org/2000/svg">
<path d="M2.05033 2.05025C-0.683783 4.78437 -0.683783 9.21563 2.05033 11.9497C4.78445 14.6839 9.21571 14.6839 11.9498 11.9497C14.6839 9.21563 14.6839 4.78437 11.9498 2.05025C9.21571 -0.683864 4.78445 -0.683864 2.05033 2.05025ZM11.1938 11.1937C10.0349 12.3525 8.5178 12.9317 7.00008 12.9323C5.48236 12.9317 3.96527 12.3525 2.80641 11.1937C0.48807 8.87534 0.48807 5.12466 2.80641 2.80633C5.12475 0.487989 8.87542 0.487989 11.1938 2.80633C12.3526 3.96519 12.9317 5.48228 12.9324 7C12.9317 8.51772 12.3526 10.0348 11.1938 11.1937Z" fill="#5D657B"/>
<path d="M8.61453 4.62907L6.99967 6.24393L5.38482 4.62907C5.17136 4.41685 4.8422 4.41561 4.62874 4.62907C4.41528 4.84253 4.41652 5.17169 4.62874 5.38514L6.2436 7L5.73687 7.50673L4.62874 8.61486C4.41652 8.82831 4.41528 9.15747 4.62874 9.37093C4.84282 9.58377 5.17136 9.58315 5.38543 9.37031L6.49294 8.2628L6.99967 7.75607L8.61453 9.37093C8.82798 9.58315 9.15652 9.58377 9.36998 9.37031C9.58282 9.15623 9.58282 8.82831 9.36998 8.61424L7.75513 6.99938L9.36998 5.38453C9.58282 5.17169 9.58406 4.84253 9.3706 4.62907C9.15714 4.41561 8.82798 4.41685 8.61453 4.62907Z" fill="#5D657B"/>
</svg>