<svg width="14" height="14" viewBox="0 0 14 14" xmlns="http://www.w3.org/2000/svg">
<path d="M12.915 13.519C12.757 13.519 12.606 13.455 12.49 13.339L7.03496 7.88496L1.50996 13.34C1.39396 13.455 1.24296 13.519 1.08496 13.519C0.926957 13.519 0.775957 13.455 0.659957 13.339C0.544957 13.224 0.480957 13.073 0.480957 12.915C0.480957 12.757 0.543957 12.606 0.659957 12.491L6.11496 7.03596L0.659957 1.50996C0.544957 1.39396 0.480957 1.24296 0.480957 1.08496C0.480957 0.926957 0.544957 0.775957 0.659957 0.659957C0.775957 0.544957 0.926957 0.480957 1.08496 0.480957C1.24296 0.480957 1.39396 0.544957 1.50996 0.660957L6.96496 6.11596L12.49 0.659957C12.605 0.544957 12.757 0.480957 12.915 0.480957C13.073 0.480957 13.224 0.544957 13.34 0.660957C13.455 0.775957 13.519 0.926957 13.519 1.08496C13.519 1.24296 13.455 1.39396 13.34 1.50996L7.88396 6.96496L13.34 12.49C13.455 12.606 13.519 12.757 13.519 12.914C13.519 13.072 13.456 13.223 13.34 13.339C13.224 13.455 13.073 13.519 12.915 13.519Z"/>
</svg>
