<svg width="16" height="16" viewBox="0 0 16 16" fill="none" xmlns="http://www.w3.org/2000/svg">
<g clip-path="url(#clip0)">
<path d="M11.9501 5.132L11.8591 5.086H11.2431C11.0591 5.086 10.9051 4.931 10.9051 4.748V2.348C10.9051 1.22 9.98711 0.302002 8.85911 0.302002H2.35411C1.22711 0.311002 0.309105 1.232 0.308105 2.356V8.868C0.308105 9.996 1.22611 10.914 2.35411 10.914H4.69111C4.87311 10.915 5.02711 11.069 5.02711 11.252L5.02111 11.863L5.05411 11.962L5.16611 12.084L5.25811 12.131H5.89011L5.96811 12.105L6.09111 11.992L6.13711 11.9V11.252C6.13711 11.07 6.29111 10.915 6.47411 10.914H8.87411C10.0021 10.914 10.9201 9.996 10.9211 8.868L10.9201 6.497C10.9201 6.329 11.0671 6.186 11.2421 6.186L11.8211 6.193L11.9201 6.16L12.0421 6.048L12.0891 5.956L12.0961 5.353L12.0631 5.255L11.9501 5.132ZM9.80411 8.86C9.80311 9.376 9.38211 9.797 8.86711 9.798H2.35411C1.83811 9.797 1.41811 9.376 1.41711 8.86V2.356C1.41811 1.84 1.83811 1.419 2.35411 1.418H8.86611C9.38211 1.419 9.80311 1.84 9.80411 2.356V8.86Z" fill="#5D657B"/>
<path d="M15.5431 13.4199L15.4501 13.3739L14.8381 13.3669L14.7401 13.3989L14.6181 13.5109L14.5721 13.6039V14.2509C14.5711 14.4349 14.4161 14.5889 14.2341 14.5889L13.6551 14.5819L13.5561 14.6149L13.4341 14.7269L13.3871 14.8189L13.3801 15.4289L13.4131 15.5279L13.5251 15.6499L13.6171 15.6969H14.2331C15.0251 15.6969 15.6711 15.0509 15.6711 14.2589L15.6781 13.6319L15.6451 13.5329L15.5431 13.4199Z" fill="#5D657B"/>
<path d="M13.5342 6.14808L13.6272 6.19408H14.2432C14.4262 6.19408 14.5802 6.34908 14.5812 6.53208L14.5742 7.14308L14.6062 7.24108L14.7192 7.36408L14.8112 7.41108H15.4422L15.5202 7.38508L15.6422 7.27308L15.6892 7.18108V6.52308C15.6792 5.73108 15.0312 5.08608 14.2432 5.08608L13.6632 5.08008L13.5652 5.11208L13.4432 5.22408L13.3962 5.31608L13.3892 5.92708L13.4222 6.02608L13.5342 6.14808Z" fill="#5D657B"/>
<path d="M7.16402 14.6259L7.07502 14.5819H6.46602C6.28402 14.5809 6.13002 14.4269 6.12902 14.2439L6.13502 13.6329L6.10202 13.5339L5.99002 13.4119L5.89802 13.3649L5.28702 13.3579L5.18902 13.3909L5.06602 13.5039L5.02002 13.5949V14.2429C5.02002 15.0349 5.66602 15.6809 6.45802 15.6809H7.05702L7.13602 15.6549L7.25802 15.5429L7.30502 15.4509L7.31202 14.8409L7.27602 14.7399L7.16402 14.6259Z" fill="#5D657B"/>
<path d="M8.31814 5.01212L8.22714 4.96612L7.61514 4.95912L7.51714 4.99212L7.39514 5.10412L7.34814 5.20012L7.17814 6.43412L5.21714 4.50312L5.10214 4.49512L4.98114 4.55912L4.54714 4.98412L4.50014 5.07712L4.49414 5.23912L4.52714 5.33812L6.33014 7.38212L5.19914 7.37512L5.10114 7.40812L4.97914 7.52112L4.93214 7.61212L4.92614 8.22312L4.95814 8.32112L5.07114 8.44312L5.16314 8.49012H8.21014L8.28914 8.46412L8.41114 8.35212L8.45814 8.26012L8.46414 5.23312L8.43114 5.13512L8.31814 5.01212Z" fill="#5D657B"/>
<path d="M11.6532 14.628L11.5602 14.582L9.17117 14.575L9.07417 14.607L8.95217 14.721L8.90517 14.813L8.89917 15.423L8.93117 15.521L9.04317 15.644L9.20417 15.69H11.5432L11.6222 15.664L11.7442 15.552L11.7912 15.46L11.7972 14.85L11.7642 14.75L11.6532 14.628Z" fill="#5D657B"/>
<path d="M15.6602 9.39812L15.5462 9.27612L15.4552 9.22912L14.8442 9.22412L14.7462 9.25612L14.6242 9.36812L14.5772 9.52812L14.5742 11.8581L14.6032 11.9461L14.7152 12.0681L14.8072 12.1151L15.4272 12.1191L15.5172 12.0891L15.6392 11.9781L15.6852 11.8851L15.6922 9.49612L15.6602 9.39812Z" fill="#5D657B"/>
</g>
<defs>
<clipPath id="clip0">
<rect width="16" height="16" fill="white"/>
</clipPath>
</defs>
</svg>
