<svg width="16" height="16" viewBox="0 0 16 16" fill="none" xmlns="http://www.w3.org/2000/svg">
<path d="M4.5721 10.137H10.4351C10.7641 10.137 11.0321 9.86901 11.0321 9.54101C11.0321 9.21301 10.7641 8.94501 10.4351 8.94501H4.5721C4.2431 8.94501 3.9751 9.21301 3.9751 9.54101C3.9751 9.86901 4.2431 10.137 4.5721 10.137Z" fill="#5D657B"/>
<path d="M4.5721 13.118H10.4351C10.7641 13.118 11.0321 12.85 11.0321 12.522C11.0321 12.194 10.7641 11.926 10.4351 11.926H4.5721C4.2431 11.926 3.9751 12.194 3.9751 12.522C3.9751 12.85 4.2431 13.118 4.5721 13.118Z" fill="#5D657B"/>
<path d="M13.962 0.994L10.965 0.945V0.596C10.964 0.268 10.696 0 10.368 0C10.039 0 9.771 0.268 9.771 0.596L9.722 0.993L5.168 0.944V0.596C5.168 0.268 4.9 0 4.572 0C4.243 0 3.975 0.268 3.975 0.596L3.925 0.994H1.043C0.467 0.994 0 1.462 0 2.038V14.957C0 15.532 0.467 16 1.043 16H13.962C14.538 16 15.006 15.532 15.006 14.957V2.038C15.006 1.462 14.538 0.994 13.962 0.994ZM13.764 14.807L1.192 14.758V7.155L13.813 7.204L13.764 14.807ZM13.764 5.963L1.192 5.913V2.187L3.974 2.236V3.677C3.974 4.006 4.242 4.273 4.571 4.273C4.899 4.273 5.167 4.005 5.167 3.677L5.216 2.186L9.771 2.235V3.676C9.771 4.005 10.039 4.272 10.368 4.272C10.696 4.272 10.964 4.004 10.965 3.676L11.014 2.185L13.813 2.234L13.764 5.963Z" fill="#5D657B"/>
</svg>
