<svg width="16" height="16" viewBox="0 0 16 16" xmlns="http://www.w3.org/2000/svg">
<path d="M7.9 12H7.8H7.7L7.6 11.9L4.2 8.4C4.1 8.3 4 8.2 4 8C4 7.8 4.1 7.7 4.2 7.6C4.3 7.5 4.5 7.4 4.6 7.4C4.8 7.4 4.9 7.5 5 7.6L7.3 9.9V0.6C7.4 0.3 7.7 0 8 0C8.3 0 8.6 0.3 8.6 0.6V9.9L10.9 7.6C11 7.5 11.2 7.4 11.3 7.4C11.5 7.4 11.6 7.5 11.7 7.6C11.9 7.8 11.9 8.2 11.7 8.5L8.3 11.9L8.2 12L8.1 12.1H8L7.9 12Z"/>
<path d="M0.6 16C0.3 16 0 15.7 0 15.4V12C0 11.7 0.3 11.4 0.6 11.4C0.9 11.4 1.2 11.7 1.2 12V14.7L14.7 14.8L14.8 12C14.8 11.7 15.1 11.4 15.4 11.4C15.7 11.4 16 11.7 16 12V15.4C16 15.7 15.7 16 15.4 16H0.6Z"/>
</svg>
