<svg width="18" height="18" viewBox="0 0 18 18" xmlns="http://www.w3.org/2000/svg">
<path d="M1.05734 17.5163C0.896094 17.4725 0.824844 17.43 0.742344 17.365L0.732344 17.3225L0.628594 17.25C0.563594 17.1688 0.521094 17.0975 0.496094 17.0275L0.467344 16.875L0.464844 16.6238L0.723594 15.6563L1.81609 11.7163L2.01609 11.3875L12.1473 1.26504C12.2786 1.13254 12.4186 1.02129 12.5648 0.922544C13.0236 0.613794 13.5561 0.451294 14.1061 0.451294L14.2748 0.468794C14.4123 0.476294 14.5148 0.482544 14.6173 0.501294C14.7748 0.531294 14.9298 0.578794 15.0811 0.635044C15.4173 0.762544 15.7136 0.947544 15.9786 1.19254L16.0361 1.24504H16.0473L16.7586 1.95504L16.7998 2.01254C17.0436 2.27754 17.2298 2.57379 17.3523 2.89379C17.4136 3.06129 17.4611 3.21504 17.4898 3.37254C17.5086 3.47129 17.5148 3.56879 17.5198 3.66504L17.5323 3.80004C17.5398 4.43379 17.3773 4.96754 17.0686 5.42629C16.9698 5.57254 16.8586 5.71254 16.7298 5.84254L6.56359 16.0063L6.25609 16.1788L1.60484 17.47L1.47609 17.505L1.21859 17.55L1.05734 17.5163ZM2.34109 15.6525L4.59234 15.0288L2.96484 13.4L2.34109 15.6525ZM3.69234 11.9238L6.06984 14.3013L14.0736 6.29754L11.6948 3.91879L3.69234 11.9238ZM14.1061 2.00879C13.9486 2.00879 13.7948 2.03879 13.6498 2.09754C13.5011 2.15754 13.3661 2.24629 13.2511 2.36254L12.7961 2.81629L15.1761 5.19629L15.6311 4.74004C15.7473 4.62504 15.8361 4.49004 15.8961 4.34129C15.9548 4.19754 15.9848 4.04379 15.9848 3.88504C15.9848 3.56254 15.8586 3.25879 15.6311 3.02879L15.0373 2.43754C14.7336 2.13504 14.4298 2.00879 14.1061 2.00879Z"/>
</svg>
