<svg width="14" height="14" viewBox="0 0 14 14" xmlns="http://www.w3.org/2000/svg">
<path d="M4.18047 1.0307C4.00547 1.1182 3.74297 1.2057 3.56797 1.2932C3.39297 1.3807 3.21797 1.5557 3.21797 1.8182C3.21797 1.9932 3.30547 2.0807 3.39297 2.1682L5.05547 3.8307L3.83047 5.0557L2.16797 3.3932C2.08047 3.3057 1.81797 3.2182 1.64297 3.2182C1.46797 3.2182 1.29297 3.3932 1.29297 3.5682C1.03047 4.1807 0.855469 4.7932 0.855469 5.4057C0.855469 7.1557 1.90547 8.8182 3.48047 9.5182C3.74297 9.5182 4.00547 9.6057 4.26797 9.6932C5.05547 9.8682 5.84297 9.8682 6.63047 9.6932L9.25547 12.4057C10.1305 13.2807 11.5305 13.2807 12.4055 12.4057C12.843 11.9682 13.018 11.4432 13.018 10.8307C13.018 10.2182 12.7555 9.6932 12.4055 9.2557L9.69297 6.5432C9.69297 6.3682 9.78047 6.1932 9.78047 6.0182V5.9307C9.78047 5.7557 9.78047 5.6682 9.78047 5.4932V5.3182C9.78047 4.8807 9.69297 4.5307 9.60547 4.1807C9.08047 1.7307 6.54297 0.330701 4.18047 1.0307ZM7.94297 7.7682C7.94297 7.9432 8.03047 8.0307 8.11797 8.1182C8.20547 8.2932 8.38047 8.3807 8.55547 8.3807C8.73047 8.3807 8.81797 8.2932 8.99297 8.2057C9.16797 8.0307 9.25547 7.8557 9.34297 7.6807L11.7055 10.0432C11.8805 10.2182 12.0555 10.5682 12.0555 10.8307C12.0555 11.0932 11.968 11.4432 11.7055 11.6182C11.268 12.0557 10.568 12.0557 10.1305 11.6182L7.15547 8.6432C6.98047 8.4682 6.80547 8.4682 6.54297 8.4682C5.93047 8.7307 5.23047 8.8182 4.53047 8.5557C3.04297 8.1182 1.99297 6.8057 1.99297 5.2307C1.99297 5.0557 1.99297 4.7932 2.08047 4.6182L3.39297 6.0182C3.48047 6.1057 3.65547 6.1932 3.83047 6.1932C4.00547 6.1932 4.18047 6.1057 4.26797 6.0182L6.10547 4.1807C6.19297 4.0932 6.28047 3.9182 6.28047 3.7432C6.28047 3.5682 6.28047 3.3932 6.10547 3.3057L4.79297 1.9932C5.14297 1.9057 5.40547 1.9057 5.75547 1.9932H5.93047C7.24297 2.1682 8.38047 3.1307 8.73047 4.4432C8.81797 4.7057 8.81797 5.0557 8.81797 5.3182V5.4932C8.81797 5.8432 8.73047 6.1057 8.64297 6.4557L8.55547 6.6307C8.46797 6.8932 8.29297 7.1557 8.03047 7.4182C8.03047 7.5057 7.94297 7.6807 7.94297 7.7682Z"/>
</svg>