<svg width="16" height="16" viewBox="0 0 16 16" fill="none" xmlns="http://www.w3.org/2000/svg">
<path d="M15.6 7.90005C15.6 7.60005 15.3 7.30005 15 7.30005C15 7.30005 14.9 7.30005 14.8 7.30005L14.6 7.40005L14.5 7.50005C14.1 7.90005 13.5 8.60005 12.7 9.20005C12.3 9.50005 12 9.80005 11.6 10C11.2 10.2 10.9 10.4 10.5 10.6C10.3 10.7 10.1 10.8 9.9 10.8C9.7 11 9.5 11 9.3 11.1H9.2C9 11.1 8.9 11.2 8.7 11.2H8.6C8.4 11.2 8.2 11.2 8 11.2C7.8 11.2 7.6 11.2 7.4 11.2H7.3C7.1 11.2 7 11.1 6.8 11.1H6.7C6.5 11.1 6.3 11 6.1 10.9C5.9 10.8 5.7 10.7 5.5 10.7C5.1 10.5 4.7 10.3 4.4 10.1C4 9.80005 3.6 9.50005 3.2 9.20005C2.5 8.60005 1.8 7.90005 1.5 7.50005L1.4 7.40005L1.2 7.30005C1.1 7.30005 1.1 7.30005 1 7.30005C0.7 7.30005 0.5 7.60005 0.5 7.90005C0.5 8.00005 0.5 8.10005 0.6 8.20005C0.7 8.30005 0.7 8.40005 0.8 8.50005C1 8.80005 1.4 9.20005 2 9.70005C1.6 10.1 1.2 10.5 1 10.7L0.9 10.8L0.8 11C0.8 11 0.8 11.1 0.8 11.2C0.8 11.5 1.1 11.8 1.4 11.8C1.6 11.8 1.7 11.7 1.8 11.6C1.8 11.6 1.9 11.6 1.9 11.5C2.2 11.2 2.6 10.9 2.9 10.5L2.8 10.4C2.8 10.4 2.8 10.4 2.9 10.4C2.9 10.4 3 10.4 3 10.5C3.5 10.9 4.1 11.3 4.8 11.6C5 11.7 5.2 11.8 5.4 11.9C5.2 12.3 5 12.6 4.8 12.9C4.8 12.9 4.7 13 4.7 13.1C4.7 13.2 4.7 13.3 4.7 13.3C4.7 13.3 4.7 13.4 4.7 13.5C4.8 13.8 5.1 14 5.4 13.9C5.6 13.9 5.7 13.8 5.7 13.6C5.7 13.6 5.7 13.5 5.8 13.5C6 13 6.2 12.7 6.4 12.3C6.6 12.3 6.7 12.4 6.9 12.4C7 12.4 7 12.4 7.1 12.4C7.4 12.4 7.7 12.5 8 12.5C8.3 12.5 8.6 12.5 8.9 12.4C9 12.4 9 12.4 9.1 12.4C9.3 12.4 9.5 12.3 9.6 12.3C9.8 12.7 10 13.1 10.2 13.4C10.2 13.4 10.2 13.5 10.3 13.5C10.4 13.6 10.5 13.7 10.6 13.8C10.9 13.9 11.2 13.7 11.3 13.4C11.3 13.4 11.3 13.3 11.3 13.2V13C11.3 13 11.2 12.9 11.2 12.8C11 12.6 10.8 12.2 10.6 11.8C11.2 11.5 11.8 11.2 12.3 10.9C12.5 10.7 12.8 10.6 13 10.4C13.4 10.8 13.7 11.2 14 11.4L14.1 11.5C14.2 11.6 14.3 11.7 14.5 11.7C14.8 11.7 15.1 11.4 15.1 11.1C15.1 11.1 15.1 11 15.1 10.9L15 10.7L14.9 10.6C14.6 10.4 14.3 10 13.9 9.60005C14.4 9.10005 14.8 8.70005 15.2 8.30005L15.3 8.20005C15.5 8.20005 15.6 8.00005 15.6 7.90005Z" fill="#5D657B"/>
</svg>
