<svg width="14" height="14" viewBox="0 0 14 14" fill="none" xmlns="http://www.w3.org/2000/svg">
<g clip-path="url(#clip0)">
<path d="M7.2625 4.8124H12.25L9.7125 2.2749C9.625 2.1874 9.5375 2.0124 9.5375 1.9249C9.5375 1.8374 9.625 1.6624 9.7125 1.5749C9.8 1.4874 9.975 1.3999 10.0625 1.3999C10.15 1.3999 10.325 1.4874 10.4125 1.5749L13.825 4.9874C13.9125 5.0749 14 5.1624 14 5.3374V5.5124L13.825 5.7749L10.5 9.0999C10.4125 9.1874 10.2375 9.2749 10.15 9.2749C9.975 9.2749 9.8875 9.1874 9.8 9.0999C9.7125 9.0124 9.625 8.8374 9.625 8.7499C9.625 8.6624 9.7125 8.4874 9.8 8.3999L12.25 5.8624H7.2625C3.85 5.8624 1.05 8.6624 1.05 12.0749C1.05 12.3374 0.7875 12.5999 0.525 12.5999C0.2625 12.5999 0 12.3374 0 12.0749C0 8.0499 3.2375 4.8124 7.2625 4.8124Z" fill="#5D657B"/>
</g>
<defs>
<clipPath id="clip0">
<rect width="14" height="14" fill="white"/>
</clipPath>
</defs>
</svg>
