<svg width="16" height="16" viewBox="0 0 16 16" fill="none" xmlns="http://www.w3.org/2000/svg">
<path d="M11.7 5C12.1 5 12.3 4.7 12.3 4.4V3.1H15.3C15.7 3.1 15.9 2.8 15.9 2.5C15.9 2.2 15.6 1.9 15.3 1.9H12.3V0.6C12.3 0.3 12 0 11.7 0C11.3 0 11 0.3 11 0.6V4.3C11 4.7 11.3 5 11.7 5Z" fill="#5D657B"/>
<path d="M4.3 5.5C4 5.5 3.7 5.8 3.7 6.2V7.4H0.7C0.3 7.4 0 7.7 0 8C0 8.4 0.3 8.6 0.6 8.6H3.6V9.8C3.6 10.2 3.9 10.4 4.2 10.4C4.5 10.4 5 10.2 5 9.8V6.2C5 5.8 4.7 5.5 4.3 5.5Z" fill="#5D657B"/>
<path d="M15.4004 12.9H8.60039V11.7C8.60039 11.3 8.40039 11 8.00039 11C7.60039 11 7.40039 11.3 7.40039 11.6V15.3C7.40039 15.7 7.60039 16 8.00039 16C8.40039 16 8.60039 15.7 8.60039 15.4V14.2H15.3004C15.7004 14.2 15.9004 13.9 15.9004 13.6C16.0004 13.2 15.7004 12.9 15.4004 12.9Z" fill="#5D657B"/>
<path d="M0.6 3.09999H8C8.4 3.09999 8.6 2.79999 8.6 2.49999C8.6 2.19999 8.4 1.79999 8 1.79999H0.6C0.3 1.79999 0 2.09999 0 2.49999C0 2.89999 0.3 3.09999 0.6 3.09999Z" fill="#5D657B"/>
<path d="M15.4004 7.40002H8.00039C7.60039 7.40002 7.40039 7.60002 7.40039 8.00002C7.40039 8.40002 7.60039 8.60002 8.00039 8.60002H15.4004C15.7004 8.60002 16.0004 8.40002 16.0004 8.00002C16.0004 7.60002 15.7004 7.40002 15.4004 7.40002Z" fill="#5D657B"/>
<path d="M4.3 12.9H0.6C0.2 12.9 0 13.2 0 13.5C0 13.9 0.3 14.1 0.6 14.1H4.3C4.7 14.1 4.9 13.8 4.9 13.5C5 13.2 4.7 12.9 4.3 12.9Z" fill="#5D657B"/>
</svg>
