<svg width="18" height="18" viewBox="0 0 18 18" xmlns="http://www.w3.org/2000/svg">
<path d="M13.5 9L18 4.5L13.5 0V2.7H9.9V6.3H13.5V9ZM15.3 13.05C14.175 13.05 13.095 12.87 12.087 12.537C11.772 12.438 11.421 12.51 11.169 12.753L9.189 14.733C6.642 13.437 4.554 11.358 3.258 8.802L5.238 6.813C5.49 6.579 5.562 6.228 5.463 5.913C5.13 4.905 4.95 3.825 4.95 2.7C4.95 2.205 4.545 1.8 4.05 1.8H0.9C0.405 1.8 0 2.205 0 2.7C0 11.151 6.849 18 15.3 18C15.795 18 16.2 17.595 16.2 17.1V13.95C16.2 13.455 15.795 13.05 15.3 13.05Z"/>
</svg>
