<svg width="16" height="20" viewBox="0 0 16 20" xmlns="http://www.w3.org/2000/svg">
<path d="M11.0975 3.25244H4.90254C4.51879 3.25244 4.29004 3.56619 4.29004 3.86869C4.29004 4.02119 4.34629 4.16244 4.47254 4.29869C4.95004 4.80869 6.53254 6.16244 7.23754 6.76119C7.45004 6.94369 7.72004 7.04369 8.00004 7.04369C8.27879 7.04369 8.54879 6.94244 8.76629 6.75619C8.99254 6.56619 10.9813 4.88244 11.5463 4.27744C11.6525 4.16244 11.7113 4.01994 11.7113 3.86619C11.71 3.56619 11.48 3.25244 11.0975 3.25244Z"/>
<path d="M13.9134 6.8L14.0009 6.70875C14.3021 6.3825 14.5534 6.0725 14.8046 5.72375C14.9346 5.53625 15.0521 5.345 15.1921 5.07C15.2721 4.9175 15.3446 4.76375 15.4359 4.49875L15.4734 4.36875C15.5059 4.26625 15.5371 4.165 15.5684 3.95625L15.5846 3.81125C15.5984 3.71875 15.6121 3.62625 15.6121 3.5325V2.32C15.6096 1.04125 14.5696 0 13.2909 0H2.70965C1.4309 0 0.389648 1.04125 0.389648 2.32V3.535L0.420899 3.7475C0.433399 3.9125 0.445898 4.07875 0.489648 4.25C0.523398 4.38125 0.575898 4.50875 0.628398 4.63625L0.697149 4.8125C0.717149 4.8675 0.737149 4.9225 0.765899 4.97875C0.860899 5.175 0.979648 5.3675 1.10465 5.55875L1.21465 5.73875C1.31465 5.8825 1.42715 6.02125 1.5784 6.20625C1.5784 6.20625 1.7659 6.45375 1.8334 6.54C2.5909 7.39625 3.54215 8.19125 4.3059 8.83L4.9584 9.38375C5.1434 9.545 5.2484 9.76875 5.2484 10C5.2484 10.23 5.14215 10.455 4.95965 10.615C4.77715 10.7737 4.5684 10.9487 4.3059 11.17C2.65465 12.5587 0.393398 14.4625 0.389648 16.465V17.68C0.389648 18.9587 1.4309 20 2.70965 20H13.2909C14.5696 20 15.6096 18.9587 15.6096 17.68V16.465L15.5784 16.2512C15.5659 16.0862 15.5534 15.9212 15.5084 15.75C15.4734 15.6162 15.4196 15.485 15.3659 15.3537L15.3059 15.1962C15.2846 15.1375 15.2646 15.08 15.2346 15.0187C15.1396 14.825 15.0221 14.635 14.8996 14.4462L14.7846 14.2575C14.6946 14.1287 14.5946 14.005 14.4321 13.8037C14.4321 13.8037 14.2359 13.5462 14.1671 13.4575C13.4046 12.5975 12.4559 11.805 11.6946 11.1675L11.0409 10.6137C10.8559 10.4537 10.7509 10.23 10.7509 10C10.7509 9.77 10.8571 9.545 11.0396 9.385L11.8996 8.65L11.9259 8.63L11.9796 8.5825C12.1809 8.4125 12.3871 8.235 12.6421 8.10375L12.5946 8.05L13.0571 7.64125C13.3534 7.37 13.6134 7.11375 13.9134 6.8ZM12.3321 6.26C11.7771 6.79375 11.1846 7.2925 10.6996 7.7C10.4684 7.895 10.2496 8.07875 10.0546 8.25C9.5409 8.69625 9.2459 9.33375 9.2459 10C9.2459 10.1612 9.26465 10.3262 9.29965 10.4912C9.37215 10.8137 9.50965 11.1137 9.70965 11.3812C9.8134 11.5187 9.9284 11.6412 10.0546 11.75L11.5121 12.9937C11.7121 13.17 11.9146 13.35 12.1171 13.5412C12.3884 13.7912 12.6509 14.0475 12.8946 14.3112C13.0334 14.4625 13.1609 14.615 13.2846 14.7662L13.3734 14.8725C13.4771 15.0037 13.5609 15.1337 13.6459 15.2625L13.7634 15.4387C13.8421 15.5737 13.8996 15.7037 13.9509 15.8337L14.0109 15.9687C14.0721 16.1462 14.1034 16.3125 14.1034 16.465V17.68C14.1021 18.1287 13.7371 18.4937 13.2884 18.495H2.70965C2.25965 18.4937 1.89465 18.1287 1.89465 17.68V16.4662C1.89215 16.1837 1.9984 15.8612 2.25215 15.405C2.9259 14.2875 4.41215 13.0425 5.29965 12.2987C5.53215 12.105 5.74965 11.9212 5.9459 11.75C6.45965 11.305 6.7534 10.6675 6.7534 10C6.7534 9.8325 6.73465 9.6675 6.69965 9.5075C6.6284 9.185 6.4909 8.88625 6.28965 8.6175C6.18965 8.48375 6.07465 8.36 5.9459 8.25L4.48965 7.0075C4.28965 6.83125 4.0884 6.65 3.8834 6.45875C3.6109 6.2075 3.3484 5.9525 3.1059 5.68875C2.9684 5.54125 2.84465 5.3925 2.72215 5.24375L2.62465 5.12625C2.5259 5.00125 2.4459 4.8775 2.34715 4.72875L2.2359 4.56125C2.15465 4.425 2.09715 4.2925 2.0434 4.16L1.98465 4.03C1.9234 3.845 1.89465 3.6825 1.8959 3.535V2.32C1.8959 1.87125 2.2609 1.505 2.7109 1.505H13.2921C13.7409 1.505 14.1059 1.87125 14.1071 2.32L14.1009 3.5625C14.0984 3.70125 14.0671 3.85625 13.9746 4.135C13.9071 4.30625 13.8084 4.4875 13.6884 4.68L13.6196 4.7875C13.4921 4.97875 13.3346 5.18125 13.1546 5.3925L13.0521 5.5125C12.8609 5.73125 12.6409 5.95875 12.3321 6.26Z"/>
</svg>
