<svg width="14" height="14" viewBox="0 0 14 14" fill="none" xmlns="http://www.w3.org/2000/svg">
<g clip-path="url(#clip0)">
<path d="M13.825 5.95L7.35 0.0875C7.2625 0.0875 7.0875 0 7 0C6.9125 0 6.7375 0.0875 6.65 0.0875L0.175 5.95C0.0875 6.0375 0 6.2125 0 6.3C0 6.3875 0 6.5625 0.0875 6.65C0.175 6.7375 0.35 6.825 0.4375 6.825C0.525 6.825 0.7 6.825 0.7875 6.7375L1.225 6.3875V13.5625C1.225 13.825 1.4875 14.0875 1.75 14.0875H5.3375H8.4875H12.075C12.3375 14.0875 12.6 13.825 12.6 13.5625V6.3L13.125 6.7375C13.2125 6.825 13.3875 6.825 13.475 6.825C13.65 6.825 13.7375 6.7375 13.825 6.65C14 6.5625 14 6.475 14 6.3C14 6.2125 13.9125 6.0375 13.825 5.95ZM8.05 12.95H5.95V11.8125V11.2V10.7625H6.65H7.2625H8.05V11.2V11.8125V12.95ZM11.6375 12.95H9.1V11.8125V11.2V10.2375C9.1 9.975 8.8375 9.7125 8.575 9.7125H7.2625H6.65H5.425C5.1625 9.7125 4.9 9.975 4.9 10.2375V11.2V11.8125V12.95H2.3625V5.425L7 1.225L11.6375 5.425V12.95Z" fill="#5D657B"/>
</g>
<defs>
<clipPath id="clip0">
<rect width="14" height="14" fill="white"/>
</clipPath>
</defs>
</svg>
