<svg width="20" height="20" viewBox="0 0 20 20" xmlns="http://www.w3.org/2000/svg">
<path d="M10 5.99994C10.5 5.99994 11 5.62494 11 4.99994C11 4.49994 10.625 3.99994 10 3.99994C9.5 3.99994 9 4.49994 9 4.99994C9 5.49994 9.5 5.99994 10 5.99994Z"/>
<path d="M11.875 14.4999H10.75V8.12494C10.75 7.74994 10.375 7.37494 10 7.37494H8.5C8.125 7.37494 7.75 7.74994 7.75 8.12494C7.75 8.49994 8.125 8.87494 8.5 8.87494H9.25V14.3749H8.125C7.75 14.3749 7.375 14.7499 7.375 15.1249C7.375 15.4999 7.75 15.8749 8.125 15.8749H11.875C12.25 15.8749 12.625 15.4999 12.625 15.1249C12.625 14.7499 12.25 14.4999 11.875 14.4999Z"/>
<path d="M10 0C4.5 0 0 4.5 0 10C0 15.5 4.5 20 10 20C15.5 20 20 15.5 20 10C20 4.5 15.5 0 10 0ZM10 18.5C7.625 18.5 5.5 17.5 4 16C2.5 14.5 1.5 12.375 1.5 10C1.5 5.375 5.25 1.5 10 1.5C14.75 1.5 18.5 5.25 18.5 10C18.5 12.375 17.5 14.5 16 16C14.5 17.5 12.375 18.5 10 18.5Z"/>
</svg>
