<svg width="16" height="16" viewBox="0 0 16 16" fill="none" xmlns="http://www.w3.org/2000/svg">
<path d="M15.387 0H9.17203C8.83303 0 8.55503 0.278 8.55503 0.617V3.108H0.621028C0.282028 3.108 0.00402832 3.386 0.00402832 3.725V15.376C0.00502832 15.722 0.281028 16 0.621028 16H3.51403H6.74003H12.271C12.61 16 12.888 15.722 12.888 15.383V7.457H15.379C15.718 7.457 15.996 7.179 15.996 6.84V0.618V0.603C15.996 0.269 15.721 0 15.387 0ZM11.655 14.758H6.74803H3.52203H1.24603V4.349H8.54803V6.579L4.94803 10.179L5.04503 9.157L5.04803 9.095C5.04803 8.781 4.80703 8.513 4.48903 8.48L4.42603 8.477C4.11203 8.477 3.84403 8.718 3.81103 9.036L3.54903 11.778V11.779L3.54703 11.837C3.54803 12.206 3.84303 12.458 4.16703 12.459L4.22703 12.456L6.96903 12.194C7.28703 12.161 7.52803 11.893 7.52803 11.579L7.52503 11.516C7.49203 11.198 7.22403 10.957 6.91003 10.957L6.84603 10.96L5.82403 11.057L9.42403 7.457H11.654V14.758H11.655ZM14.762 6.215C14.271 6.215 10.28 6.215 9.78903 6.215C9.78903 5.724 9.78903 1.733 9.78903 1.242H14.762V6.215Z" fill="#5D657B"/>
</svg>
