<svg width="16" height="16" viewBox="0 0 16 16" fill="none" xmlns="http://www.w3.org/2000/svg">
<path d="M13.1 6H12.4V4.6C12.3 2.1 10.4 0 7.99999 0C5.59999 0 3.69999 2.1 3.69999 4.6V6H2.89999C2.29999 6 1.89999 6.4 1.89999 7V15C1.89999 15.6 2.29999 16 2.89999 16H13.1C13.7 16 14.1 15.6 14.1 15V7C14.1 6.4 13.6 6 13.1 6ZM4.89999 4.6C4.89999 2.8 6.29999 1.2 7.99999 1.2C9.69999 1.2 11.1 2.8 11.1 4.6V6H4.89999V4.6ZM12.9 14.8H3.09999V7.2H12.8V14.8H12.9Z" fill="#5D657B"/>
<path d="M7.99999 12.9C8.29999 12.9 8.59999 12.6 8.59999 12.3V10.9C8.59999 10.6 8.29999 10.3 7.99999 10.3C7.69999 10.3 7.39999 10.6 7.39999 10.9V12.3C7.39999 12.6 7.69999 12.9 7.99999 12.9Z" fill="#5D657B"/>
</svg>
