<svg width="130" height="38" viewBox="0 0 130 38" fill="none" xmlns="http://www.w3.org/2000/svg">
<g clip-path="url(#clip0)">
<path d="M63.7007 8.79672H62.4189V14.2696H59.3369V8.79672H58.0698V15.3102H63.5752L63.6952 17.1916H63.8189H64.4663H64.5975V14.2696H63.7007" fill="#F89825"/>
<path d="M67.5052 13.1661C67.3878 13.3068 67.2777 13.4748 67.1734 13.6555C67.1843 13.4542 67.1935 13.2621 67.1935 13.092V8.79672H66.006V15.3094L66.1334 15.3121L67.0439 15.3327L70.4027 10.9572L70.4018 10.9579C70.5347 10.7886 70.6383 10.6251 70.7283 10.465C70.7264 10.4916 70.7264 10.5168 70.7227 10.5472C70.7098 10.752 70.7035 10.9068 70.7035 11.0158V15.3111H71.8908V8.79861L70.8656 8.77522" fill="#F89825"/>
<path d="M78.3022 8.65794V6.0146H77.0872V8.65863C75.8539 8.71985 74.9408 8.99809 74.3813 9.52312C73.8137 10.061 73.5404 10.9211 73.5404 12.0602C73.5404 13.1914 73.8137 14.0478 74.3813 14.5847C74.9406 15.1097 75.8539 15.3883 77.0872 15.4499V17.9358H77.2183H78.3022V15.4492C79.5355 15.3885 80.4489 15.1099 81.0082 14.5849C81.5758 14.0469 81.8482 13.1916 81.8482 12.0603C81.8482 10.9211 81.5758 10.0612 81.0092 9.52329C80.4489 8.9981 79.5355 8.71985 78.3022 8.65794ZM75.3203 13.7953C74.9848 13.4775 74.7948 12.8987 74.7959 12.0602C74.795 11.2136 74.9848 10.6273 75.3203 10.3061C75.6431 9.99225 76.2539 9.79259 77.1277 9.74152V14.3536C76.2537 14.3025 75.6421 14.1051 75.3203 13.7953ZM78.2619 9.74169C79.1266 9.79276 79.7317 9.99397 80.0545 10.3126C80.3928 10.6394 80.5817 11.2229 80.5808 12.0603C80.5817 12.8989 80.3919 13.4777 80.0563 13.7955C79.7334 14.1052 79.1264 14.3027 78.2619 14.353V9.74169Z" fill="#F89825"/>
<path d="M87.2983 8.64056C86.8132 8.63953 86.3191 8.74855 85.8274 8.9599C85.3855 9.14959 84.9957 9.40978 84.6565 9.72775L84.5703 8.79722H83.4975V17.9363H83.6286H84.7795V16.0203C84.7851 15.8584 84.7877 15.7018 84.7877 15.5522C84.7877 15.3044 84.7786 15.0789 84.762 14.8684C85.469 15.2612 86.2484 15.4672 87.0837 15.4672C87.9429 15.4691 88.6095 15.2113 89.0194 14.686C89.433 14.1553 89.6236 13.2839 89.6245 12.0863C89.6236 10.9573 89.4476 10.0935 89.0761 9.51175C88.7094 8.93308 88.0905 8.6366 87.2983 8.64056ZM84.7996 10.6878C85.6625 10.0643 86.3895 9.75801 86.936 9.75973C87.4403 9.76369 87.7677 9.92895 87.973 10.2583C88.1739 10.5812 88.2902 11.2051 88.2902 12.0865C88.292 13.0099 88.1674 13.6094 87.9564 13.8968C87.7464 14.1871 87.3697 14.347 86.7883 14.3477C86.3381 14.3487 85.656 14.2225 84.7793 13.9747L84.7996 10.6878Z" fill="#F89825"/>
<path d="M94.136 8.64056C93.0165 8.64056 92.1876 8.89129 91.6959 9.42354C91.2082 9.95768 90.9807 10.8456 90.9789 12.0607C90.9807 13.276 91.2082 14.1635 91.6959 14.6977C92.1874 15.2304 93.0145 15.4806 94.136 15.4806C95.2491 15.4806 96.0743 15.2292 96.564 14.6977C97.0518 14.1635 97.2782 13.275 97.2802 12.0607C97.2784 10.8457 97.0518 9.95785 96.564 9.42354C96.0743 8.89181 95.2491 8.64056 94.136 8.64056ZM95.5471 13.9075C95.3069 14.2127 94.8447 14.3871 94.136 14.3871C93.419 14.3871 92.9522 14.2125 92.7129 13.9075C92.4707 13.6069 92.3268 12.9776 92.3287 12.0605C92.327 11.1422 92.4709 10.5142 92.7129 10.2134C92.9522 9.90832 93.419 9.73377 94.136 9.73377C94.8449 9.73377 95.3069 9.90815 95.5471 10.2134C95.7883 10.514 95.9341 11.1422 95.9323 12.0605C95.9341 12.9778 95.7883 13.6069 95.5471 13.9075Z" fill="#F89825"/>
<path d="M103.404 11.9584C103.706 11.8906 103.952 11.7725 104.125 11.59C104.368 11.3331 104.481 10.9625 104.481 10.5064C104.483 9.84574 104.279 9.35115 103.847 9.09492C103.416 8.84367 102.689 8.73344 101.658 8.73172C100.573 8.73172 99.6972 8.75683 99.0507 8.80618L98.9296 8.81598V15.3187L99.0516 15.3267C99.7888 15.3769 100.786 15.4019 102.02 15.4019C102.981 15.4012 103.668 15.2899 104.088 15.0387C104.509 14.7835 104.71 14.3021 104.708 13.6667C104.708 13.1326 104.583 12.704 104.313 12.4081C104.106 12.1814 103.798 12.0356 103.404 11.9584ZM102.942 11.2965C102.75 11.4156 102.368 11.4887 101.792 11.488H100.157V9.75906C100.343 9.75562 100.545 9.75373 100.772 9.75373C101.028 9.75373 101.309 9.75562 101.616 9.7601H101.618C102.265 9.75803 102.697 9.82716 102.913 9.94066C103.125 10.0526 103.236 10.2476 103.239 10.5974C103.238 10.9671 103.129 11.1818 102.942 11.2965ZM100.157 12.4373H101.792C102.431 12.4356 102.856 12.5205 103.074 12.66C103.292 12.7981 103.411 13.0385 103.413 13.4325C103.411 13.8289 103.296 14.0578 103.096 14.1759C102.892 14.2992 102.48 14.3756 101.86 14.3737C101.609 14.3737 101.285 14.372 100.884 14.3675C100.612 14.3647 100.321 14.363 100.158 14.3622V12.4373H100.157Z" fill="#F89825"/>
<path d="M109.072 11.265H107.611V8.79723H106.343V15.302L106.464 15.3118C107.15 15.3635 108.084 15.3893 109.246 15.3893C110.109 15.3876 110.741 15.2526 111.129 14.9475C111.52 14.6361 111.694 14.082 111.694 13.3276C111.694 12.5805 111.514 12.0277 111.116 11.7133C110.713 11.4019 110.032 11.2677 109.072 11.265ZM107.611 12.2413H109.072C109.613 12.2395 109.957 12.3283 110.119 12.465C110.282 12.5969 110.385 12.8653 110.385 13.2885C110.386 13.7573 110.28 14.0268 110.116 14.1486C109.947 14.2793 109.605 14.3625 109.071 14.3615L107.611 14.3489V12.2413Z" fill="#F89825"/>
<path d="M114.037 8.79707H112.728V15.3106H114.037V8.79707Z" fill="#F89825"/>
<path d="M121.236 12.1933C121.513 11.8686 121.638 11.3988 121.638 10.7947V10.7929C121.629 10.0903 121.392 9.53207 120.925 9.17231C120.452 8.80911 119.719 8.64075 118.749 8.63989C117.689 8.63989 116.891 8.88598 116.403 9.4024C115.913 9.92553 115.686 10.8107 115.686 12.034C115.686 13.249 115.918 14.1393 116.415 14.6784C116.914 15.2132 117.747 15.4666 118.869 15.4674C119.958 15.4667 120.802 15.3555 121.39 15.1248L121.486 15.087L121.358 14.2076L121.229 14.2246C120.485 14.324 119.742 14.3739 119.016 14.3739C118.326 14.3749 117.841 14.2414 117.568 14.0131C117.31 13.8021 117.126 13.3493 117.058 12.6719H120.006C120.535 12.6739 120.958 12.5185 121.236 12.1933ZM119.712 11.6576H117.039C117.055 10.9147 117.199 10.4021 117.428 10.1517C117.666 9.88736 118.12 9.73258 118.802 9.73362C119.386 9.73258 119.793 9.82768 120 9.98074C120.211 10.1334 120.328 10.3921 120.329 10.7921L120.331 10.8567C120.331 11.178 120.256 11.3907 120.137 11.508C120.041 11.6036 119.907 11.6564 119.712 11.6576Z" fill="#F89825"/>
<path d="M64.0885 24.4703H58.0689V25.5379H60.4383V30.9838H61.7331V25.5379H64.0885V24.4703Z" fill="#2B78E2"/>
<path d="M66.2746 27.3307C66.2912 26.588 66.4352 26.0752 66.6651 25.8256C66.9016 25.5606 67.3566 25.4069 68.0378 25.4069H68.0437C68.6255 25.4069 69.0306 25.5023 69.2365 25.654C69.4472 25.8067 69.5637 26.0655 69.5654 26.4657L69.5663 26.5329C69.5663 26.8523 69.4911 27.0652 69.3736 27.1823C69.2765 27.2781 69.1434 27.3302 68.9482 27.3307H66.2746ZM68.0673 24.3137H67.9053C66.8849 24.3259 66.1146 24.5723 65.6385 25.0767C65.1488 25.5993 64.9233 26.485 64.9213 27.7073C64.9233 28.9235 65.1543 29.8138 65.6514 30.3517C66.1502 30.8875 66.9837 31.1407 68.105 31.1407C69.1943 31.1407 70.0381 31.0297 70.6268 30.7979L70.7221 30.7606L70.5947 29.881L70.4664 29.898C69.7237 29.9974 68.9792 30.0473 68.2528 30.0473H68.2454C67.5587 30.0473 67.0754 29.915 66.8049 29.6877C66.5462 29.4763 66.3629 29.0229 66.2951 28.3465H69.243H69.2461C69.7737 28.3465 70.1952 28.1916 70.4724 27.8669C70.7494 27.5419 70.8742 27.0731 70.8742 26.4679V26.4662C70.867 25.7641 70.6294 25.2053 70.1626 24.8468C69.7011 24.4936 68.9965 24.3238 68.0673 24.3137Z" fill="#2B78E2"/>
<path d="M76.8452 24.4451L75.1167 27.0901L74.9095 27.0759L73.2774 24.4703H71.8304L73.8871 27.6287L71.6571 30.9811L71.8919 30.9868L73.0702 31.0098L74.9719 28.117L75.1407 28.1292L76.946 30.9845H78.4086L76.1758 27.6287L78.2444 24.4728L76.8452 24.4451Z" fill="#2B78E2"/>
<path d="M85.3948 24.4703H84.1137V27.0306H80.8449V24.4703H79.5628V30.9849H80.8449V28.0325H84.1137V30.9849H84.245H85.3948V24.4703Z" fill="#2B78E2"/>
<path d="M90.2015 30.0607C89.4845 30.0607 89.0168 29.8862 88.7784 29.5813C88.5361 29.2805 88.3914 28.6514 88.3932 27.7341C88.3914 26.8162 88.5361 26.188 88.7784 25.8872C89.0166 25.5821 89.4845 25.4074 90.2015 25.4074C90.9102 25.4074 91.3724 25.5819 91.6117 25.8872C91.8528 26.1881 91.9985 26.8162 91.9968 27.7341C91.9985 28.6512 91.8528 29.2805 91.6117 29.5813C91.3724 29.8862 90.9102 30.0607 90.2015 30.0607ZM90.2015 24.314C89.0809 24.314 88.252 24.5647 87.7606 25.097C87.2728 25.6311 87.0464 26.5197 87.0444 27.7341C87.0462 28.9484 87.2728 29.8371 87.7606 30.3715C88.2452 30.8963 89.0577 31.1472 90.1543 31.1543H90.2484C91.337 31.1474 92.146 30.8953 92.6294 30.3715C93.1173 29.8363 93.3439 28.9484 93.3448 27.7341C93.3439 26.5199 93.1173 25.6322 92.6294 25.097C92.139 24.5646 91.3138 24.314 90.2015 24.314Z" fill="#2B78E2"/>
<path d="M100.425 24.4703H97.5762C97.0389 24.4703 96.6098 24.5926 96.3184 24.8569C96.0294 25.1197 95.8607 25.5188 95.7994 26.0261L95.7985 26.0282C95.6308 27.6225 95.4327 28.7027 95.2283 29.2074C95.1328 29.4437 95.008 29.6225 94.8614 29.746C94.7285 29.8595 94.4973 29.9634 94.1773 30.0387L94.0626 30.0665L94.0783 30.18L94.202 31.0507L94.3194 31.049C94.8346 31.0382 95.2722 30.9138 95.6214 30.6676C95.9709 30.4217 96.2257 30.0585 96.3917 29.5893L96.3925 29.5876V29.5859C96.6035 29.0284 96.8118 27.9092 97.0262 26.2273C97.0703 25.9322 97.1527 25.746 97.2509 25.6519C97.3434 25.5599 97.5194 25.498 97.791 25.498H99.1306V30.9842H100.425V24.4703" fill="#2B78E2"/>
<path d="M105.245 30.0607C104.528 30.0607 104.06 29.8862 103.822 29.5813C103.58 29.2805 103.435 28.6514 103.436 27.7341C103.435 26.8162 103.579 26.188 103.822 25.8872C104.06 25.5821 104.528 25.4074 105.245 25.4074C105.953 25.4074 106.416 25.5819 106.656 25.8872C106.896 26.1881 107.042 26.8162 107.04 27.7341C107.042 28.6512 106.896 29.2805 106.656 29.5813C106.416 29.8862 105.953 30.0607 105.245 30.0607ZM105.245 24.314C104.124 24.314 103.295 24.5647 102.805 25.097C102.316 25.6311 102.09 26.5197 102.088 27.7341C102.09 28.9484 102.316 29.8371 102.805 30.3715C103.288 30.8963 104.101 31.1472 105.197 31.1543H105.292C106.381 31.1474 107.19 30.8953 107.673 30.3715C108.161 29.8363 108.387 28.9484 108.388 27.7341C108.387 26.5199 108.161 25.6322 107.673 25.097C107.183 24.5646 106.358 24.314 105.245 24.314Z" fill="#2B78E2"/>
<path d="M111.536 24.4444C111.048 24.4444 110.66 24.5579 110.396 24.8112C110.131 25.0645 110.011 25.4375 110.012 25.9056V30.9838H110.142H111.293V26.1929C111.293 25.929 111.357 25.7531 111.458 25.6516C111.558 25.5503 111.734 25.4862 112.005 25.485H114.983L115.031 24.5551L114.907 24.5445C114.184 24.4776 113.053 24.4444 111.536 24.4444Z" fill="#2B78E2"/>
<path d="M121.081 24.4485L117.721 28.8397C117.603 28.9809 117.493 29.15 117.389 29.3297C117.402 29.1305 117.41 28.9389 117.41 28.7663V24.4698H116.222V30.9828L116.349 30.9852L117.259 31.006L120.619 26.6301V26.6309C120.75 26.4622 120.855 26.298 120.945 26.1381C120.944 26.1649 120.942 26.1898 120.94 26.2201C120.925 26.4254 120.919 26.5802 120.919 26.6891V30.9845H122.107V24.4717L121.081 24.4485Z" fill="#2B78E2"/>
<path d="M128.938 24.4483L125.578 28.8401C125.459 28.9806 125.35 29.1491 125.244 29.3297C125.257 29.1291 125.265 28.9374 125.265 28.7658V24.4705H124.078V30.9824L124.205 30.9852L125.115 31.0065L128.476 26.6309L128.475 26.6316C128.607 26.4624 128.711 26.2989 128.801 26.1388C128.799 26.1656 128.798 26.1905 128.796 26.2208C128.782 26.4251 128.775 26.5807 128.775 26.6891V30.9843H129.963V24.4726L128.938 24.4483Z" fill="#2B78E2"/>
<path d="M36.4704 23.6985L36.5235 23.5821L36.4704 23.6985ZM36.2519 23.5259C35.9943 23.5259 35.7487 23.6717 35.6377 23.9159C33.6121 28.3768 29.5602 31.7711 24.6262 32.9824C24.3208 33.0578 24.1182 33.3245 24.1182 33.6177C24.1182 33.6688 24.1247 33.7238 24.1393 33.7788V33.78V33.7804C24.2174 34.0758 24.4896 34.2736 24.7894 34.2736H24.7987L24.9381 34.2566L24.9455 34.2557L24.9538 34.254C30.2957 32.9393 34.6734 29.2733 36.8657 24.4463C36.9043 24.3604 36.9224 24.27 36.9224 24.1813C36.9224 23.93 36.773 23.6901 36.5237 23.5818C36.4356 23.5438 36.3429 23.5259 36.2519 23.5259Z" fill="#2B78E2"/>
<path d="M20.5953 0.0608673C13.2516 0.0617272 6.94661 4.4036 4.23256 10.6022C4.19591 10.6855 4.17758 10.7732 4.17758 10.8588C4.17758 11.1133 4.33071 11.3549 4.58569 11.4621C4.67186 11.4977 4.76173 11.515 4.84966 11.515C5.11011 11.515 5.35769 11.3654 5.46694 11.1168C7.97835 5.3871 13.8056 1.3711 20.5955 1.3711C27.3627 1.3711 33.1742 5.36113 35.6994 11.0612C35.8093 11.3083 36.0562 11.4569 36.3165 11.4569C36.4055 11.4569 36.4953 11.4387 36.5813 11.4031C36.8354 11.296 36.9866 11.0543 36.9866 10.8009C36.9866 10.714 36.9693 10.6253 36.9325 10.542C34.2037 4.37557 27.9153 0.0617272 20.5953 0.0608673Z" fill="#2B78E2"/>
<path d="M20.4989 35.799C20.1844 35.7981 19.9067 35.6765 19.6994 35.475C19.494 35.2729 19.3694 35.0028 19.3683 34.6955C19.3692 34.3885 19.4938 34.1176 19.7003 33.9152C19.9067 33.714 20.1844 33.5923 20.4989 33.5923C20.8135 33.5923 21.0914 33.714 21.2984 33.9152C21.5039 34.1175 21.6286 34.3885 21.6293 34.6955C21.6286 35.0017 21.5048 35.2729 21.2984 35.475C21.0914 35.6764 20.8135 35.798 20.4989 35.799ZM20.4989 32.2822C19.1326 32.2822 18.0259 33.3622 18.0259 34.6953C18.0259 36.0155 19.1123 37.0879 20.4609 37.1087H20.5366C21.8854 37.0879 22.9717 36.0155 22.9717 34.6953C22.9721 33.3623 21.8653 32.2822 20.4989 32.2822Z" fill="#2B78E2"/>
<path d="M3.78586 21.2552C2.39376 20.9536 1.34493 19.7472 1.34493 18.2994V16.8927C1.34493 15.4439 2.39376 14.2378 3.78586 13.9362V21.2552ZM4.45688 12.5446C2.00609 12.5458 0.00253296 14.5008 0.00253296 16.8927V18.2994C0.00253296 20.6913 2.00609 22.6468 4.45688 22.6468C4.82746 22.6468 5.12808 22.3532 5.12808 21.9916V13.1997C5.12826 12.839 4.82746 12.5458 4.45688 12.5446Z" fill="#2B78E2"/>
<path d="M37.3799 21.2549V13.9367C38.7718 14.2382 39.8207 15.4445 39.8207 16.8925V18.299C39.8208 19.7467 38.7718 20.9532 37.3799 21.2549ZM36.7087 12.5453C36.3381 12.5453 36.0375 12.8387 36.0375 13.2V21.9911C36.0375 22.3525 36.3383 22.6463 36.7087 22.6463C39.1597 22.6463 41.1631 20.6908 41.1631 18.2989V16.8923C41.1632 14.5002 39.1597 12.5453 36.7087 12.5453Z" fill="#2B78E2"/>
<path d="M33.2262 17.4863C33.1832 10.7059 27.5403 5.2215 20.5833 5.2215C18.7008 5.2215 16.9156 5.627 15.3108 6.34703L15.241 6.33654L15.1649 6.32571L15.1475 6.42322C10.8855 8.40722 7.93658 12.6469 7.93658 17.5623C7.93658 24.3783 13.5987 29.9032 20.5821 29.9032C27.5399 29.9032 33.1828 24.4194 33.2258 17.6392H33.2278V17.5622V17.486L33.2262 17.4863ZM31.5326 14.8968L31.5335 14.9009C31.7507 15.7539 31.8672 16.6442 31.8672 17.5625C31.8663 20.6057 30.6055 23.3549 28.5616 25.3494C26.5177 27.3441 23.7009 28.5744 20.5823 28.5756C17.4638 28.5746 14.6479 27.3441 12.6031 25.3494C10.5592 23.3549 9.29837 20.6057 9.29749 17.5625C9.29837 16.7457 9.39194 15.9506 9.56427 15.1849L9.56516 15.1797V15.1787C9.62384 14.8788 9.64304 14.7976 9.66507 14.7261C9.68798 14.6516 9.72551 14.5575 9.81168 14.2678C10.3618 12.5522 11.331 11.0177 12.6029 9.77575C13.3897 9.00774 14.2919 8.35546 15.2812 7.84024C15.7644 7.60636 15.9149 7.51522 16.2595 7.38831H16.2615L16.2652 7.38642C17.5958 6.8485 19.0518 6.55065 20.5831 6.54961C23.7007 6.55065 26.5175 7.78177 28.5614 9.77575C29.7681 10.9534 30.6987 12.3957 31.2617 14.0055C31.3562 14.2838 31.3928 14.3635 31.4149 14.4279C31.4364 14.4886 31.4582 14.5728 31.5326 14.8968Z" fill="#F89825"/>
</g>
<defs>
<clipPath id="clip0">
<rect width="130" height="37.1429" fill="white"/>
</clipPath>
</defs>
</svg>
