<svg width="19" height="18" viewBox="0 0 19 18" fill="none" xmlns="http://www.w3.org/2000/svg">
<path d="M8.961 16.32H2.284C1.907 16.319 1.602 16.014 1.601 15.637V2.284C1.602 1.907 1.907 1.602 2.284 1.601H8.961C9.404 1.6 9.761 1.243 9.762 0.8C9.761 0.358 9.404 0.001 8.961 0H2.284C1.025 0 0 1.025 0 2.284V15.637C0 16.896 1.025 17.921 2.284 17.921H8.961C9.404 17.92 9.761 17.563 9.762 17.121C9.761 16.678 9.404 16.321 8.961 16.32Z" fill="black"/>
<path d="M17.8799 9.53L17.8809 9.529L17.8799 9.53Z" fill="black"/>
<path d="M17.88 8.392L17.878 8.39L17.88 8.392L13.369 3.941C13.214 3.787 13.011 3.711 12.808 3.711C12.601 3.711 12.394 3.791 12.237 3.95C12.083 4.105 12.006 4.309 12.006 4.511C12.006 4.718 12.086 4.925 12.245 5.081L15.367 8.161H10.234H6.87205C6.43005 8.162 6.07104 8.519 6.07104 8.961C6.07104 9.403 6.43005 9.76 6.87205 9.761H10.234H15.367L12.245 12.842C12.086 12.998 12.006 13.205 12.006 13.412C12.006 13.615 12.083 13.818 12.236 13.974C12.393 14.133 12.599 14.213 12.806 14.213C13.009 14.213 13.213 14.136 13.368 13.983L17.879 9.532C18.03 9.382 18.117 9.177 18.117 8.963C18.118 8.746 18.032 8.542 17.88 8.392Z" fill="black"/>
</svg>
