<svg width="16" height="16" viewBox="0 0 16 16" fill="none" xmlns="http://www.w3.org/2000/svg">
<g clip-path="url(#clip0)">
<path d="M13.5 10.6C12.3 9.6 10.4 9 8.00001 9C5.60001 9 3.70001 9.6 2.50001 10.7C1.20001 11.8 0.600006 13.4 0.600006 15.5C0.600006 15.8 0.900006 16.1 1.20001 16.1H14.9C15.2 16.1 15.5 15.8 15.5 15.5C15.5 13.3 14.8 11.7 13.5 10.6ZM8.00001 10.2C11.9 10.2 14 11.7 14.2 14.8H1.80001C2.00001 11.7 4.10001 10.2 8.00001 10.2Z" fill="#5D657B"/>
<path d="M8.00001 8.2C10.1 8.2 11.9 6.3 11.9 4C11.9 2.9 11.5 1.9 10.8 1.2C10.1 0.4 9.10001 0 8.00001 0C6.90001 0 5.90001 0.4 5.20001 1.1C4.50001 1.8 4.10001 2.8 4.10001 4C4.10001 6.3 5.90001 8.2 8.00001 8.2ZM8.00001 1.2C9.50001 1.2 10.7 2.4 10.7 3.9C10.7 5.6 9.50001 6.9 8.00001 6.9C6.50001 7 5.30001 5.6 5.30001 4C5.30001 2.4 6.50001 1.2 8.00001 1.2Z" fill="#5D657B"/>
</g>
<defs>
<clipPath id="clip0">
<rect width="16" height="16" fill="white"/>
</clipPath>
</defs>
</svg>
