<svg width="296" height="177" viewBox="0 0 296 177" fill="none" xmlns="http://www.w3.org/2000/svg">
<path d="M295.2 176.8H0.8C0.3 176.8 0 176.633 0 176.3C0 175.967 0.3 175.8 0.8 175.8H295.2C295.7 175.8 296 175.967 296 176.3C296 176.467 295.7 176.8 295.2 176.8Z" fill="#0C3341" fill-opacity="0.2"/>
<path d="M219.9 170.7H76.9V82.8001C76.9 79.5001 79.6 76.7001 83 76.7001H213.8C217.1 76.7001 219.9 79.4001 219.9 82.8001V170.7Z" fill="#ECF1F7"/>
<path d="M220.2 171.1H76.6V82.8C76.6 79.3 79.4 76.3 83.1 76.3H213.9C217.4 76.3 220.4 79.1 220.4 82.8V171.1H220.2ZM77.3 170.4H219.6V82.8C219.6 79.6 217 77 213.8 77H82.9C79.7 77 77.1 79.6 77.1 82.8V170.4H77.3Z" fill="#0C3341"/>
<path d="M211.8 85.8H85.5V170.3H211.8V85.8Z" fill="white"/>
<path d="M211.8 85.8H85.5V93.8H211.8V85.8Z" fill="#D0DEF6"/>
<path d="M91.4 91.2C90.6 91.2 90 90.5 90 89.8C90 89 90.7 88.4 91.4 88.4C92.2 88.4 92.8 89.1 92.8 89.8C93 90.5 92.3 91.2 91.4 91.2ZM91.4 88.9C90.9 88.9 90.6 89.3 90.6 89.7C90.6 90.2 91 90.5 91.4 90.5C91.9 90.5 92.2 90.1 92.2 89.7C92.3 89.3 91.9 88.9 91.4 88.9Z" fill="white"/>
<path d="M96.6 91.2C95.8 91.2 95.2 90.5 95.2 89.8C95.2 89 95.9 88.4 96.6 88.4C97.4 88.4 98 89.1 98 89.8C98 90.5 97.3 91.2 96.6 91.2ZM96.6 88.9C96.1 88.9 95.8 89.3 95.8 89.7C95.8 90.2 96.2 90.5 96.6 90.5C97.1 90.5 97.4 90.1 97.4 89.7C97.3 89.3 97 88.9 96.6 88.9Z" fill="white"/>
<path d="M101.2 91.2C100.4 91.2 99.8 90.5 99.8 89.8C99.8 89 100.5 88.4 101.2 88.4C102 88.4 102.6 89.1 102.6 89.8C102.7 90.5 102 91.2 101.2 91.2ZM101.2 88.9C100.7 88.9 100.4 89.3 100.4 89.7C100.4 90.2 100.8 90.5 101.2 90.5C101.7 90.5 102 90.1 102 89.7C102 89.3 101.7 88.9 101.2 88.9Z" fill="white"/>
<path d="M234.2 176.7H62.8C62 176.7 61.4 176.403 61.4 176.047V172.542C61.4 171.472 63.3 170.7 65.6 170.7H231.4C233.8 170.7 235.6 171.532 235.6 172.542V176.047C235.6 176.403 234.9 176.7 234.2 176.7Z" fill="#0C3341"/>
<path d="M156.7 164L212.3 164.1C213.1 164.1 213.8 162.6 213.8 160.6L213.9 101.6C213.9 99.6 213.2 98.1 212.4 98.1L156.8 98C156 98 155.3 99.5 155.3 101.5L155.2 160.5C155.2 162.4 155.9 164 156.7 164Z" fill="#E5E8EA"/>
<path d="M208.6 152.4H160.6V153.7H208.6V152.4Z" fill="white"/>
<path d="M183.9 145.3H160.6V146.6H183.9V145.3Z" fill="white"/>
<path d="M208.6 136.9H160.6V138.2H208.6V136.9Z" fill="white"/>
<path d="M183.9 129.8H160.6V131.1H183.9V129.8Z" fill="white"/>
<path d="M208.6 121.5H160.6V122.8H208.6V121.5Z" fill="white"/>
<path d="M183.9 114.4H160.6V115.7H183.9V114.4Z" fill="white"/>
<path d="M208.5 102.2H185.2V103.5H208.5V102.2Z" fill="white"/>
<path d="M151.5 163.8L96 163.9C95.2 163.9 94.5 162.4 94.5 160.4L94.4 101.4C94.4 99.4 95.1 97.9 95.9 97.9L151.5 97.8C152.3 97.8 153 99.3 153 101.3L153.1 160.3C153.1 162.3 152.4 163.8 151.5 163.8Z" fill="#E5E8EA"/>
<path d="M147.7 152.1H99.7V153.4H147.7V152.1Z" fill="white"/>
<path d="M147.6 145.2H124.3V146.5H147.6V145.2Z" fill="white"/>
<path d="M147.7 136.8H99.7V138.1H147.7V136.8Z" fill="white"/>
<path d="M147.6 129.7H124.3V131H147.6V129.7Z" fill="white"/>
<path d="M147.7 121.4H99.7V122.7H147.7V121.4Z" fill="white"/>
<path d="M147.6 114.3H124.3V115.6H147.6V114.3Z" fill="white"/>
<path d="M122.9 101.9H99.6V103.2H122.9V101.9Z" fill="white"/>
<path d="M211.4 39.3H191C190.6 39.3 190.4 39.7 190.4 40V56.9C190.4 57.6 190.9 58.2 191.6 58.2H199.5C199.6 58.2 199.7 58.2 199.7 58.3L206.2 66.1C206.4 66.3 206.8 66.2 206.8 65.9V58.7C206.8 58.5 206.9 58.3 207.2 58.3H211.6C212.2 58.3 212.7 57.7 212.7 57V40.6C212.5 39.9 212 39.3 211.4 39.3Z" fill="#FFB300"/>
<path d="M198.8 45.5C198.2 45.5 197.7 44.9 198 44.3C198.6 42.6 200.4 41.5 202.4 41.9C203.2 42.1 203.9 42.6 204.4 43.3C205.5 45 205.1 47 203.8 48L202.3 49.5V50.1C202.3 50.6 201.9 50.9 201.5 50.9H201C200.6 50.9 200.4 50.7 200.4 50.3V49.4C200.4 48.9 200.6 48.6 201 48.2L202.7 46.8C203.2 46.3 203.4 45.7 203.3 45C203.2 44.4 202.7 43.8 202.1 43.7C201.2 43.3 200.2 43.9 199.9 44.8C199.6 45.2 199.3 45.5 198.8 45.5Z" fill="white"/>
<path d="M201.3 52.8C201.8 52.8 202.2 53.3 202.1 53.7C202.1 54.2 201.6 54.6 201.2 54.5C200.7 54.5 200.3 54 200.4 53.6C200.3 53.1 200.8 52.8 201.3 52.8Z" fill="white"/>
<path d="M64.8 63.6H85.2C85.6 63.6 85.8 64 85.8 64.3V81.2C85.8 81.9 85.3 82.5 84.6 82.5H76.7C76.6 82.5 76.5 82.5 76.5 82.6L70 90.4C69.8 90.6 69.4 90.5 69.4 90.2V83C69.4 82.8 69.3 82.6 69 82.6H64.6C64 82.6 63.5 82 63.5 81.3V64.9C63.8 64.2 64.3 63.6 64.8 63.6Z" fill="#3174E6"/>
<path d="M76.5 75.8C76.7 75.8 77 76 77 76.3V77.2C77 77.4 76.8 77.7 76.5 77.7H73C72.8 77.7 72.5 77.5 72.5 77.2V76.3C72.5 76.1 72.7 75.8 73 75.8C73.2 75.8 73.5 75.6 73.5 75.3V72.4C73.5 72.2 73.3 71.9 73 71.9C72.8 71.9 72.5 71.7 72.5 71.4V70.5C72.5 70.3 72.7 70 73 70H75.6C75.8 70 76.1 70.2 76.1 70.5V75.3C76 75.6 76.3 75.8 76.5 75.8Z" fill="white"/>
<path d="M74.8 66.9C75.4 66.9 75.9 67.4 75.9 68C75.9 68.6 75.4 69.1 74.8 69.1C74.2 69.1 73.7 68.6 73.7 68C73.7 67.4 74.2 66.9 74.8 66.9Z" fill="white"/>
<path d="M190.3 129.9V126.8C190.3 125.9 191.2 125.1 192.4 125.1H237.8C239 125.1 239.9 125.8 239.9 126.8V156.9C239.9 157.8 239 158.6 237.8 158.6H192.4C191.2 158.6 190.3 157.9 190.3 156.9V152" fill="#D0DEF6"/>
<path d="M190.3 131.5V126.8C190.3 125.9 191.2 125.1 192.4 125.1H237.8C239 125.1 239.9 125.8 239.9 126.8V131.3" fill="#ACC8EF"/>
<path d="M190.6 131.5H189.9V126.8C189.9 125.7 191 124.8 192.4 124.8H237.8C239.1 124.8 240.3 125.6 240.3 126.8V131.3H239.6V126.8C239.6 126.1 238.8 125.5 237.8 125.5H192.4C191.5 125.5 190.6 126.1 190.6 126.8V131.5Z" fill="#3174E6"/>
<path d="M240.2 131H190.3V131.5H240.2V131Z" fill="#3174E6"/>
<path d="M232.3 140H200.5C200.4 140 200.3 139.9 200.3 139.8C200.3 139.7 200.4 139.6 200.5 139.6H232.3C232.4 139.6 232.5 139.7 232.5 139.8C232.5 139.9 232.5 140 232.3 140Z" fill="#0C3341"/>
<path d="M216.3 147.8H200.4C200.3 147.8 200.2 147.7 200.2 147.6C200.2 147.5 200.3 147.4 200.4 147.4H216.3C216.4 147.4 216.5 147.5 216.5 147.6C216.6 147.6 216.5 147.8 216.3 147.8Z" fill="#0C3341"/>
<path d="M232.4 143.9H200.5C200.4 143.9 200.3 143.8 200.3 143.7C200.3 143.6 200.4 143.5 200.5 143.5H232.4C232.5 143.5 232.6 143.6 232.6 143.7C232.6 143.8 232.6 143.9 232.4 143.9Z" fill="#0C3341"/>
<path d="M103.9 44V41.4C103.9 40.6 104.7 40 105.7 40H145.2C146.3 40 147 40.6 147 41.4V67.6C147 68.4 146.2 69 145.2 69H105.8C104.7 69 104 68.4 104 67.6V63.4" fill="#D0DEF6"/>
<path d="M103.9 45.5V41.4C103.9 40.6 104.7 40 105.7 40H145.2C146.3 40 147 40.6 147 41.4V45.3" fill="#ACC8EF"/>
<path d="M104.3 45.5H103.6V41.4C103.6 40.5 104.5 39.6 105.7 39.6H145.2C146.4 39.6 147.3 40.4 147.3 41.4V45.3H146.6V41.4C146.6 40.8 145.9 40.3 145.2 40.3H105.8C105 40.3 104.4 40.8 104.4 41.4V45.5H104.3Z" fill="#3174E6"/>
<path d="M147.3 45H103.9V45.5H147.3V45Z" fill="#3174E6"/>
<path d="M139.8 52.8H112.1C112 52.8 111.9 52.7 111.9 52.6C111.9 52.5 112 52.4 112.1 52.4H139.8C139.9 52.4 140 52.5 140 52.6C140 52.7 139.9 52.8 139.8 52.8Z" fill="#0C3341"/>
<path d="M126 59.5H112.1C112 59.5 111.9 59.4 111.9 59.3C111.9 59.2 112 59.1 112.1 59.1H125.9C126 59.1 126.1 59.2 126.1 59.3C126.2 59.4 126.1 59.5 126 59.5Z" fill="#0C3341"/>
<path d="M122.4 56.2H112C111.9 56.2 111.8 56.1 111.8 56C111.8 55.9 111.9 55.8 112 55.8H122.4C122.5 55.8 122.6 55.9 122.6 56C122.7 56.1 122.5 56.2 122.4 56.2Z" fill="#0C3341"/>
<path d="M139.8 56.2H129.4C129.3 56.2 129.2 56.1 129.2 56C129.2 55.9 129.3 55.8 129.4 55.8H139.8C139.9 55.8 140 55.9 140 56C140 56.1 139.9 56.2 139.8 56.2Z" fill="#0C3341"/>
<path d="M260.6 69H158.6C156.4 69 154.6 70.8 154.6 73V113.8C154.6 116 156.4 117.8 158.6 117.8H169.1L170.5 129.4L182.1 117.8H260.8C263 117.8 264.8 116 264.8 113.8V73.1C264.7 70.9 262.9 69 260.6 69Z" fill="url(#paint0_linear)"/>
<path d="M231.7 115.2C219.9 115.2 210.2 105.7 210.2 93.7C210.2 81.7 219.9 72.4 231.7 72.4C243.5 72.4 253.2 81.9 253.2 93.9C253.2 105.9 243.6 115.2 231.7 115.2ZM231.7 73C220.3 73 211 82.3 211 93.7C211 105.1 220.3 114.4 231.7 114.4C243.1 114.4 252.4 105.1 252.4 93.7C252.4 82.3 243.1 73 231.7 73Z" fill="#ECF1F7"/>
<path d="M202.6 83.8H166.5C166.3 83.8 166.1 83.7 166.1 83.4C166.1 83.2 166.2 83 166.5 83H202.6C202.8 83 203 83.1 203 83.4C203 83.7 202.8 83.8 202.6 83.8Z" fill="white"/>
<path d="M202.6 99.8H166.5C166.3 99.8 166.1 99.7 166.1 99.4C166.1 99.2 166.2 99 166.5 99H202.6C202.8 99 203 99.1 203 99.4C202.9 99.7 202.8 99.8 202.6 99.8Z" fill="white"/>
<path d="M202.6 92H184.6C184.4 92 184.2 91.9 184.2 91.6C184.2 91.3 184.3 91.2 184.6 91.2H202.6C202.8 91.2 203 91.3 203 91.6C202.9 91.8 202.8 92 202.6 92Z" fill="white"/>
<path d="M202.6 106.4H184.6C184.4 106.4 184.2 106.3 184.2 106C184.2 105.8 184.3 105.6 184.6 105.6H202.6C202.8 105.6 203 105.7 203 106C202.9 106.2 202.8 106.4 202.6 106.4Z" fill="white"/>
<path d="M179.1 92H167C166.8 92 166.6 91.9 166.6 91.6C166.6 91.3 166.7 91.2 167 91.2H179.1C179.3 91.2 179.5 91.3 179.5 91.6C179.5 91.8 179.4 92 179.1 92Z" fill="white"/>
<path d="M244.6 110.8C245.3 105.4 244.1 99.5 244.6 100.4C244.7 100.5 244.8 100.9 245.1 101.1C244.7 99.2 244.4 97.7 244.3 97.1L244.9 85.9C244.9 85.9 245.5 86.1 246.3 86.5C242.5 84.6 233.3 84.1 229.6 84C223 83.8 218 86.6 216.5 88.2C215 89.8 217.1 95.6 217.8 97.6C218.9 100.2 219.5 106.1 220.7 109.6C220.8 110.1 220.9 111 221.1 112.2C224.3 114.1 227.9 115.1 231.8 115.1C236.6 115.2 241.1 113.6 244.6 110.8Z" fill="url(#paint1_linear)"/>
<path d="M244.6 100.4C244.1 99.5 245.3 105.4 244.6 110.8C245.3 110.3 245.9 109.7 246.6 109.1C246.1 106.4 245.5 103.4 245.1 101.2C244.9 100.9 244.8 100.6 244.6 100.4Z" fill="url(#paint2_linear)"/>
<path d="M244.6 100.4C244.1 99.5 245.3 105.4 244.6 110.8C245.3 110.3 245.9 109.7 246.6 109.1C246.1 106.4 245.5 103.4 245.1 101.2C244.9 100.9 244.8 100.6 244.6 100.4Z" fill="url(#paint3_linear)"/>
<path d="M246.3 86.6C247 87 247.6 87.3 247.8 87.8C248.4 89.1 249.1 100.8 248.5 107.1C251.2 103.7 252.9 99.4 253.1 94.7C252.4 92.6 251.4 90.7 250.4 89.4C249.2 88 247.5 87.1 246.3 86.6Z" fill="url(#paint4_linear)"/>
<path d="M247.7 87.8C247.5 87.3 247 87 246.2 86.6C245.4 86.2 244.8 86 244.8 86L244.2 97.2C244.4 97.8 244.7 99.3 245 101.2C246.1 102.9 248.2 106.2 248.2 106.2L248.3 106.8C248.3 106.9 248.3 107 248.3 107.2C249 100.9 248.3 89.1 247.7 87.8Z" fill="url(#paint5_linear)"/>
<path d="M247.7 87.8C247.5 87.3 247 87 246.2 86.6C245.4 86.2 244.8 86 244.8 86L244.2 97.2C244.4 97.8 244.7 99.3 245 101.2C246.1 102.9 248.2 106.2 248.2 106.2L248.3 106.8C248.3 106.9 248.3 107 248.3 107.2C249 100.9 248.3 89.1 247.7 87.8Z" fill="url(#paint6_linear)"/>
<path d="M248.4 107.1C248.4 107 248.4 106.9 248.4 106.7L248.3 106.1C248.3 106.1 246.1 102.8 245.1 101.1C245.6 103.5 246.2 106.3 246.6 109C247.4 108.5 247.9 107.8 248.4 107.1Z" fill="url(#paint7_linear)"/>
<path d="M248.4 107.1C248.4 107 248.4 106.9 248.4 106.7L248.3 106.1C248.3 106.1 246.1 102.8 245.1 101.1C245.6 103.5 246.2 106.3 246.6 109C247.4 108.5 247.9 107.8 248.4 107.1Z" fill="url(#paint8_linear)"/>
<path d="M248.4 107.1C248.4 107 248.4 106.9 248.4 106.7L248.3 106.1C248.3 106.1 246.1 102.8 245.1 101.1C245.6 103.5 246.2 106.3 246.6 109C247.4 108.5 247.9 107.8 248.4 107.1Z" fill="url(#paint9_linear)"/>
<path d="M231.7 115.2C219.9 115.2 210.2 105.7 210.2 93.7C210.2 81.7 219.9 72.4 231.7 72.4C243.5 72.4 253.2 81.9 253.2 93.9C253.2 105.9 243.6 115.2 231.7 115.2ZM231.7 73C220.3 73 211 82.3 211 93.7C211 105.1 220.3 114.4 231.7 114.4C243.1 114.4 252.4 105.1 252.4 93.7C252.4 82.3 243.1 73 231.7 73Z" fill="#ECF1F7"/>
<path d="M214.5 75.4C214.7 75.2 215 74.9 215.2 74.6C217 72.5 217.3 70.5 219 68C219.2 67.6 219.6 66.7 220.2 65.8C220.9 64.9 222.4 63.9 222.9 63.7C223.7 63.3 223 65 223 65C223 65 223.7 64.1 224.3 64.2C224.5 64.2 224.5 65.6 224.7 65.9C224.7 67.8 224.2 69.7 223.3 71.4C223.1 71.8 222.8 72.2 222.8 72.7C223.4 72.7 223.9 72.3 224.3 72C224.7 71.7 225.4 71.4 226 71.5C225.9 71.7 225.8 72 225.6 72.2C224.9 73.5 224.1 74.8 222.7 75.4C221.9 75.8 220.9 75.9 220.1 76.2C218.7 76.9 218 78.6 216.4 79.3L214.5 75.4Z" fill="#F2A181"/>
<path d="M223 75.9L218.6 74.2C218.2 74.1 218 73.6 218.1 73.3L222 64.7C222.1 64.3 222.6 64.1 223.1 64.3L227.5 66C227.9 66.1 228.1 66.6 228 66.9L224.1 75.5C223.9 75.9 223.4 76.1 223 75.9Z" fill="#0C3341"/>
<path d="M223.7 75.5L218.8 73.6L222.8 64.7L227.7 66.6L223.7 75.5Z" fill="#D0DEF6"/>
<path d="M227.9 83.9C227.9 83.9 224 84.5 220.7 85.4C215.7 86.8 214 88.9 212.3 89.9C215.6 85.9 219.4 77.4 219.4 77.4C219.4 77.4 214.9 74 214.4 74.8C213.9 75.6 195.1 96.4 195.7 99.8C195.9 101.2 198.2 102.5 200.1 102.5C205.4 102.4 208.1 100.3 214.6 98.3C217.4 97.5 218.4 99.4 218.4 99.4L227.9 83.9Z" fill="url(#paint10_linear)"/>
<path d="M219.7 68C219.9 68.1 219.9 68.5 220.1 68.7C220.2 69.6 220.5 70.7 220 71.6C219.8 72.2 219.3 72.7 218.7 73.1C218.1 73.6 217.4 74 216.8 74.4L219.7 68Z" fill="#F2A181"/>
<path d="M227.8 60.5C226.5 60.9 225.9 62.4 225.4 63.4C224.9 64.7 224.6 66 224.5 67.3C224.4 68.2 224.3 69.2 224.7 70C224.9 70.5 225.2 70.8 225.5 71.2C225.6 71.4 225.9 71.7 226.1 71.8C226.3 71.9 226.7 72 226.9 71.9C227.3 71.8 227.5 71.3 227.6 71C228.3 68.5 229.1 66 230.7 63.8L227.8 60.5Z" fill="#0C3341"/>
<path d="M226.4 68.4C226.4 67.6 225.5 67.1 224.7 67.9C224.1 68.6 223.9 69.9 223.9 70.8C223.9 72 224.8 72.2 225.6 72.3L226.4 68.4Z" fill="#F2A181"/>
<path d="M227.4 78.7C227.4 78.7 227.4 83.5 227.2 83.8C227 84 226 84.5 226 84.5C226 84.5 226.7 88.7 227.9 88.4C229.1 88 236.5 84.5 236.5 84.5C236.5 84.5 235.4 84.1 235.4 83.7C235.4 83.3 236.3 75.7 236.3 75.7L227.4 78.7Z" fill="#FFBE9D"/>
<path d="M232.6 61C231.5 61.2 228.7 60.8 227.9 61.8C227.1 62.9 226.4 65.6 226.1 66.4C225.5 67.9 225.2 69.5 224.7 71C224.1 73 223.2 76.7 225.3 78.3C225.9 78.8 226.1 78.9 226.8 79C227.7 79.1 228.8 79.4 229.7 79.5C231.2 79.7 232.9 80.1 234.4 79.6C236.4 79 237.5 76.4 238.1 74.6L241 64.5L232.6 61Z" fill="#FFBE9D"/>
<path d="M235.5 82.6C235.5 82.6 236.7 83.3 237.6 84.6C236.7 86.6 234.5 90.1 232.2 91.8C231.1 89.1 228.5 87.4 228.5 87.4C228.5 87.4 234.7 86.4 235.5 82.6Z" fill="white"/>
<path d="M228.4 87.4C228.4 87.4 226.2 88.2 224.7 90.6C224.7 90.6 224.2 87.4 225.2 84.6C225.2 84.6 226.7 82.8 227.2 82.7C227.1 85.1 228.4 87.4 228.4 87.4Z" fill="white"/>
<path d="M239.2 72.9C238.5 72.5 238 72.1 237.5 72.8C237.3 73.2 237.1 73.6 236.7 73.7C236.3 73.8 235.9 73.5 235.8 73.1C235.7 72.7 235.8 72.3 235.9 71.9C236.1 71.1 236.5 70.2 236.7 69.4C236.9 68.6 237.3 67.7 236.9 66.9C236.8 66.5 236.4 66.2 236.1 65.8C234.9 64.9 233.5 64.5 232.1 64.1C230.7 63.9 229.2 63.6 227.7 63.3C227.1 63.2 226.5 62.9 226 62.5C225.2 61.9 224.8 61 224.8 60C224.8 59.1 225.2 58.1 225.6 57.3C225.7 57.7 225.8 57.9 226.1 58.2C226.3 57.7 226.6 57.4 226.9 57C227.4 59.2 237.3 58.5 239.6 59.5C241.3 60.2 242.5 60.7 242.5 63C242.5 63.1 242.7 63.2 242.9 63.4C244.3 64.6 244.9 66.1 245.1 68.4C245.3 71.1 243.7 74.1 242 76.3C241.5 76.9 241.4 77.2 240.8 77.7C240.2 78.2 239.1 78.3 238.4 78.2C237.7 78.1 236.3 78.1 236.3 77.5C236.3 77 237.4 76.1 237.7 75.7L239.2 72.9Z" fill="#0C3341"/>
<path d="M236.6 75.5C236.6 75.5 236.5 76 236.8 76.3C237 76.7 237.6 76.5 238 76.4C239.1 76 239.8 75.1 240 74.2C240.2 73 239.5 71.8 238.5 72.2C237.8 72.4 237.4 73.1 237.4 73.7L236.6 75.5Z" fill="#FFBE9D"/>
<path d="M227.4 79.2L230.6 79.8C230.6 79.8 229.5 81 227.4 81V79.2Z" fill="#F2A181"/>
<path d="M130.3 105.9H35.2C33 105.9 31.2 107.7 31.2 109.9V147.6C31.2 149.8 33 151.6 35.2 151.6H103.6L115.4 163.4V151.6H130.4C132.6 151.6 134.4 149.8 134.4 147.6V109.9C134.4 107.8 132.6 105.9 130.3 105.9Z" fill="#3174E6"/>
<path d="M124.1 118.1H87.8C87.6 118.1 87.4 118 87.4 117.7C87.4 117.5 87.5 117.3 87.8 117.3H124.1C124.3 117.3 124.5 117.4 124.5 117.7C124.3 117.8 124.2 118.1 124.1 118.1Z" fill="white"/>
<path d="M124.1 134.2H87.8C87.6 134.2 87.4 134.1 87.4 133.8C87.4 133.6 87.5 133.4 87.8 133.4H124.1C124.3 133.4 124.5 133.5 124.5 133.8C124.4 134.1 124.2 134.2 124.1 134.2Z" fill="white"/>
<path d="M105.9 126.3H87.8C87.6 126.3 87.4 126.2 87.4 125.9C87.4 125.7 87.5 125.5 87.8 125.5H106C106.2 125.5 106.4 125.6 106.4 125.9C106.3 126.1 106 126.3 105.9 126.3Z" fill="white"/>
<path d="M105.9 140.7H87.8C87.6 140.7 87.4 140.6 87.4 140.3C87.4 140.1 87.5 139.9 87.8 139.9H106C106.2 139.9 106.4 140 106.4 140.3C106.3 140.6 106 140.7 105.9 140.7Z" fill="white"/>
<path d="M123.6 126.3H111.2C111 126.3 110.8 126.2 110.8 125.9C110.8 125.7 110.9 125.5 111.2 125.5H123.5C123.7 125.5 123.9 125.6 123.9 125.9C124 126.1 123.7 126.3 123.6 126.3Z" fill="white"/>
<path d="M67 144.8L66.9 144.1V144.5C67 144.6 67 144.7 67 144.8Z" fill="#9EA6BD"/>
<path d="M53.6 145.8C53.6 145.8 55.1 143 55.7 140.1C55.9 143.3 54 146.9 54 146.9L53.6 145.8L54.5 149.3C55.8 149.5 57.1 149.7 58.4 149.7C61.3 149.7 64.2 149.1 66.7 148C63.8 144.5 59.5 139.6 59.5 139.6L61.2 136.5L57 132.5L59.5 127.1L58.6 125H60.3C58.1 124.8 56.4 124.8 56.4 124.8L51.2 130.5C51.2 130.5 48.5 133.1 48 134.4C47.6 135.7 47.5 136.2 47.5 136.2L44.6 144.6C46.7 146.5 49.2 147.9 52 148.7C52.8 147.1 53.6 145.8 53.6 145.8Z" fill="#9EA6BD"/>
<path d="M74.7 137.6L69 126.5C68.2 126.1 67 125.8 65.6 125.6V126.1L66.3 126.3L70.2 131.4L68.7 135.2L71.1 137.4L67.9 147.3C69.6 146.5 71.1 145.4 72.5 144.2L72.6 142.5C72.7 142.7 75.4 139.4 74.7 137.6Z" fill="#9EA6BD"/>
<path d="M65.6 124.9L60.1 125C61.9 125.1 63.9 125.4 65.6 125.7V124.9Z" fill="white"/>
<path d="M66.9 144.5V144.1V143.9L65.1 126L65.6 126.2V125.7C63.8 125.3 61.7 125.1 60.1 125H58.4L59.3 127.2L59.8 126.1C59.8 126.2 64.9 134.8 66.9 144.5Z" fill="white"/>
<path d="M68.7 135.3L70.2 131.5L66.3 126.4L65.6 126.2L66.9 144.2L67 144.9C67.2 145.8 67.4 146.7 67.5 147.6C67.6 147.5 67.9 147.5 68 147.4L71.2 137.5L68.7 135.3Z" fill="#7E8596"/>
<path d="M66.9 143.9V144.2L65.6 126.2L65.1 126L66.9 143.9Z" fill="#7E8596"/>
<path d="M67 144.8C67 144.7 67 144.6 66.9 144.4L67 146.2L59.2 127.1L56.7 132.5L60.9 136.5L59.2 139.6C59.2 139.6 63.4 144.4 66.4 148C66.6 147.9 66.9 147.8 67.2 147.6L67 144.8Z" fill="#7E8596"/>
<path d="M66.9 144.5C64.8 134.8 59.7 126.2 59.7 126.2L59.2 127.3L67 146.4L66.9 144.5Z" fill="#7E8596"/>
<path d="M67.5 147.6C67.4 146.7 67.3 145.8 67 144.9L67.5 147.6Z" fill="#7E8596"/>
<path d="M53.9 146.9C53.9 146.9 55.8 143.2 55.6 140.1C55 142.9 53.5 145.8 53.5 145.8L53.9 146.9Z" fill="#7E8596"/>
<path d="M58.4 149.6C46.5 149.6 36.8 139.9 36.8 128C36.8 116.1 46.5 106.4 58.4 106.4C70.3 106.4 80 116.2 80 128.1C79.9 140 70.2 149.6 58.4 149.6ZM58.4 107.2C46.8 107.2 37.5 116.5 37.5 128.1C37.5 139.7 46.8 149 58.4 149C70 149 79.3 139.7 79.3 128.1C79.2 116.6 69.9 107.2 58.4 107.2Z" fill="#ECF1F7"/>
<path d="M91.7 116.5C88.6 115.9 87.9 117 87.9 117L87.2 119.8L87.6 120.3L83 130.6C83 130.6 75.3 127.9 69.9 126.9C69.8 126.8 69.5 126.7 69.3 126.5L75 137.6V137.5C78.2 138.2 86.2 140 86.2 140C86.2 140 87 140.2 87.9 138.7C88.5 137.3 94 122 94 122L94.6 121.9L96.1 118.5C95.8 118.5 94.7 117.1 91.7 116.5Z" fill="#9EA6BD"/>
<path d="M74.7 137.5L69.7 128.1L74.8 136.7L80.9 138.8L74.7 137.5Z" fill="#7E8596"/>
<path d="M94.4 122C94.4 122 92.4 122 90.3 121.3C88.2 120.6 87.5 120 87.5 120C87.5 120 88.4 121.5 93.6 122.8C93.6 122.4 93.8 122 93.8 122H94.4Z" fill="#7E8596"/>
<path d="M89.2 117.9L91 111.5C91 111.5 91.4 108.3 91.6 107.5C91.8 106.7 93 106.1 93 106.1C93 106.1 96.7 102.8 97.2 102C98.1 102.1 96.6 105.1 95.4 106.1C96.2 107.3 97.1 108.3 96.7 109.5C96.3 110.7 94.8 112.7 94.8 112.7L93.7 119.1C93.8 119 91.8 119.1 89.2 117.9Z" fill="#FFBE9D"/>
<path d="M91.9 108.8L92.7 108.2L93.6 106.1C93.6 106.1 94.4 106.7 94.2 108.8C94.2 109.4 93.7 110.9 93.7 110.9C94.5 109.5 94.8 106.5 93.7 105.8C93.5 105.9 92.6 107.8 92.6 107.8L91.9 108.8Z" fill="#F2A181"/>
<path d="M96.5 109.6C96.5 109.6 95.6 110.8 95 110.5C94.4 110.3 94.2 109.9 94.2 109.9V110.1C94.2 110.1 94.7 110.6 95 110.7C95.2 110.8 95.8 110.5 96.5 109.6Z" fill="#F2A181"/>
<path d="M67.9 109.3C67.9 109.3 69.3 108.8 69.4 106.8C69.5 104.9 68.3 103.4 67 103.1C66.1 101.3 63.9 99.1 60.3 99.8C56.6 100.4 52.9 101.3 51.5 106.9C50.1 112.4 51.3 116.3 54.3 117.7C57.5 119.1 59.4 118.8 59.4 118.8L67.9 109.3Z" fill="#6C473A"/>
<path d="M66.1 123.8L67.1 126.8L65.1 126L66.1 123.8Z" fill="#5B616B"/>
<path d="M56.9 122C56.9 122 58 121.6 60.2 121.9C62.4 122.1 66 123.9 66 123.9L64.9 126.7C62.1 124.9 59.8 123.6 57.2 124.1L56.9 122Z" fill="#5E6470"/>
<path d="M58.5 125.1C58.5 125.1 58.5 119.6 58.4 118.4C58.3 117.2 55.7 115.6 55.7 115.6C55.7 115.6 52.6 114.2 53.1 110.9C53.6 107.6 59.2 102.9 65.4 106.4C65.4 106.4 68.2 107.6 68.8 110.3C69 111.2 68.2 111.8 70.8 113.5C71.2 113.9 70.2 114.8 70.2 114.8C70.2 114.8 71.3 119 69.8 120.1C68.5 121.2 65.3 120.2 65.3 120.2C65.3 120.2 64.6 120.4 64.6 121.5C64.6 122.1 64.7 124.7 64.8 126.7C64.9 128 63.7 129.1 62.4 128.8C60.8 128.2 59.6 126.9 58.5 125.1Z" fill="#FFBE9D"/>
<path d="M67.5 104.7C67.5 104.7 68.2 107.3 67.3 107.9C66.5 108.5 63.2 105.8 61.6 107.4C60.1 109.1 61.4 109.5 61 110.9C60.8 112.3 61.1 113.4 60.6 113.6C60.1 113.8 60.1 112.9 60.1 112.9C60.1 112.9 59.2 110.2 57.5 111.5C55.8 112.7 56.6 114.9 57.4 115.7C58.2 116.5 58.8 116.4 58.8 116.4C58.8 116.4 58.7 118.3 57.4 118.3C56.1 118.3 50.9 116.1 51.7 111.1C52.5 106.1 55 103.4 58.9 102.8C63.1 102.3 67.5 104.7 67.5 104.7Z" fill="#6C473A"/>
<path d="M54.7 103.2C54.7 103.2 53.8 100.1 49.5 100C45.3 100 44.9 104.2 45.4 106C45.9 107.9 51.6 109.2 51.6 109.2L54.7 103.2Z" fill="#6C473A"/>
<path d="M65.4 119.9C65.4 119.9 63.7 119.9 61.7 119C59.2 117.9 59.1 116.5 59.1 116.5L58.2 116.1L59 116.6C59 116.6 58.9 117.4 58.5 118C60.4 119.5 63.5 120.1 65.4 119.9Z" fill="#FFBE9D"/>
<path d="M61.3 124.8L60.1 128.2C60.1 128.2 56.1 125.7 56.2 124.7C56.3 123.6 57 122.1 57 122.1L61.3 124.8Z" fill="#7E8596"/>
<path d="M68.1 117.7C67.6 117.6 67.2 117.8 67.2 118.2C67.2 118.6 67.6 118.8 68 118.9C68.4 119 68.9 118.8 68.9 118.4C69 118.1 68.7 117.8 68.1 117.7Z" fill="#0C3341"/>
<path d="M58.3 109.8C59.5 109.8 60.4 111.2 60.4 113C60.4 113.7 60.3 114.4 59.9 115C60.5 115.7 61.3 116.4 62.1 116.8C63.9 117.6 67.6 118 67.6 118V118.5C67.5 118.5 63.7 118.1 61.9 117.2C61.1 116.7 60.2 116 59.7 115.3C59.3 115.8 58.9 116.1 58.3 116.1C57.1 116.1 56.2 114.7 56.2 112.9C56.3 111.2 57.2 109.8 58.3 109.8Z" fill="#0C3341"/>
<defs>
<linearGradient id="paint0_linear" x1="154.6" y1="99.2035" x2="264.802" y2="99.2035" gradientUnits="userSpaceOnUse">
<stop stop-color="#FFB300"/>
<stop offset="1" stop-color="#FF8F00"/>
</linearGradient>
<linearGradient id="paint1_linear" x1="201.568" y1="83.4058" x2="253.81" y2="109.441" gradientUnits="userSpaceOnUse">
<stop stop-color="#F0390C"/>
<stop offset="0.2489" stop-color="#F13D0C"/>
<stop offset="0.474" stop-color="#F3480D"/>
<stop offset="0.6899" stop-color="#F75A0D"/>
<stop offset="0.899" stop-color="#FC740E"/>
<stop offset="1" stop-color="#FF830F"/>
</linearGradient>
<linearGradient id="paint2_linear" x1="201.304" y1="83.9359" x2="253.546" y2="109.971" gradientUnits="userSpaceOnUse">
<stop stop-color="#F0390C"/>
<stop offset="0.2489" stop-color="#F13D0C"/>
<stop offset="0.474" stop-color="#F3480D"/>
<stop offset="0.6899" stop-color="#F75A0D"/>
<stop offset="0.899" stop-color="#FC740E"/>
<stop offset="1" stop-color="#FF830F"/>
</linearGradient>
<linearGradient id="paint3_linear" x1="228.046" y1="105.518" x2="248.492" y2="105.518" gradientUnits="userSpaceOnUse">
<stop stop-color="#FFB300"/>
<stop offset="1" stop-color="#FF8F00"/>
</linearGradient>
<linearGradient id="paint4_linear" x1="205.333" y1="75.8512" x2="257.575" y2="101.886" gradientUnits="userSpaceOnUse">
<stop stop-color="#F0390C"/>
<stop offset="0.2489" stop-color="#F13D0C"/>
<stop offset="0.474" stop-color="#F3480D"/>
<stop offset="0.6899" stop-color="#F75A0D"/>
<stop offset="0.899" stop-color="#FC740E"/>
<stop offset="1" stop-color="#FF830F"/>
</linearGradient>
<linearGradient id="paint5_linear" x1="205.292" y1="75.934" x2="257.534" y2="101.969" gradientUnits="userSpaceOnUse">
<stop stop-color="#F0390C"/>
<stop offset="0.2489" stop-color="#F13D0C"/>
<stop offset="0.474" stop-color="#F3480D"/>
<stop offset="0.6899" stop-color="#F75A0D"/>
<stop offset="0.899" stop-color="#FC740E"/>
<stop offset="1" stop-color="#FF830F"/>
</linearGradient>
<linearGradient id="paint6_linear" x1="205.292" y1="75.934" x2="257.534" y2="101.969" gradientUnits="userSpaceOnUse">
<stop stop-color="#F0390C"/>
<stop offset="0.2489" stop-color="#F13D0C"/>
<stop offset="0.474" stop-color="#F3480D"/>
<stop offset="0.6899" stop-color="#F75A0D"/>
<stop offset="0.899" stop-color="#FC740E"/>
<stop offset="1" stop-color="#FF830F"/>
</linearGradient>
<linearGradient id="paint7_linear" x1="201.703" y1="83.1369" x2="253.944" y2="109.172" gradientUnits="userSpaceOnUse">
<stop stop-color="#F0390C"/>
<stop offset="0.2489" stop-color="#F13D0C"/>
<stop offset="0.474" stop-color="#F3480D"/>
<stop offset="0.6899" stop-color="#F75A0D"/>
<stop offset="0.899" stop-color="#FC740E"/>
<stop offset="1" stop-color="#FF830F"/>
</linearGradient>
<linearGradient id="paint8_linear" x1="228.046" y1="105.156" x2="248.492" y2="105.156" gradientUnits="userSpaceOnUse">
<stop stop-color="#FFB300"/>
<stop offset="1" stop-color="#FF8F00"/>
</linearGradient>
<linearGradient id="paint9_linear" x1="201.703" y1="83.1369" x2="253.944" y2="109.172" gradientUnits="userSpaceOnUse">
<stop stop-color="#F0390C"/>
<stop offset="0.2489" stop-color="#F13D0C"/>
<stop offset="0.474" stop-color="#F3480D"/>
<stop offset="0.6899" stop-color="#F75A0D"/>
<stop offset="0.899" stop-color="#FC740E"/>
<stop offset="1" stop-color="#FF830F"/>
</linearGradient>
<linearGradient id="paint10_linear" x1="200.58" y1="85.389" x2="252.822" y2="111.424" gradientUnits="userSpaceOnUse">
<stop stop-color="#F0390C"/>
<stop offset="0.2489" stop-color="#F13D0C"/>
<stop offset="0.474" stop-color="#F3480D"/>
<stop offset="0.6899" stop-color="#F75A0D"/>
<stop offset="0.899" stop-color="#FC740E"/>
<stop offset="1" stop-color="#FF830F"/>
</linearGradient>
</defs>
</svg>
