<svg width="1440" height="900" viewBox="0 0 1440 900" fill="none" xmlns="http://www.w3.org/2000/svg">
<path opacity="0.4" d="M1180.41 1502.21C1413.98 1502.21 1603.32 1312.87 1603.32 1079.3C1603.32 845.732 1413.98 656.388 1180.41 656.388C946.844 656.388 757.5 845.732 757.5 1079.3C757.5 1312.87 946.844 1502.21 1180.41 1502.21Z" stroke="url(#paint0_linear)" stroke-width="1.5" stroke-miterlimit="10"/>
<path opacity="0.4" d="M1046.85 742.885C1159.05 742.885 1250 651.928 1250 539.728C1250 427.527 1159.05 336.571 1046.85 336.571C934.647 336.571 843.69 427.527 843.69 539.728C843.69 651.928 934.647 742.885 1046.85 742.885Z" stroke="url(#paint1_linear)" stroke-width="1.5" stroke-miterlimit="10"/>
<path opacity="0.4" d="M1116.33 1082.51C1181.04 1082.51 1233.49 1030.06 1233.49 965.352C1233.49 900.648 1181.04 848.195 1116.33 848.195C1051.63 848.195 999.175 900.648 999.175 965.352C999.175 1030.06 1051.63 1082.51 1116.33 1082.51Z" stroke="url(#paint2_linear)" stroke-width="1.5" stroke-miterlimit="10"/>
<path opacity="0.4" d="M648.418 1100.81C786.009 1100.81 897.548 989.267 897.548 851.676C897.548 714.085 786.009 602.545 648.418 602.545C510.826 602.545 399.287 714.085 399.287 851.676C399.287 989.267 510.826 1100.81 648.418 1100.81Z" stroke="url(#paint3_linear)" stroke-width="1.5" stroke-miterlimit="10"/>
<path opacity="0.4" d="M648.418 1081.5C775.346 1081.5 878.242 978.604 878.242 851.676C878.242 724.748 775.346 621.852 648.418 621.852C521.489 621.852 418.594 724.748 418.594 851.676C418.594 978.604 521.489 1081.5 648.418 1081.5Z" stroke="url(#paint4_linear)" stroke-width="1.5" stroke-miterlimit="10"/>
<path opacity="0.4" d="M648.418 1062.19C764.683 1062.19 858.935 967.941 858.935 851.676C858.935 735.411 764.683 641.159 648.418 641.159C532.152 641.159 437.9 735.411 437.9 851.676C437.9 967.941 532.152 1062.19 648.418 1062.19Z" stroke="url(#paint5_linear)" stroke-width="1.5" stroke-miterlimit="10"/>
<path opacity="0.4" d="M648.418 1042.89C754.021 1042.89 839.63 957.279 839.63 851.676C839.63 746.072 754.021 660.464 648.418 660.464C542.814 660.464 457.205 746.072 457.205 851.676C457.205 957.279 542.814 1042.89 648.418 1042.89Z" stroke="url(#paint6_linear)" stroke-width="1.5" stroke-miterlimit="10"/>
<path opacity="0.4" d="M1506.07 371.02C1643.66 371.02 1755.2 259.48 1755.2 121.889C1755.2 -15.7026 1643.66 -127.242 1506.07 -127.242C1368.48 -127.242 1256.94 -15.7026 1256.94 121.889C1256.94 259.48 1368.48 371.02 1506.07 371.02Z" stroke="url(#paint7_linear)" stroke-width="1.5" stroke-miterlimit="10"/>
<path opacity="0.4" d="M1506.07 351.713C1632.99 351.713 1735.89 248.817 1735.89 121.889C1735.89 -5.03966 1632.99 -107.935 1506.07 -107.935C1379.14 -107.935 1276.24 -5.03966 1276.24 121.889C1276.24 248.817 1379.14 351.713 1506.07 351.713Z" stroke="url(#paint8_linear)" stroke-width="1.5" stroke-miterlimit="10"/>
<path opacity="0.4" d="M1506.07 332.406C1622.33 332.406 1716.58 238.154 1716.58 121.889C1716.58 5.62319 1622.33 -88.6286 1506.07 -88.6286C1389.8 -88.6286 1295.55 5.62319 1295.55 121.889C1295.55 238.154 1389.8 332.406 1506.07 332.406Z" stroke="url(#paint9_linear)" stroke-width="1.5" stroke-miterlimit="10"/>
<path opacity="0.4" d="M1506.07 313.101C1611.67 313.101 1697.28 227.492 1697.28 121.889C1697.28 16.285 1611.67 -69.3236 1506.07 -69.3236C1400.46 -69.3236 1314.85 16.285 1314.85 121.889C1314.85 227.492 1400.46 313.101 1506.07 313.101Z" stroke="url(#paint10_linear)" stroke-width="1.5" stroke-miterlimit="10"/>
<path opacity="0.2" d="M168.332 1131.22C247.413 1131.22 311.521 1067.12 311.521 988.035C311.521 908.953 247.413 844.845 168.332 844.845C89.2503 844.845 25.1422 908.953 25.1422 988.035C25.1422 1067.12 89.2503 1131.22 168.332 1131.22Z" fill="url(#paint11_linear)"/>
<path opacity="0.2" d="M1336.35 908.107C1384.04 908.107 1422.7 869.447 1422.7 821.757C1422.7 774.068 1384.04 735.408 1336.35 735.408C1288.66 735.408 1250 774.068 1250 821.757C1250 869.447 1288.66 908.107 1336.35 908.107Z" fill="url(#paint12_linear)"/>
<path opacity="0.2" d="M1506.07 265.078C1585.15 265.078 1649.26 200.97 1649.26 121.889C1649.26 42.8073 1585.15 -21.3008 1506.07 -21.3008C1426.98 -21.3008 1362.88 42.8073 1362.88 121.889C1362.88 200.97 1426.98 265.078 1506.07 265.078Z" fill="url(#paint13_linear)"/>
<path opacity="0.2" d="M1046.85 632.056C1097.84 632.056 1139.18 590.719 1139.18 539.728C1139.18 488.736 1097.84 447.399 1046.85 447.399C995.855 447.399 954.519 488.736 954.519 539.728C954.519 590.719 995.855 632.056 1046.85 632.056Z" fill="url(#paint14_linear)"/>
<path opacity="0.2" d="M629.516 914.086C680.508 914.086 721.845 872.749 721.845 821.757C721.845 770.766 680.508 729.429 629.516 729.429C578.525 729.429 537.188 770.766 537.188 821.757C537.188 872.749 578.525 914.086 629.516 914.086Z" fill="url(#paint15_linear)"/>
<path opacity="0.2" d="M1041.57 429.15C1058.45 429.15 1072.14 415.465 1072.14 398.585C1072.14 381.705 1058.45 368.02 1041.57 368.02C1024.69 368.02 1011.01 381.705 1011.01 398.585C1011.01 415.465 1024.69 429.15 1041.57 429.15Z" fill="url(#paint16_linear)"/>
<path opacity="0.2" d="M981.473 908.929C1023.81 908.929 1058.13 874.609 1058.13 832.274C1058.13 789.938 1023.81 755.619 981.473 755.619C939.137 755.619 904.818 789.938 904.818 832.274C904.818 874.609 939.137 908.929 981.473 908.929Z" fill="url(#paint17_linear)"/>
<path opacity="0.2" d="M384.248 875.391C424.941 875.391 457.929 842.402 457.929 801.709C457.929 761.016 424.941 728.028 384.248 728.028C343.555 728.028 310.567 761.016 310.567 801.709C310.567 842.402 343.555 875.391 384.248 875.391Z" fill="url(#paint18_linear)"/>
<path opacity="0.2" d="M970.661 72.0229C977.493 72.0229 983.031 66.4849 983.031 59.6534C983.031 52.822 977.493 47.284 970.661 47.284C963.83 47.284 958.292 52.822 958.292 59.6534C958.292 66.4849 963.83 72.0229 970.661 72.0229Z" fill="url(#paint19_linear)"/>
<path opacity="0.2" d="M1180.41 1375.64C1344.08 1375.64 1476.75 1242.97 1476.75 1079.3C1476.75 915.634 1344.08 782.957 1180.41 782.957C1016.75 782.957 884.069 915.634 884.069 1079.3C884.069 1242.97 1016.75 1375.64 1180.41 1375.64Z" fill="url(#paint20_linear)"/>
<path opacity="0.2" d="M1433.59 951L932.946 450.352C856.646 374.052 732.939 374.052 656.639 450.352C580.339 526.652 580.339 650.358 656.639 726.658L880.981 951H1433.59Z" fill="url(#paint21_linear)"/>
<path opacity="0.2" d="M1477.83 337.151L1181.81 41.1381C1136.7 -3.97469 1063.56 -3.97469 1018.44 41.1381C973.331 86.2508 973.331 159.393 1018.44 204.505L1477.82 671.273V337.151H1477.83Z" fill="url(#paint22_linear)"/>
<path opacity="0.2" d="M1463.59 601.131L1082.79 220.328C1070.91 208.453 1051.66 208.453 1039.78 220.328C1027.91 232.203 1027.91 251.457 1039.78 263.332L1463.59 689.083V601.131H1463.59Z" fill="url(#paint23_linear)"/>
<path opacity="0.2" d="M1459 714.987L1290.35 546.335C1272.81 528.802 1244.39 528.802 1226.85 546.335C1209.32 563.869 1209.32 592.296 1226.85 609.828L1459 844.845V714.987Z" fill="url(#paint24_linear)"/>
<path opacity="0.2" d="M993.872 951L418.623 375.751C375.411 332.54 305.35 332.54 262.138 375.751C218.927 418.963 218.927 489.024 262.138 532.235L680.901 951H993.872Z" fill="url(#paint25_linear)"/>
<path opacity="0.2" d="M1068.79 951L544.548 426.762C522.391 404.605 486.47 404.605 464.316 426.762C442.159 448.918 442.159 484.839 464.316 506.994L908.32 951H1068.79Z" fill="url(#paint26_linear)"/>
<path opacity="0.15" d="M1336.69 1042.96L419.533 125.794C411.46 117.721 398.375 117.721 390.303 125.794C382.23 133.866 382.23 146.951 390.303 155.024L1278.23 1042.96H1336.69V1042.96Z" fill="url(#paint27_linear)"/>
<path opacity="0.35" d="M1156.81 506.441C1159.05 506.441 1160.86 504.63 1160.86 502.396C1160.86 500.162 1159.05 498.351 1156.81 498.351C1154.58 498.351 1152.77 500.162 1152.77 502.396C1152.77 504.63 1154.58 506.441 1156.81 506.441Z" fill="#3174E6"/>
<path opacity="0.35" d="M1125.51 721.17C1127.74 721.17 1129.55 719.359 1129.55 717.125C1129.55 714.891 1127.74 713.08 1125.51 713.08C1123.27 713.08 1121.46 714.891 1121.46 717.125C1121.46 719.359 1123.27 721.17 1125.51 721.17Z" fill="#3174E6"/>
<path opacity="0.35" d="M984.61 296.5C986.844 296.5 988.655 294.689 988.655 292.455C988.655 290.221 986.844 288.41 984.61 288.41C982.376 288.41 980.565 290.221 980.565 292.455C980.565 294.689 982.376 296.5 984.61 296.5Z" fill="#3174E6"/>
<path opacity="0.35" d="M1373.5 35.7196C1375.73 35.7196 1377.55 33.9087 1377.55 31.6747C1377.55 29.4408 1375.73 27.6298 1373.5 27.6298C1371.27 27.6298 1369.46 29.4408 1369.46 31.6747C1369.46 33.9087 1371.27 35.7196 1373.5 35.7196Z" fill="#3174E6"/>
<path opacity="0.35" d="M1422.7 825.802C1424.93 825.802 1426.75 823.991 1426.75 821.757C1426.75 819.523 1424.93 817.712 1422.7 817.712C1420.47 817.712 1418.66 819.523 1418.66 821.757C1418.66 823.991 1420.47 825.802 1422.7 825.802Z" fill="#3174E6"/>
<path opacity="0.35" d="M1156.81 745.35C1159.05 745.35 1160.86 743.539 1160.86 741.305C1160.86 739.071 1159.05 737.261 1156.81 737.261C1154.58 737.261 1152.77 739.071 1152.77 741.305C1152.77 743.539 1154.58 745.35 1156.81 745.35Z" fill="#3174E6"/>
<path opacity="0.35" d="M672.338 470.045C674.572 470.045 676.383 468.234 676.383 466C676.383 463.766 674.572 461.955 672.338 461.955C670.104 461.955 668.293 463.766 668.293 466C668.293 468.234 670.104 470.045 672.338 470.045Z" fill="#3174E6"/>
<path opacity="0.35" d="M368.961 750.406C371.195 750.406 373.006 748.595 373.006 746.361C373.006 744.127 371.195 742.316 368.961 742.316C366.727 742.316 364.916 744.127 364.916 746.361C364.916 748.595 366.727 750.406 368.961 750.406Z" fill="#3174E6"/>
<path opacity="0.35" d="M1202.53 157.166C1204.77 157.166 1206.58 155.355 1206.58 153.121C1206.58 150.887 1204.77 149.076 1202.53 149.076C1200.3 149.076 1198.49 150.887 1198.49 153.121C1198.49 155.355 1200.3 157.166 1202.53 157.166Z" fill="#3174E6"/>
<path opacity="0.35" d="M904.818 583.756C907.052 583.756 908.863 581.945 908.863 579.711C908.863 577.477 907.052 575.666 904.818 575.666C902.584 575.666 900.773 577.477 900.773 579.711C900.773 581.945 902.584 583.756 904.818 583.756Z" fill="#3174E6"/>
<path opacity="0.35" d="M662.225 137.186C664.459 137.186 666.27 135.375 666.27 133.141C666.27 130.907 664.459 129.096 662.225 129.096C659.991 129.096 658.18 130.907 658.18 133.141C658.18 135.375 659.991 137.186 662.225 137.186Z" fill="#3174E6"/>
<path opacity="0.35" d="M134.686 660.433C136.92 660.433 138.731 658.622 138.731 656.388C138.731 654.154 136.92 652.343 134.686 652.343C132.452 652.343 130.641 654.154 130.641 656.388C130.641 658.622 132.452 660.433 134.686 660.433Z" fill="#3174E6"/>
<path opacity="0.35" d="M241.922 238.814C244.156 238.814 245.967 237.003 245.967 234.769C245.967 232.535 244.156 230.725 241.922 230.725C239.688 230.725 237.877 232.535 237.877 234.769C237.877 237.003 239.688 238.814 241.922 238.814Z" fill="#3174E6"/>
<path opacity="0.4" d="M553.6 -8.8829L1049 486.514" stroke="url(#paint28_radial)" stroke-width="1.5" stroke-miterlimit="10"/>
<path opacity="0.4" d="M256.52 693.303L751.914 1188.7" stroke="#3174E6" stroke-width="1.5" stroke-miterlimit="10"/>
<path opacity="0.4" d="M360.091 574.06L855.487 1069.46" stroke="url(#paint29_radial)" stroke-width="1.5" stroke-miterlimit="10"/>
<path opacity="0.4" d="M-1.73071 735.41L493.664 1230.8" stroke="#3174E6" stroke-width="1.5" stroke-miterlimit="10"/>
<path opacity="0.4" d="M1196.49 257.652L1691.89 753.046" stroke="url(#paint30_radial)" stroke-width="1.5" stroke-miterlimit="10"/>
<defs>
<linearGradient id="paint0_linear" x1="1048.07" y1="580.469" x2="1324.2" y2="1579.37" gradientUnits="userSpaceOnUse">
<stop stop-color="#0D63DD"/>
<stop offset="0.1012" stop-color="#0D63DD" stop-opacity="0.887"/>
<stop offset="0.8778" stop-color="#0D63DD" stop-opacity="0"/>
</linearGradient>
<linearGradient id="paint1_linear" x1="983.272" y1="300.101" x2="1115.92" y2="779.95" gradientUnits="userSpaceOnUse">
<stop stop-color="#0D63DD"/>
<stop offset="0.1012" stop-color="#0D63DD" stop-opacity="0.887"/>
<stop offset="0.8778" stop-color="#0D63DD" stop-opacity="0"/>
</linearGradient>
<linearGradient id="paint2_linear" x1="1079.67" y1="827.164" x2="1156.16" y2="1103.88" gradientUnits="userSpaceOnUse">
<stop stop-color="#0D63DD"/>
<stop offset="0.1012" stop-color="#0D63DD" stop-opacity="0.887"/>
<stop offset="0.8778" stop-color="#0D63DD" stop-opacity="0"/>
</linearGradient>
<linearGradient id="paint3_linear" x1="570.456" y1="557.822" x2="733.119" y2="1146.26" gradientUnits="userSpaceOnUse">
<stop stop-color="#0D63DD"/>
<stop offset="0.1012" stop-color="#0D63DD" stop-opacity="0.887"/>
<stop offset="0.8778" stop-color="#0D63DD" stop-opacity="0"/>
</linearGradient>
<linearGradient id="paint4_linear" x1="576.497" y1="580.595" x2="726.555" y2="1123.43" gradientUnits="userSpaceOnUse">
<stop stop-color="#0D63DD"/>
<stop offset="0.1012" stop-color="#0D63DD" stop-opacity="0.887"/>
<stop offset="0.8778" stop-color="#0D63DD" stop-opacity="0"/>
</linearGradient>
<linearGradient id="paint5_linear" x1="582.539" y1="603.368" x2="719.991" y2="1100.6" gradientUnits="userSpaceOnUse">
<stop stop-color="#0D63DD"/>
<stop offset="0.1012" stop-color="#0D63DD" stop-opacity="0.887"/>
<stop offset="0.8778" stop-color="#0D63DD" stop-opacity="0"/>
</linearGradient>
<linearGradient id="paint6_linear" x1="588.58" y1="626.138" x2="713.427" y2="1077.77" gradientUnits="userSpaceOnUse">
<stop stop-color="#0D63DD"/>
<stop offset="0.1012" stop-color="#0D63DD" stop-opacity="0.887"/>
<stop offset="0.8778" stop-color="#0D63DD" stop-opacity="0"/>
</linearGradient>
<linearGradient id="paint7_linear" x1="1428.1" y1="-171.965" x2="1590.77" y2="416.473" gradientUnits="userSpaceOnUse">
<stop stop-color="#0D63DD"/>
<stop offset="0.1012" stop-color="#0D63DD" stop-opacity="0.887"/>
<stop offset="0.8778" stop-color="#0D63DD" stop-opacity="0"/>
</linearGradient>
<linearGradient id="paint8_linear" x1="1434.15" y1="-149.192" x2="1584.2" y2="393.643" gradientUnits="userSpaceOnUse">
<stop stop-color="#0D63DD"/>
<stop offset="0.1012" stop-color="#0D63DD" stop-opacity="0.887"/>
<stop offset="0.8778" stop-color="#0D63DD" stop-opacity="0"/>
</linearGradient>
<linearGradient id="paint9_linear" x1="1440.19" y1="-126.419" x2="1577.64" y2="370.814" gradientUnits="userSpaceOnUse">
<stop stop-color="#0D63DD"/>
<stop offset="0.1012" stop-color="#0D63DD" stop-opacity="0.887"/>
<stop offset="0.8778" stop-color="#0D63DD" stop-opacity="0"/>
</linearGradient>
<linearGradient id="paint10_linear" x1="1446.23" y1="-103.649" x2="1571.08" y2="347.987" gradientUnits="userSpaceOnUse">
<stop stop-color="#0D63DD"/>
<stop offset="0.1012" stop-color="#0D63DD" stop-opacity="0.887"/>
<stop offset="0.8778" stop-color="#0D63DD" stop-opacity="0"/>
</linearGradient>
<linearGradient id="paint11_linear" x1="123.523" y1="819.141" x2="217.014" y2="1157.35" gradientUnits="userSpaceOnUse">
<stop stop-color="#0D63DD"/>
<stop offset="0.1012" stop-color="#0D63DD" stop-opacity="0.887"/>
<stop offset="0.8778" stop-color="#0D63DD" stop-opacity="0"/>
</linearGradient>
<linearGradient id="paint12_linear" x1="1309.33" y1="719.907" x2="1365.71" y2="923.861" gradientUnits="userSpaceOnUse">
<stop stop-color="#0D63DD"/>
<stop offset="0.1012" stop-color="#0D63DD" stop-opacity="0.887"/>
<stop offset="0.8778" stop-color="#0D63DD" stop-opacity="0"/>
</linearGradient>
<linearGradient id="paint13_linear" x1="1461.26" y1="-47.0054" x2="1554.75" y2="291.203" gradientUnits="userSpaceOnUse">
<stop stop-color="#0D63DD"/>
<stop offset="0.1012" stop-color="#0D63DD" stop-opacity="0.887"/>
<stop offset="0.8778" stop-color="#0D63DD" stop-opacity="0"/>
</linearGradient>
<linearGradient id="paint14_linear" x1="1017.95" y1="430.825" x2="1078.24" y2="648.901" gradientUnits="userSpaceOnUse">
<stop stop-color="#0D63DD"/>
<stop offset="0.1012" stop-color="#0D63DD" stop-opacity="0.887"/>
<stop offset="0.8778" stop-color="#0D63DD" stop-opacity="0"/>
</linearGradient>
<linearGradient id="paint15_linear" x1="600.623" y1="712.854" x2="660.907" y2="930.931" gradientUnits="userSpaceOnUse">
<stop stop-color="#0D63DD"/>
<stop offset="0.1012" stop-color="#0D63DD" stop-opacity="0.887"/>
<stop offset="0.8778" stop-color="#0D63DD" stop-opacity="0"/>
</linearGradient>
<linearGradient id="paint16_linear" x1="1032.01" y1="362.533" x2="1051.96" y2="434.726" gradientUnits="userSpaceOnUse">
<stop stop-color="#0D63DD"/>
<stop offset="0.1012" stop-color="#0D63DD" stop-opacity="0.887"/>
<stop offset="0.8778" stop-color="#0D63DD" stop-opacity="0"/>
</linearGradient>
<linearGradient id="paint17_linear" x1="957.485" y1="741.858" x2="1007.53" y2="922.915" gradientUnits="userSpaceOnUse">
<stop stop-color="#0D63DD"/>
<stop offset="0.1012" stop-color="#0D63DD" stop-opacity="0.887"/>
<stop offset="0.8778" stop-color="#0D63DD" stop-opacity="0"/>
</linearGradient>
<linearGradient id="paint18_linear" x1="361.19" y1="714.801" x2="409.299" y2="888.833" gradientUnits="userSpaceOnUse">
<stop stop-color="#0D63DD"/>
<stop offset="0.1012" stop-color="#0D63DD" stop-opacity="0.887"/>
<stop offset="0.8778" stop-color="#0D63DD" stop-opacity="0"/>
</linearGradient>
<linearGradient id="paint19_linear" x1="966.791" y1="45.0635" x2="974.867" y2="74.2796" gradientUnits="userSpaceOnUse">
<stop stop-color="#0D63DD"/>
<stop offset="0.1012" stop-color="#0D63DD" stop-opacity="0.887"/>
<stop offset="0.8778" stop-color="#0D63DD" stop-opacity="0"/>
</linearGradient>
<linearGradient id="paint20_linear" x1="1087.68" y1="729.759" x2="1281.16" y2="1429.71" gradientUnits="userSpaceOnUse">
<stop stop-color="#0D63DD"/>
<stop offset="0.1012" stop-color="#0D63DD" stop-opacity="0.887"/>
<stop offset="0.8778" stop-color="#0D63DD" stop-opacity="0"/>
</linearGradient>
<linearGradient id="paint21_linear" x1="885.982" y1="343.054" x2="1012.76" y2="1028.8" gradientUnits="userSpaceOnUse">
<stop stop-color="#0D63DD"/>
<stop offset="0.1012" stop-color="#0D63DD" stop-opacity="0.887"/>
<stop offset="0.8778" stop-color="#0D63DD" stop-opacity="0"/>
</linearGradient>
<linearGradient id="paint22_linear" x1="1154.04" y1="-52.2926" x2="1429.94" y2="689.093" gradientUnits="userSpaceOnUse">
<stop stop-color="#0D63DD"/>
<stop offset="0.1012" stop-color="#0D63DD" stop-opacity="0.887"/>
<stop offset="0.8778" stop-color="#0D63DD" stop-opacity="0"/>
</linearGradient>
<linearGradient id="paint23_linear" x1="1179.53" y1="168.549" x2="1349.03" y2="724.038" gradientUnits="userSpaceOnUse">
<stop stop-color="#0D63DD"/>
<stop offset="0.1012" stop-color="#0D63DD" stop-opacity="0.887"/>
<stop offset="0.8778" stop-color="#0D63DD" stop-opacity="0"/>
</linearGradient>
<linearGradient id="paint24_linear" x1="1297.97" y1="505.211" x2="1421.84" y2="857.896" gradientUnits="userSpaceOnUse">
<stop stop-color="#0D63DD"/>
<stop offset="0.1012" stop-color="#0D63DD" stop-opacity="0.887"/>
<stop offset="0.8778" stop-color="#0D63DD" stop-opacity="0"/>
</linearGradient>
<linearGradient id="paint25_linear" x1="492.237" y1="288.801" x2="654.217" y2="1025.66" gradientUnits="userSpaceOnUse">
<stop stop-color="#0D63DD"/>
<stop offset="0.1012" stop-color="#0D63DD" stop-opacity="0.887"/>
<stop offset="0.8778" stop-color="#0D63DD" stop-opacity="0"/>
</linearGradient>
<linearGradient id="paint26_linear" x1="661.062" y1="361.598" x2="817.505" y2="1011.49" gradientUnits="userSpaceOnUse">
<stop stop-color="#0D63DD"/>
<stop offset="0.1012" stop-color="#0D63DD" stop-opacity="0.887"/>
<stop offset="0.8778" stop-color="#0D63DD" stop-opacity="0"/>
</linearGradient>
<linearGradient id="paint27_linear" x1="711.444" y1="36.8741" x2="1004.85" y2="1131.87" gradientUnits="userSpaceOnUse">
<stop stop-color="#0D63DD"/>
<stop offset="0.1012" stop-color="#0D63DD" stop-opacity="0.887"/>
<stop offset="0.8778" stop-color="#0D63DD" stop-opacity="0"/>
</linearGradient>
<radialGradient id="paint28_radial" cx="0" cy="0" r="1" gradientUnits="userSpaceOnUse" gradientTransform="translate(801.299 238.815) scale(248.727)">
<stop stop-color="#44FFDD"/>
<stop offset="1" stop-color="#44FFDD" stop-opacity="0"/>
</radialGradient>
<radialGradient id="paint29_radial" cx="0" cy="0" r="1" gradientUnits="userSpaceOnUse" gradientTransform="translate(607.79 821.758) scale(248.727)">
<stop stop-color="#44FFDD"/>
<stop offset="1" stop-color="#44FFDD" stop-opacity="0"/>
</radialGradient>
<radialGradient id="paint30_radial" cx="0" cy="0" r="1" gradientUnits="userSpaceOnUse" gradientTransform="translate(1444.19 505.349) scale(248.727)">
<stop stop-color="#3174E6"/>
<stop offset="1" stop-color="#3174E6" stop-opacity="0"/>
</radialGradient>
</defs>
</svg>
