<svg width="128" height="128" viewBox="0 0 128 128" fill="none" xmlns="http://www.w3.org/2000/svg">
<g clip-path="url(#clip0)">
<path opacity="0.4" d="M106.667 63.9998C100.8 63.9998 96 59.1998 96 53.3332C96 47.4665 100.8 42.6665 106.667 42.6665C112.533 42.6665 117.333 47.4665 117.333 53.3332C117.333 59.1998 112.533 63.9998 106.667 63.9998ZM106.667 47.9998C103.467 47.9998 101.333 50.1332 101.333 53.3332C101.333 56.5332 103.467 58.6665 106.667 58.6665C109.867 58.6665 112 56.5332 112 53.3332C112 50.1332 109.867 47.9998 106.667 47.9998Z" fill="#5D657B"/>
<path opacity="0.4" d="M125.333 90.6668C123.733 90.6668 122.667 89.6002 122.667 88.0002V82.6668C122.667 78.4002 118.933 74.6668 114.667 74.6668H98.6667C97.0667 74.6668 96 73.6002 96 72.0002C96 70.4002 97.0667 69.3335 98.6667 69.3335H114.667C122.133 69.3335 128 75.2002 128 82.6668V88.0002C128 89.6002 126.933 90.6668 125.333 90.6668Z" fill="#5D657B"/>
<path opacity="0.4" d="M21.3327 63.9998C15.466 63.9998 10.666 59.1998 10.666 53.3332C10.666 47.4665 15.466 42.6665 21.3327 42.6665C27.1993 42.6665 31.9993 47.4665 31.9993 53.3332C31.9993 59.1998 27.1993 63.9998 21.3327 63.9998ZM21.3327 47.9998C18.1327 47.9998 15.9993 50.1332 15.9993 53.3332C15.9993 56.5332 18.1327 58.6665 21.3327 58.6665C24.5327 58.6665 26.666 56.5332 26.666 53.3332C26.666 50.1332 24.5327 47.9998 21.3327 47.9998Z" fill="#5D657B"/>
<path opacity="0.4" d="M2.66667 90.6668C1.06667 90.6668 0 89.6002 0 88.0002V82.6668C0 75.2002 5.86667 69.3335 13.3333 69.3335H29.3333C30.9333 69.3335 32 70.4002 32 72.0002C32 73.6002 30.9333 74.6668 29.3333 74.6668H13.3333C9.06667 74.6668 5.33333 78.4002 5.33333 82.6668V88.0002C5.33333 89.6002 4.26667 90.6668 2.66667 90.6668Z" fill="#5D657B"/>
<path opacity="0.4" d="M64 66.6665C54.9333 66.6665 48 59.7332 48 50.6665C48 41.5998 54.9333 34.6665 64 34.6665C73.0667 34.6665 80 41.5998 80 50.6665C80 59.7332 73.0667 66.6665 64 66.6665ZM64 39.9998C58.1333 39.9998 53.3333 44.7998 53.3333 50.6665C53.3333 56.5332 58.1333 61.3332 64 61.3332C69.8667 61.3332 74.6667 56.5332 74.6667 50.6665C74.6667 44.7998 69.8667 39.9998 64 39.9998Z" fill="#5D657B"/>
<path opacity="0.4" d="M90.666 101.333C89.066 101.333 87.9993 100.266 87.9993 98.6665V87.9998C87.9993 83.7332 84.266 79.9998 79.9993 79.9998H47.9993C43.7327 79.9998 39.9993 83.7332 39.9993 87.9998V98.6665C39.9993 100.266 38.9327 101.333 37.3327 101.333C35.7327 101.333 34.666 100.266 34.666 98.6665V87.9998C34.666 80.5332 40.5327 74.6665 47.9993 74.6665H79.9993C87.466 74.6665 93.3327 80.5332 93.3327 87.9998V98.6665C93.3327 100.266 92.266 101.333 90.666 101.333Z" fill="#5D657B"/>
</g>
<defs>
<clipPath id="clip0">
<rect width="128" height="128" fill="white"/>
</clipPath>
</defs>
</svg>
