<svg width="20" height="26" viewBox="0 0 20 26" xmlns="http://www.w3.org/2000/svg">
<path d="M17.8001 0H2.20011C1.00845 0 0.0334473 0.975 0.0334473 2.275V23.8333C0.0334473 25.025 1.00845 26 2.20011 26H12.9251C13.2501 26 13.4668 25.7833 13.5751 25.5667L19.6418 19.6083C19.8584 19.5 19.9668 19.2833 19.9668 18.9583V2.275C19.9668 0.975 18.9918 0 17.8001 0ZM13.6834 23.5083V20.475C13.6834 20.0417 14.0084 19.7167 14.4418 19.7167H17.4751L13.6834 23.5083ZM18.5584 18.2H14.4418C13.2501 18.2 12.2751 19.175 12.2751 20.3667V24.4833H2.20011C1.76678 24.4833 1.44178 24.1583 1.44178 23.725V2.275C1.44178 1.84167 1.76678 1.40833 2.20011 1.40833H17.8001C18.2334 1.40833 18.5584 1.73333 18.5584 2.275V18.2Z"/>
<path d="M4.90837 13.1083H3.50003C3.0667 13.1083 2.7417 13.4333 2.7417 13.8666C2.7417 14.2999 3.0667 14.6249 3.50003 14.6249H5.0167C5.45003 14.6249 5.77503 14.2999 5.77503 13.8666C5.6667 13.4333 5.3417 13.1083 4.90837 13.1083Z"/>
<path d="M15.7417 13.1083H7.18338C6.75005 13.1083 6.42505 13.4333 6.42505 13.8666C6.42505 14.2999 6.75005 14.6249 7.18338 14.6249H15.7417C16.175 14.6249 16.5 14.2999 16.5 13.8666C16.5 13.4333 16.175 13.1083 15.7417 13.1083Z"/>
<path d="M4.90837 8.8833H3.50003C3.0667 8.8833 2.7417 9.2083 2.7417 9.64163C2.7417 10.075 3.0667 10.2916 3.50003 10.2916H5.0167C5.3417 10.2916 5.6667 9.96663 5.6667 9.64163C5.6667 9.31663 5.3417 8.8833 4.90837 8.8833Z"/>
<path d="M15.7417 8.8833H7.18338C6.75005 8.8833 6.42505 9.2083 6.42505 9.64163C6.42505 10.075 6.75005 10.2916 7.18338 10.2916H15.7417C16.175 10.2916 16.5 9.96663 16.5 9.5333C16.5 9.09997 16.175 8.8833 15.7417 8.8833Z"/>
<path d="M4.90837 4.65833H3.50003C3.0667 4.65833 2.7417 4.98333 2.7417 5.41666C2.7417 5.84999 3.0667 6.17499 3.50003 6.17499H5.0167C5.3417 6.06666 5.6667 5.74166 5.6667 5.41666C5.6667 4.98333 5.3417 4.65833 4.90837 4.65833Z"/>
<path d="M15.7417 4.65833H7.18338C6.75005 4.65833 6.42505 4.98333 6.42505 5.41666C6.42505 5.84999 6.75005 6.17499 7.18338 6.17499H15.7417C16.175 6.06666 16.5 5.74166 16.5 5.41666C16.5 4.98333 16.175 4.65833 15.7417 4.65833Z"/>
</svg>
