<svg width="26" height="26" viewBox="0 0 26 26" fill="none" xmlns="http://www.w3.org/2000/svg">
<path d="M25.7833 0.216667C25.675 0 25.4583 0 25.2416 0L22.8583 0.325C18.9583 0.866667 15.3833 2.70833 12.5666 5.525C8.44997 4.11667 4.76664 5.30833 0.974972 9.1C0.758306 9.31667 0.758306 9.75 0.974972 10.075L4.44164 13.5417L3.89997 14.0833C3.57497 14.4083 3.57497 14.8417 3.89997 15.0583L4.22497 15.3833L1.94997 17.55C1.40831 18.0917 1.40831 18.9583 1.84164 19.5C1.73331 19.6083 1.73331 19.6083 1.62497 19.7167C0.866639 20.475 0.216639 21.6667 -2.75522e-05 22.8583C-0.108361 23.725 -0.216694 24.8083 0.216639 25.35L0.324972 25.4583L0.433306 25.5667L0.541639 25.675C0.974972 25.8917 1.62497 26 2.16664 26C2.49164 26 2.92497 26 3.24997 25.8917C4.44164 25.675 5.63331 25.1333 6.39164 24.2667L6.49997 24.1583C6.71664 24.375 7.04164 24.4833 7.47497 24.4833C7.79997 24.4833 8.2333 24.375 8.44997 24.05L10.6166 21.775L10.8333 21.9917C11.1583 22.3167 11.5916 22.3167 11.8083 21.9917L12.35 21.45L15.8166 24.9167C16.1416 25.2417 16.575 25.2417 16.7916 24.9167C18.6333 23.075 19.825 21.2333 20.475 19.3917C21.125 17.4417 21.0166 15.4917 20.3666 13.4333C23.1833 10.6167 25.025 7.04167 25.5666 3.03333L26 0.758333C26 0.541667 26 0.325 25.7833 0.216667ZM2.49164 9.53333C5.52497 6.71667 8.34164 5.74167 11.375 6.60833L5.41664 12.5667L2.49164 9.53333ZM5.30831 23.2917C4.00831 24.5917 1.94997 24.7 1.40831 24.4833C1.19164 24.05 1.29997 21.9917 2.59997 20.5833C2.70831 20.475 2.70831 20.475 2.81664 20.3667L5.52497 23.075C5.52497 23.1833 5.41664 23.2917 5.30831 23.2917ZM7.47497 23.075L2.92497 18.525L5.19997 16.3583L9.64164 20.8L7.47497 23.075ZM16.4666 23.5083L13.5416 20.5833L19.3916 14.7333C20.0416 17.7667 19.175 20.5833 16.4666 23.5083ZM24.2666 2.925C23.725 6.5 22.1 9.85833 19.5 12.4583L11.9166 20.0417L11.375 20.5833L5.41664 14.625L13.1083 6.93333L13.2166 6.825L13.5416 6.5C16.1416 3.9 19.5 2.275 23.075 1.73333L24.4833 1.51667L24.2666 2.925Z" fill="#F7F9FA"/>
<path d="M12.8916 8.66665C11.6999 9.96665 11.6999 11.9166 12.8916 13.2166C14.1916 14.5166 16.1416 14.5166 17.4416 13.2166C18.7416 11.9166 18.7416 9.96665 17.4416 8.66665C16.1416 7.36665 14.0832 7.36665 12.8916 8.66665ZM16.3582 12.1333C16.0332 12.4583 15.5999 12.675 15.0582 12.675C14.6249 12.675 14.0832 12.4583 13.7582 12.1333C13.1082 11.4833 13.1082 10.2916 13.7582 9.64165C14.4082 8.99165 15.5999 8.99165 16.2499 9.64165C17.1166 10.2916 17.1166 11.4833 16.3582 12.1333Z" fill="#F7F9FA"/>
</svg>
