<svg width="26" height="26" viewBox="0 0 26 26" fill="none" xmlns="http://www.w3.org/2000/svg">
<g clip-path="url(#clip0)">
<path d="M8.28678 12H6.87845C6.44512 12 6.12012 12.325 6.12012 12.7583C6.12012 13.1917 6.44512 13.5167 6.87845 13.5167H8.39512C8.82845 13.5167 9.15345 13.1917 9.15345 12.7583C9.04512 12.325 8.72012 12 8.28678 12Z" fill="#F7F9FA"/>
<path d="M15.2418 12H10.5618C10.1285 12 9.80347 12.325 9.80347 12.7583C9.80347 13.1917 10.1285 13.5167 10.5618 13.5167H15.2418C15.6752 13.5167 16.0002 13.1917 16.0002 12.7583C16.0002 12.325 15.6752 12 15.2418 12Z" fill="#F7F9FA"/>
<path d="M8.28678 4H6.87845C6.44512 4 6.12012 4.325 6.12012 4.75833C6.12012 5.19167 6.44512 5.51667 6.87845 5.51667H8.39512C8.72012 5.40833 9.04512 5.08333 9.04512 4.75833C9.04512 4.325 8.72012 4 8.28678 4Z" fill="#F7F9FA"/>
<path d="M19.1201 4H10.5618C10.1285 4 9.80347 4.325 9.80347 4.75833C9.80347 5.19167 10.1285 5.51667 10.5618 5.51667H19.1201C19.5535 5.40833 19.8785 5.08333 19.8785 4.75833C19.8785 4.325 19.5535 4 19.1201 4Z" fill="#F7F9FA"/>
<path d="M8.28678 8H6.87845C6.44512 8 6.12012 8.325 6.12012 8.75833C6.12012 9.19167 6.44512 9.51667 6.87845 9.51667H8.39512C8.72012 9.40833 9.04512 9.08333 9.04512 8.75833C9.04512 8.325 8.72012 8 8.28678 8Z" fill="#F7F9FA"/>
<path d="M19.1201 8H10.5618C10.1285 8 9.80347 8.325 9.80347 8.75833C9.80347 9.19167 10.1285 9.51667 10.5618 9.51667H19.1201C19.5535 9.40833 19.8785 9.08333 19.8785 8.75833C19.8785 8.325 19.5535 8 19.1201 8Z" fill="#F7F9FA"/>
<path d="M20.5938 22C19.9688 22 19.5938 21.875 19.0938 21.375C18.7187 21 18.4687 20.5 18.4687 19.875C18.4687 19.25 18.5937 18.875 19.0938 18.375C19.4688 18 19.9688 17.75 20.5938 17.75C21.2188 17.75 21.5937 17.875 22.0937 18.375C22.4687 18.75 22.7187 19.25 22.7187 19.875C22.7187 20.5 22.5937 20.875 22.0937 21.375C21.5937 21.875 21.0938 22 20.5938 22ZM24.8438 20.625C24.8438 20.5 24.8438 20.25 24.8438 20C24.8438 19.875 24.8438 19.625 24.8438 19.375L25.9688 18.375C26.0938 18.25 26.0938 18.125 25.9688 18L24.8438 16C24.8438 15.875 24.5937 15.875 24.5937 15.875L23.0938 16.5C22.8438 16.25 22.4687 16.125 22.0937 15.875L21.9688 14.25C21.9688 14.125 21.8438 14 21.7188 14H19.3438C19.2188 14 19.0938 14.125 19.0938 14.25L18.9687 15.875C18.5937 16 18.2188 16.125 17.9688 16.5L16.4688 15.875C16.3438 15.875 16.2188 15.875 16.2188 16L15.0938 18C14.9688 18.125 15.0938 18.25 15.0938 18.375L16.2188 19.375C16.2188 19.5 16.2188 19.75 16.2188 20C16.2188 20.125 16.2188 20.375 16.2188 20.625L15.0938 21.625C14.9688 21.75 14.9688 21.875 15.0938 22L16.2188 24C16.2188 24.125 16.4688 24.125 16.4688 24.125L17.9688 23.5C18.2188 23.75 18.5937 23.875 18.9687 24.125L19.0938 25.75C19.0938 25.875 19.2188 26 19.3438 26H21.7188C21.8438 26 21.9688 25.875 21.9688 25.75L22.0937 24.125C22.4687 24 22.8438 23.875 23.0938 23.5L24.5937 24.125C24.7187 24.125 24.8438 24.125 24.8438 24L25.9688 22C25.9688 21.875 25.9688 21.75 25.9688 21.625L24.8438 20.625Z" fill="#F7F9FA"/>
<path d="M5.2 24.5C4.8 24.5 4.4 24.2 4.4 23.7V2.3C4.4 1.9 4.7 1.4 5.2 1.4H20.8C21.2 1.4 21.6 1.7 21.6 2.3V12H23V2.3C23 1 22 0 20.8 0H5.2C4 0 3 1 3 2.3V23.9C3 25 4 26 5.2 26H14V24.5H5.2Z" fill="#F7F9FA"/>
</g>
<defs>
<clipPath id="clip0">
<rect width="26" height="26" fill="white"/>
</clipPath>
</defs>
</svg>
