<svg width="26" height="26" viewBox="0 0 26 26" fill="none" xmlns="http://www.w3.org/2000/svg">
<path d="M13.1002 0.199951C6.0002 0.199951 0.200195 5.89995 0.200195 12.9C0.200195 16.3 1.6002 19.7 3.9002 22C4.0002 22.1 4.2002 22.2 4.4002 22.2C4.6002 22.2 4.8002 22.1 4.9002 22L6.3002 20.6C6.4002 20.5 6.5002 20.3 6.5002 20.1C6.5002 19.9 6.4002 19.7 6.3002 19.6C6.2002 19.5 6.0002 19.4 5.8002 19.4C5.6002 19.4 5.4002 19.5 5.3002 19.6L4.4002 20.5L4.2002 20.2999C2.8002 18.5999 1.9002 16.3 1.7002 14V13.7H3.0002C3.4002 13.7 3.8002 13.4 3.8002 12.9C3.8002 12.5 3.5002 12.1 3.0002 12.1H1.8002V11.8C2.0002 9.69995 2.9002 7.49995 4.4002 5.79995L4.6002 5.59995L5.4002 6.39995C5.5002 6.49995 5.7002 6.59995 5.9002 6.59995C6.1002 6.59995 6.3002 6.49995 6.4002 6.39995C6.5002 6.29995 6.6002 6.09995 6.6002 5.89995C6.6002 5.69995 6.6002 5.49995 6.4002 5.39995L5.6002 4.49995L5.8002 4.29995C7.6002 2.89995 9.7002 1.99995 12.1002 1.79995H12.4002V2.99995C12.4002 3.39995 12.7002 3.79995 13.2002 3.79995C13.7002 3.79995 14.0002 3.49995 14.0002 2.99995V1.79995H14.3002C16.5002 1.99995 18.6002 2.79995 20.3002 4.19995L20.5002 4.39995L11.7002 10.7C10.9002 11.3 10.4002 12.1 10.4002 12.9C10.4002 13 10.4002 13 10.4002 13.1C10.5002 14.5 11.8002 15.7 13.3002 15.7C14.2002 15.7 15.0002 15.3 15.5002 14.5L21.8002 5.69995L22.0002 5.89995C23.4002 7.59995 24.2002 9.69995 24.4002 11.9V12.2H23.0002C22.6002 12.2 22.2002 12.5 22.2002 13C22.2002 13.4 22.5002 13.8 23.0002 13.8H24.2002V14.1C24.0002 16.4 23.1002 18.6 21.7002 20.4L21.5002 20.6L20.7002 19.7999C20.6002 19.6999 20.4002 19.6 20.2002 19.6C20.0002 19.6 19.8002 19.6999 19.7002 19.7999C19.6002 19.9 19.5002 20.0999 19.5002 20.2999C19.5002 20.5 19.6002 20.6999 19.7002 20.7999L21.0002 22C21.1002 22.1 21.3002 22.2 21.5002 22.2C21.7002 22.2 21.9002 22.1 22.0002 22C24.4002 19.6 25.7002 16.3 25.7002 12.9C25.8002 5.89995 20.1002 0.199951 13.1002 0.199951ZM14.1002 13.6C13.9002 13.9 13.5002 14.1 13.1002 14.1C12.4002 14.1 11.7002 13.5 11.7002 12.9C11.7002 12.6 12.0002 12.2 12.3002 11.9L19.0002 6.89995L14.1002 13.6Z" fill="white"/>
<path d="M15.1002 20.3H11.0002C9.5002 20.3 8.2002 21.5 8.2002 23.1C8.2002 24.6 9.4002 25.9 11.0002 25.9H15.1002C16.6002 25.9 17.9002 24.7 17.9002 23.1C17.8002 21.5 16.6002 20.3 15.1002 20.3ZM15.1002 24.2001H11.0002C10.3002 24.2001 9.8002 23.7 9.8002 23C9.8002 22.3 10.3002 21.8 11.0002 21.8H15.1002C15.8002 21.8 16.3002 22.3 16.3002 23C16.3002 23.7 15.7002 24.2001 15.1002 24.2001Z" fill="white"/>
</svg>
