<svg width="20" height="20" viewBox="0 0 20 20" fill="none" xmlns="http://www.w3.org/2000/svg">
<path d="M7.618 19.308C7.362 19.308 7.091 19.037 7.091 18.78C7.091 18.524 7.362 18.253 7.618 18.253H9.091V16.407L8.969 16.392C7.693 16.233 6.539 15.67 5.634 14.765C5.608 14.698 5.533 14.623 5.467 14.557C5.408 14.498 5.358 14.448 5.326 14.384L5.216 14.265L5.114 14.164L3.85 15.518C3.733 15.566 3.586 15.64 3.452 15.64H3.285C3.189 15.576 3.063 15.423 3 15.235L3.007 15.113C3.007 14.988 3.072 14.855 3.133 14.795L4.536 13.13L4.49 13.046C4.125 12.389 3.925 11.525 3.925 10.613C3.925 10.356 4.196 10.085 4.452 10.085C4.708 10.085 4.979 10.356 4.979 10.613C4.979 11.125 5.065 11.644 5.236 12.157V12.493L5.466 12.295L6.277 11.484L6.25 11.402C6.174 11.173 6.174 10.941 6.174 10.696V4.53C6.174 2.618 7.789 1.003 9.701 1.003L9.856 1C11.576 1 12.991 2.344 13.146 4.126L13.172 4.424L13.383 4.296L15.466 2.213C15.579 2.164 15.733 2.086 15.868 2.086C16.072 2.086 16.209 2.151 16.269 2.212C16.318 2.325 16.395 2.48 16.395 2.614C16.395 2.869 16.298 2.986 16.269 3.016L13.312 6.057V10.697C13.312 12.609 11.697 14.225 9.785 14.225C8.571 14.225 7.544 13.669 6.816 12.618L6.721 12.481L5.838 13.364L5.937 13.463C6.016 13.541 6.074 13.62 6.133 13.698C6.199 13.786 6.265 13.874 6.353 13.962C7.227 14.836 8.447 15.336 9.702 15.336C10.376 15.336 10.966 15.224 11.507 14.992C13.279 14.232 14.425 12.513 14.425 10.614C14.425 10.357 14.696 10.086 14.952 10.086C15.208 10.086 15.479 10.357 15.479 10.614C15.479 13.635 13.289 16.066 10.27 16.391L10.146 16.405V18.253H11.868C12.125 18.253 12.396 18.524 12.396 18.78C12.396 19.037 12.125 19.308 11.868 19.308H7.618ZM7.529 11.756L7.58 11.848C8.019 12.639 8.905 13.169 9.785 13.169C10.467 13.169 11.094 12.918 11.55 12.463C12.013 11.999 12.258 11.36 12.258 10.614V7.028L7.529 11.756ZM9.785 2.141C8.375 2.141 7.312 3.204 7.312 4.614V10.616L12.257 5.672V4.614C12.257 3.297 11.102 2.141 9.785 2.141Z" fill="#9EA6BD"/>
</svg>
