<svg width="18" height="18" viewBox="0 0 18 18" fill="none" xmlns="http://www.w3.org/2000/svg">
<path d="M12.3779 2.72727V1.5L10.4375 3.38181L12.3779 5.26362V3.95453C13.5591 3.95453 14.4871 4.85453 14.4871 5.99998C14.4871 6.32725 14.4027 6.65452 14.234 6.89998L15.162 7.79997C15.4995 7.30906 15.7526 6.65452 15.7526 5.99998C15.7526 4.11817 14.234 2.72727 12.3779 2.72727Z" fill="#F7F9FA" fill-opacity="0.5"/>
<path d="M12.3747 8.04563C11.1935 8.04563 10.2655 7.14564 10.2655 6.00019C10.2655 5.67292 10.3499 5.34564 10.5186 5.10019L9.59057 4.2002C9.2531 4.6911 9 5.34565 9 6.00019C9 7.80018 10.5186 9.2729 12.3747 9.2729V10.5002L14.3151 8.61836L12.3747 6.73655V8.04563Z" fill="#F7F9FA" fill-opacity="0.5"/>
<path d="M13.5833 13.5833C12.7833 13.5833 11.9833 13.45 11.1833 13.1833C10.9833 13.1167 10.7167 13.1833 10.5167 13.3167L9.05 14.7833C7.18333 13.7833 5.65 12.25 4.65 10.3833L6.11667 8.91667C6.31667 8.71667 6.38333 8.51667 6.25 8.25C6.05 7.51667 5.91667 6.71667 5.91667 5.91667C5.91667 5.51667 5.65 5.25 5.25 5.25H2.91667C2.51667 5.25 2.25 5.51667 2.25 5.91667C2.25 12.1833 7.31667 17.25 13.5833 17.25C13.9833 17.25 14.25 16.9833 14.25 16.5833V14.25C14.25 13.85 13.9833 13.5833 13.5833 13.5833Z" fill="#F7F9FA" fill-opacity="0.5"/>
</svg>
