<svg width="15" height="11" viewBox="0 0 15 11" xmlns="http://www.w3.org/2000/svg">
<path d="M4.624 10.653C4.356 10.653 4.106 10.549 3.919 10.361L0.291 6.735C0.103 6.548 0 6.298 0 6.032C0 5.831 0.075 5.625 0.218 5.438L0.291 5.328C0.479 5.14 0.729 5.036 0.992 5.036C1.261 5.036 1.511 5.14 1.697 5.328L4.615 8.245L12.586 0.291C12.774 0.104 13.023 0 13.286 0C13.521 0 13.752 0.091 13.94 0.257C14.176 0.477 14.283 0.734 14.282 0.995C14.282 1.153 14.232 1.314 14.132 1.488L13.992 1.697L5.325 10.36C5.138 10.55 4.889 10.653 4.624 10.653Z"/>
</svg>
