<svg width="8" height="12" viewBox="0 0 8 12" xmlns="http://www.w3.org/2000/svg">
<path d="M5.36638 0.75H7.50862C7.64192 0.75 7.75 0.865019 7.75 1.00688V10.9931C7.75 11.135 7.64192 11.25 7.50862 11.25H5.36638C5.23308 11.25 5.125 11.135 5.125 10.9931V1.00688C5.125 0.865019 5.23308 0.75 5.36638 0.75Z"/>
<path d="M0.491379 0.75H2.63362C2.76692 0.75 2.875 0.865019 2.875 1.00688V10.9931C2.875 11.135 2.76692 11.25 2.63362 11.25H0.491379C0.358078 11.25 0.25 11.135 0.25 10.9931V1.00688C0.25 0.865019 0.358078 0.75 0.491379 0.75Z"/>
</svg>
