<svg width="12" height="12" viewBox="0 0 12 12" fill="none" xmlns="http://www.w3.org/2000/svg">
<path d="M8.12301 5.63082L0.738455 0.0924099C0.599995 -0.0128199 0.411689 -0.0294352 0.25569 0.0490257C0.0987684 0.127487 0 0.287178 0 0.461638V11.5385C0 11.7129 0.0987684 11.8726 0.254767 11.9511C0.320305 11.9834 0.391381 12 0.461535 12C0.55938 12 0.657225 11.9686 0.738455 11.9077L8.12301 6.36928C8.23931 6.28251 8.30762 6.14497 8.30762 6.00005C8.30762 5.85513 8.23931 5.71759 8.12301 5.63082Z" fill="#9EA6BD"/>
<path d="M11.5384 9.15527e-05H10.6153C10.3606 9.15527e-05 10.1538 0.206859 10.1538 0.461625V11.5384C10.1538 11.7932 10.3606 12 10.6153 12H11.5384C11.7932 12 11.9999 11.7932 11.9999 11.5384V0.461625C11.9999 0.206859 11.7932 9.15527e-05 11.5384 9.15527e-05Z" fill="#9EA6BD"/>
</svg>
