<svg width="20" height="20" viewBox="0 0 20 20" xmlns="http://www.w3.org/2000/svg">
<path d="M19.7375 16.2C19.725 15.85 19.5875 15.5 19.325 15.2375L16.1 12C15.825 11.7125 15.45 11.575 15.075 11.575H15.0625H15V11.5875C14.6625 11.6 14.3125 11.7375 14.05 12L12.2625 13.825C12.1 13.975 11.9125 14.05 11.7 14.05C11.5375 14.05 11.3625 14 11.2125 13.9C10.1875 13.175 9.225 12.3625 8.3375 11.475C7.5375 10.675 6.8125 9.82501 6.15 8.91251C6.0375 8.76251 5.975 8.60001 5.975 8.42501C5.975 8.21251 6.05 8.02501 6.2 7.87501L8.0625 6.01251C8.35 5.72501 8.4875 5.36251 8.4875 5.00001C8.4875 4.62501 8.3375 4.25001 8.0625 3.96251L4.8375 0.737512C4.55 0.462512 4.1875 0.325012 3.8125 0.325012H3.8H3.7375V0.337512C3.4 0.350012 3.0625 0.475012 2.8 0.737512L1.8 1.73751L1.75 1.78751C0.775 2.78751 0.25 4.10001 0.25 5.45001V5.52501C0.2625 6.02501 0.3375 6.53751 0.4875 7.02501L0.5125 7.11251C1 8.52501 1.6625 9.85001 2.4875 11.0875L2.475 11.1L2.5875 11.25L2.625 11.3125L2.6625 11.375L2.675 11.3625C3.425 12.4625 4.2875 13.5 5.225 14.45L5.275 14.5L5.325 14.55L5.35 14.5625C6.3875 15.6 7.5125 16.5125 8.7375 17.3125L8.725 17.325L8.875 17.4125L8.95 17.4625L9.0125 17.5L9.025 17.4875C10.4125 18.3875 11.9125 19.0625 13.4875 19.5H13.5H13.5125C13.9375 19.6 14.3625 19.65 14.775 19.65C16.125 19.65 17.4375 19.125 18.4125 18.15L18.4625 18.1L19.325 17.2375C19.5875 16.9625 19.725 16.6 19.725 16.2375V16.175H19.7375V16.2ZM17.4375 17.125C16.725 17.85 15.7625 18.2375 14.7625 18.2375C14.4625 18.2375 14.15 18.2 13.85 18.125C12.3625 17.7125 10.9625 17.075 9.6625 16.225C8.45 15.4375 7.325 14.5375 6.3 13.5C5.3625 12.575 4.5125 11.55 3.7875 10.45C2.975 9.26251 2.3375 8.00001 1.8875 6.66251C1.7625 6.26251 1.6875 5.85001 1.6875 5.45001C1.6875 4.45001 2.075 3.48751 2.8 2.77501L3.7875 1.80001H3.8L3.8375 1.81251L7.0125 4.98751L7.0375 5.00001V5.01251L5.15 6.88751C4.75 7.32501 4.5375 7.87501 4.5375 8.42501V8.50001H4.55C4.5625 8.91251 4.7 9.33751 4.95 9.70001H4.9375L4.95 9.71251L4.9875 9.76251L5.0125 9.80001C5.7125 10.75 6.4875 11.65 7.3125 12.475C8.2625 13.425 9.2875 14.2875 10.3875 15.0625C10.7625 15.325 11.2 15.45 11.6375 15.4625L11.675 15.475H11.6875H11.7C12.275 15.475 12.8375 15.25 13.275 14.825L15.05 13.0125L15.0625 13L15.0875 13.0125L18.2625 16.2L18.275 16.225L18.2625 16.25L17.4375 17.125Z"/>
</svg>
