<svg width="16" height="16" viewBox="0 0 16 16" xmlns="http://www.w3.org/2000/svg">
<path d="M14.4 15C7 15 1 9 1 1.6C1 1.3 1.3 1 1.6 1H4.4C4.7 1 5 1.3 5 1.6C5 2.5 5.1 3.6 5.4 4.5C5.6 4.7 5.5 5 5.3 5.2L3.5 7L3.6 7.1C4.7 9.3 6.6 11.2 8.9 12.4H9L10.9 10.6C11 10.5 11.2 10.4 11.3 10.4H11.5C12.3 10.7 13.4 10.9 14.4 10.9C14.7 10.9 15 11.2 15 11.5V14.3C15 14.7 14.7 15 14.4 15ZM10.3 13L10.5 13.1C11.6 13.5 12.6 13.7 13.6 13.7H13.7V12.1H13.5C12.8 12.1 12.1 11.9 11.5 11.8H11.4L10.3 13ZM2.3 2.4C2.4 3.4 2.6 4.4 2.9 5.5L3 5.7L4.2 4.5V4.4C4 3.9 3.9 3.2 3.8 2.4V2.3H2.3V2.4Z"/>
</svg>
