<svg width="16" height="16" viewBox="0 0 16 16" xmlns="http://www.w3.org/2000/svg">
<path d="M11.7857 10.973L14.8291 7.92682C15.1252 7.6305 15.0217 7.12772 14.6328 6.97259C13.0161 6.32772 11.5893 6.22632 10.4449 6.44758C10.4085 6.45461 10.3739 6.46172 10.3411 6.4688L6.66517 3.33858C6.70019 2.77127 6.58472 2.24276 6.36764 1.76863C6.2522 1.5165 6.13283 1.33061 6.04192 1.21756C5.82459 0.947305 5.42103 0.925515 5.17592 1.17081L1.17072 5.17892C0.924435 5.42539 0.947709 5.83164 1.22057 6.04831C1.44325 6.22514 1.69191 6.36119 1.96037 6.4607C2.41568 6.62947 2.87975 6.68292 3.30755 6.66616L6.46256 10.378C6.4571 10.4098 6.45164 10.4434 6.4462 10.4787C6.26307 11.6709 6.37114 13.1012 6.98009 14.6323C7.13498 15.0217 7.63751 15.1254 7.93362 14.829L10.9616 11.7978L13.99 14.8289C14.2176 15.0566 14.5866 15.0566 14.8141 14.8289C15.0417 14.6011 15.0417 14.2318 14.8141 14.004L11.7857 10.973ZM7.77513 13.3378C7.50817 12.3475 7.47867 11.4339 7.59815 10.656C7.62047 10.5107 7.64147 10.4149 7.65273 10.3746C7.70479 10.1879 7.66079 9.98746 7.5353 9.83983L4.00152 5.68239C3.86961 5.5272 3.66635 5.45216 3.46535 5.48442C3.45932 5.48537 3.43708 5.48822 3.401 5.4915C3.14185 5.51504 2.84905 5.50129 2.56829 5.42987L5.42523 2.57087C5.5065 2.85581 5.53032 3.163 5.47686 3.48706C5.44353 3.68902 5.51844 3.89366 5.67419 4.02629L9.81808 7.55499C9.97719 7.69049 10.1966 7.73035 10.3932 7.65951C10.4284 7.64683 10.5208 7.62096 10.6659 7.59291C11.4031 7.45039 12.3068 7.47354 13.3433 7.76422L10.3582 10.752L7.77513 13.3378Z"/>
</svg>
