<svg width="12" height="12" viewBox="0 0 12 12" fill="none" xmlns="http://www.w3.org/2000/svg">
<path d="M3.87699 6.36918L11.2615 11.9076C11.4 12.0128 11.5883 12.0294 11.7443 11.951C11.9012 11.8725 12 11.7128 12 11.5384L12 0.461535C12 0.287074 11.9012 0.127383 11.7452 0.0489225C11.6797 0.0166149 11.6086 -3.42156e-08 11.5385 -4.03486e-08C11.4406 -4.89025e-08 11.3428 0.0313844 11.2615 0.092307L3.87699 5.63072C3.76069 5.71749 3.69238 5.85503 3.69238 5.99995C3.69238 6.14487 3.76069 6.28241 3.87699 6.36918Z" fill="#9EA6BD"/>
<path d="M0.461587 11.9999L1.38466 11.9999C1.63942 11.9999 1.84619 11.7931 1.84619 11.5384L1.84619 0.461567C1.84619 0.2068 1.63942 3.33605e-05 1.38466 3.33383e-05L0.461588 3.32576e-05C0.206821 3.32353e-05 5.38407e-05 0.2068 5.38184e-05 0.461567L5.28501e-05 11.5384C5.28278e-05 11.7931 0.20682 11.9999 0.461587 11.9999Z" fill="#9EA6BD"/>
</svg>
