<svg width="14" height="14" viewBox="0 0 14 14" xmlns="http://www.w3.org/2000/svg">
<path d="M10.7858 9.9731L13.8291 6.92669C13.9684 6.78845 14.0272 6.58898 13.9882 6.3965C13.9485 6.20459 13.8151 6.04479 13.6327 5.97247C11.5679 5.14831 10.0044 5.32679 9.34174 5.4697L5.665 2.3387C5.73785 1.09984 5.07231 0.255862 5.04142 0.217366C4.93827 0.0884545 4.78441 0.00971332 4.6189 0.000390143C4.45513 -0.00543342 4.29196 0.0540599 4.1754 0.170695L0.170621 4.17892C0.0529097 4.29616 -0.00888252 4.45889 0.00103374 4.62512C0.010349 4.79078 0.0901982 4.94534 0.220749 5.048C0.936386 5.61726 1.83095 5.67736 2.30592 5.66511L5.46222 9.37819C5.3474 10.0419 5.1994 11.6699 5.98029 13.6325C6.05255 13.8151 6.21165 13.9481 6.40339 13.9883C6.44303 13.9959 6.48206 14 6.5211 14C6.67438 14 6.82299 13.9399 6.93313 13.8291L9.9618 10.7979L12.9899 13.8291C13.1035 13.9428 13.2527 14 13.4019 14C13.5511 14 13.7003 13.9428 13.8139 13.8291C14.0418 13.601 14.0418 13.2324 13.8139 13.0044L10.7858 9.9731Z"/>
</svg>
