<svg width="20" height="20" viewBox="0 0 20 20" xmlns="http://www.w3.org/2000/svg">
<path d="M14.125 6.875L11.75 6.5L10.625 4.25C10.5 4 10.25 3.875 10 3.875C9.75 3.875 9.5 4 9.375 4.25L8.25 6.5L5.875 6.875C5.625 6.875 5.375 7.125 5.25 7.375V7.625C5.25 7.875 5.375 8 5.5 8.125L7.25 9.875L6.75 12.25V12.375C6.75 12.625 6.875 12.875 7 13C7.125 13.125 7.25 13.125 7.375 13.125C7.5 13.125 7.625 13.125 7.75 13L10 11.875L12.125 13L12.375 13.125C12.5 13.125 12.625 13.125 12.75 13C13 12.875 13 12.625 13 12.375V12.25L12.625 9.875L14.375 8.125C14.5 8 14.625 7.75 14.625 7.625V7.375C14.625 7.125 14.375 6.875 14.125 6.875ZM11.5 9C11.375 9.125 11.25 9.375 11.25 9.5V9.625L11.5 10.875L10.375 10.375L10 10.25L9.625 10.375L8.5 11L8.75 9.75V9.625C8.75 9.375 8.625 9.25 8.5 9.125L7.625 8.125L8.875 7.875C9.125 7.875 9.375 7.625 9.375 7.5L10 6.375L10.625 7.5C10.75 7.75 11 7.875 11.125 7.875L12.375 8.125L11.5 9Z"/>
<path d="M18.125 0.625H15.75H2C1.25 0.625 0.75 1.25 0.75 1.875V11.5V14.5V15C0.75 15.75 1.375 16.25 2 16.25H2.125H3.625V17.75C3.625 18.375 4 18.875 4.5 19.25C4.75 19.375 5 19.375 5.125 19.375C5.5 19.375 5.875 19.25 6.125 19L8.875 16.375H17.75H18C18.75 16.375 19.25 15.75 19.25 15.125V14.5V11.5V1.875C19.375 1.125 18.75 0.625 18.125 0.625ZM17.875 11.5V14.5V14.875H8.75C8.5 14.875 8.375 15 8.25 15.125L5.375 18H5.25V17.875V15.625C5.25 15.25 4.875 14.875 4.5 14.875H2.25V14.5V11.5V2.125H16.75H18.125L17.875 11.5Z"/>
</svg>
