<svg width="16" height="16" viewBox="0 0 16 16" fill="none" xmlns="http://www.w3.org/2000/svg">
<g clip-path="url(#clip0)">
<path d="M14.7629 10.853C14.7629 10.852 14.7629 10.853 14.7629 10.853C14.7629 10.852 14.7629 10.852 14.7629 10.853C14.6789 10.811 14.5859 10.786 14.4849 10.786C14.2579 10.786 14.0479 10.912 13.9379 11.114C12.7809 13.379 10.5009 14.783 7.97991 14.783C5.93491 14.783 3.87291 13.909 2.73091 12.216L3.42091 11.866C3.79791 11.675 3.82591 11.148 3.47191 10.917L1.12191 9.38398C0.767908 9.15298 0.296908 9.39198 0.274908 9.81398L0.123908 12.618C0.100908 13.04 0.542908 13.328 0.919908 13.137L1.62891 12.777C3.12991 14.704 5.53891 16.003 7.97391 16.003C10.9569 16.003 13.6509 14.338 15.0179 11.669C15.0599 11.586 15.0839 11.493 15.0849 11.393L15.0859 11.352C15.0859 11.14 14.9609 10.948 14.7629 10.853Z" fill="#5D657B"/>
<path d="M15.0811 2.86401L14.3631 3.22801C12.8601 1.31301 10.4531 -0.00299072 8.02706 -0.00299072C5.04406 -0.00299072 2.35006 1.66201 0.983063 4.33101C0.942063 4.41401 0.917063 4.50601 0.916063 4.60601L0.914062 4.64701C0.914062 4.86001 1.03806 5.05301 1.23606 5.14801C1.32006 5.19001 1.41206 5.21501 1.51306 5.21501C1.74006 5.21501 1.95006 5.08901 2.06006 4.88701C3.21706 2.62201 5.49706 1.21801 8.01806 1.21801C10.0631 1.21801 12.1251 2.09201 13.2671 3.78501L12.5771 4.13501C12.2001 4.32601 12.1721 4.85301 12.5261 5.08401L14.8781 6.61701C15.2321 6.84801 15.7031 6.60901 15.7251 6.18701L15.8761 3.38301C15.9001 2.96101 15.4581 2.67201 15.0811 2.86401Z" fill="#5D657B"/>
</g>
<defs>
<clipPath id="clip0">
<rect width="16" height="16" fill="white"/>
</clipPath>
</defs>
</svg>
