<svg width="16" height="16" viewBox="0 0 16 16" fill="none" xmlns="http://www.w3.org/2000/svg">
<path d="M15.809 14.89L12.464 11.545C13.48 10.324 14.092 8.756 14.092 7.047C14.092 3.161 10.931 0 7.046 0C3.161 0 0 3.161 0 7.046C0 10.931 3.161 14.092 7.046 14.092C8.755 14.092 10.323 13.48 11.544 12.464L14.89 15.81C15.017 15.936 15.183 16 15.35 16C15.516 16 15.682 15.936 15.809 15.809C16.064 15.555 16.064 15.144 15.809 14.89ZM1.301 7.046C1.301 3.878 3.878 1.301 7.046 1.301C10.214 1.301 12.791 3.878 12.791 7.046C12.791 10.214 10.214 12.791 7.046 12.791C3.878 12.791 1.301 10.214 1.301 7.046Z" fill="#5D657B"/>
</svg>
