<svg width="16" height="16" viewBox="0 0 16 16" fill="none" xmlns="http://www.w3.org/2000/svg">
<path d="M6 11.7H0.7C0.3 11.7 0 11.4 0 11C0 10.6 0.3 10.3 0.7 10.3H6C6.4 10.3 6.7 10.6 6.7 11C6.7 11.4 6.4 11.7 6 11.7Z" fill="#5D657B"/>
<path d="M6 3.70005H0.7C0.3 3.70005 0 3.40005 0 3.00005C0 2.60005 0.3 2.30005 0.7 2.30005H6C6.4 2.30005 6.7 2.60005 6.7 3.00005C6.7 3.40005 6.4 3.70005 6 3.70005Z" fill="#5D657B"/>
<path d="M6 7.70005H0.7C0.3 7.70005 0 7.40005 0 7.00005C0 6.60005 0.3 6.30005 0.7 6.30005H6C6.4 6.30005 6.7 6.60005 6.7 7.00005C6.7 7.40005 6.4 7.70005 6 7.70005Z" fill="#5D657B"/>
<path d="M11.3 11.7C13.9 11.7 16 9.60005 16 7.00005C16 4.40005 13.9 2.30005 11.3 2.30005H8.7C8.3 2.30005 8 2.60005 8 3.00005C8 3.40005 8.3 3.70005 8.7 3.70005H11.4C13.2 3.70005 14.7 5.20005 14.7 7.00005C14.7 8.80005 13.2 10.3 11.4 10.3V8.80005C11.4 8.60005 11.3 8.40005 11.1 8.30005C10.9 8.20005 10.7 8.30005 10.6 8.40005L8.3 10.6C8.1 10.7 8 10.9 8 11C8 11.1 8.1 11.3 8.2 11.4L10.5 13.6C10.6 13.7 10.7 13.7 10.8 13.7C10.9 13.7 10.9 13.7 11 13.7C11.2 13.6 11.3 13.4 11.3 13.2V11.7Z" fill="#5D657B"/>
</svg>
