<svg width="20" height="20" viewBox="0 0 20 20" fill="none" xmlns="http://www.w3.org/2000/svg">
<path opacity="0.2" d="M10 0C7.5 0 4.875 1 2.875 2.875C-1 6.75 -1 13.125 2.875 17C4.875 19 7.5 20 10 20C12.5 20 15.125 19 17.125 17.125C21 13.25 21 6.875 17.125 3C15.125 1 12.5 0 10 0Z" fill="#009688"/>
<path d="M14 7C13.875 6.875 13.625 6.75 13.5 6.75C13.25 6.75 13.125 6.875 12.875 7L11.125 9L9 11.375L7.125 9.5C6.875 9.375 6.75 9.25 6.5 9.25C6.25 9.25 6.125 9.375 6 9.5C5.875 9.625 5.75 9.75 5.75 10C5.75 10.25 5.875 10.375 6 10.5L8.375 13C8.5 13.125 8.75 13.25 8.875 13.25C9.125 13.25 9.25 13.125 9.375 13L12.25 10L14 8C14.125 7.875 14.25 7.625 14.25 7.5C14.25 7.375 14.125 7.125 14 7Z" fill="#009688"/>
</svg>
