<svg width="20" height="20" viewBox="0 0 20 20" fill="none" xmlns="http://www.w3.org/2000/svg">
<g clip-path="url(#clip0)">
<path opacity="0.2" d="M17.125 2.875C13.25 -1 6.875 -1 3 2.875C-0.875 6.75 -0.875 13.125 3 17C6.875 20.875 13.25 20.875 17.125 17C21 13.125 21 6.875 17.125 2.875Z" fill="#F57C00"/>
<path d="M10.5 4.75C10.375 4.625 10.25 4.5 10 4.5C9.75 4.5 9.625 4.625 9.5 4.75C9.375 4.875 9.25 5.125 9.25 5.25V9.5V11.5C9.25 11.75 9.375 11.875 9.5 12C9.625 12.25 9.75 12.25 10 12.25C10.25 12.25 10.375 12.125 10.5 12C10.625 11.875 10.75 11.625 10.75 11.5V10.25V9.625V5.25C10.75 5.125 10.75 4.875 10.5 4.75Z" fill="#F57C00"/>
<path d="M10 13.625C9.75 13.625 9.5 13.75 9.375 13.875C9.25 14 9.125 14.25 9.125 14.5C9.125 14.75 9.25 15 9.375 15.125C9.5 15.25 9.75 15.375 10 15.375C10.25 15.375 10.5 15.25 10.625 15.125C10.75 15 10.875 14.75 10.875 14.5C10.875 14 10.5 13.625 10 13.625Z" fill="#F57C00"/>
</g>
<defs>
<clipPath id="clip0">
<rect width="20" height="20" fill="white"/>
</clipPath>
</defs>
</svg>
