<svg width="20" height="20" viewBox="0 0 20 20" fill="none" xmlns="http://www.w3.org/2000/svg">
<g clip-path="url(#clip0)">
<path opacity="0.2" d="M17.125 2.875C13.25 -1 6.875 -1 3 2.875C-0.875 6.75 -0.875 13.125 3 17C6.875 20.875 13.25 20.875 17.125 17C21 13.125 21 6.875 17.125 2.875Z" fill="#5D657B"/>
<path d="M11.625 13.75H10.75V8.875C10.75 8.5 10.375 8.125 10 8.125H8.75C8.375 8.125 8 8.5 8 8.875C8 9.25 8.375 9.625 8.75 9.625H9.25V13.75H8.375C8 13.75 7.625 14.125 7.625 14.5C7.625 14.875 8 15.25 8.375 15.25H11.625C12 15.25 12.375 14.875 12.375 14.5C12.375 14.125 12 13.75 11.625 13.75Z" fill="#5D657B"/>
<path d="M10 6.625C10.25 6.625 10.5 6.5 10.625 6.375C10.75 6.25 10.875 6 10.875 5.75C10.875 5.25 10.5 4.75 10 4.75C9.75 4.75 9.5 4.75 9.375 5C9.125 5.125 9.125 5.375 9.125 5.625C9.125 5.875 9.25 6.125 9.375 6.25C9.5 6.5 9.75 6.625 10 6.625Z" fill="#5D657B"/>
</g>
<defs>
<clipPath id="clip0">
<rect width="20" height="20" fill="white"/>
</clipPath>
</defs>
</svg>
