<svg width="20" height="20" viewBox="0 0 20 20" fill="none" xmlns="http://www.w3.org/2000/svg">
<path d="M15.1221 12.693C16.2591 12.206 16.9371 11.157 16.9371 9.887C16.9371 8.616 16.2581 7.568 15.1331 7.083C15.0851 7.083 15.0391 7.061 14.9951 7.038C14.9551 7.018 14.9181 7 14.8831 7C14.6381 7 14.4051 7.166 14.3211 7.408C14.1631 7.565 14.1631 7.64 14.1631 7.72C14.1631 7.965 14.3301 8.199 14.5641 8.277C15.2731 8.631 15.6631 9.233 15.6631 9.97C15.6631 10.707 15.2731 11.309 14.5591 11.665C14.3301 11.741 14.1631 11.975 14.1631 12.22C14.1631 12.299 14.1631 12.374 14.2451 12.46C14.3211 12.688 14.5511 12.854 14.7931 12.856L15.1221 12.693Z" fill="#275DB8"/>
<path d="M15.1341 4.58301C14.8061 4.58301 14.5731 4.83101 14.4971 5.13701C14.4971 5.30001 14.4971 5.37401 14.5781 5.45601C14.6561 5.61301 14.8151 5.77201 14.9741 5.77301C16.9671 6.19001 18.4131 7.95401 18.4131 9.97001C18.4131 11.986 16.9671 13.75 14.9741 14.166C14.6661 14.242 14.4961 14.469 14.4961 14.88C14.5731 15.188 14.7991 15.357 15.1331 15.357H15.2141C17.7161 14.855 19.6041 12.54 19.6041 9.97001C19.6041 7.29801 17.7981 5.08301 15.1341 4.58301Z" fill="#275DB8"/>
<path d="M12.0301 0.824C11.9551 0.75 11.8831 0.75 11.8001 0.75C11.6851 0.75 11.6141 0.791 11.5161 0.848L11.4001 0.911L5.13408 5.417H0.967078C0.654078 5.417 0.330078 5.654 0.330078 6.053V13.887C0.330078 14.2 0.568078 14.523 0.967078 14.523L5.23508 14.529L11.4051 19.032C11.4831 19.111 11.6441 19.19 11.8011 19.19C11.8831 19.19 11.9611 19.19 12.1241 19.109C12.3961 19.017 12.4371 18.721 12.4371 18.553L12.4381 1.397C12.3521 1.139 12.1871 0.906 12.0301 0.824ZM4.71708 13.25L1.60408 13.22V6.69L4.74708 6.72L4.71708 13.25ZM11.1161 17.244L6.02108 13.47L6.03308 6.363L11.1631 2.578L11.1161 17.244Z" fill="#275DB8"/>
</svg>
