<svg width="14" height="14" viewBox="0 0 14 14" fill="none" xmlns="http://www.w3.org/2000/svg">
<path d="M10.5854 8.88512C11.3813 8.54422 11.8559 7.80992 11.8559 6.92092C11.8559 6.03122 11.3806 5.29762 10.5931 4.95812C10.5595 4.95812 10.5273 4.94272 10.4965 4.92662C10.4685 4.91262 10.4426 4.90002 10.4181 4.90002C10.2466 4.90002 10.0835 5.01622 10.0247 5.18562C9.91406 5.29552 9.91406 5.34802 9.91406 5.40402C9.91406 5.57552 10.031 5.73932 10.1948 5.79392C10.6911 6.04172 10.9641 6.46312 10.9641 6.97902C10.9641 7.49492 10.6911 7.91632 10.1913 8.16552C10.031 8.21872 9.91406 8.38253 9.91406 8.55403C9.91406 8.60933 9.91406 8.66182 9.97146 8.72202C10.0247 8.88163 10.1857 8.99783 10.3551 8.99923L10.5854 8.88512Z" fill="white"/>
<path d="M10.5938 3.20813C10.3642 3.20813 10.2011 3.38173 10.1479 3.59593C10.1479 3.71003 10.1479 3.76183 10.2046 3.81923C10.2592 3.92913 10.3705 4.04043 10.4818 4.04113C11.8769 4.33303 12.8891 5.56783 12.8891 6.97903C12.8891 8.39023 11.8769 9.62503 10.4818 9.91623C10.2662 9.96943 10.1472 10.1283 10.1472 10.416C10.2011 10.6316 10.3593 10.7499 10.5931 10.7499H10.6498C12.4012 10.3985 13.7228 8.77803 13.7228 6.97903C13.7228 5.10863 12.4586 3.55813 10.5938 3.20813Z" fill="white"/>
<path d="M8.42096 0.576824C8.36846 0.525024 8.31806 0.525024 8.25996 0.525024C8.17946 0.525024 8.12976 0.553724 8.06116 0.593624L7.97996 0.637724L3.59376 3.79192H0.676857C0.457757 3.79192 0.230957 3.95782 0.230957 4.23712V9.72093C0.230957 9.94003 0.397557 10.1661 0.676857 10.1661L3.66446 10.1703L7.98346 13.3224C8.03806 13.3777 8.15076 13.433 8.26066 13.433C8.31806 13.433 8.37266 13.433 8.48676 13.3763C8.67716 13.3119 8.70586 13.1047 8.70586 12.9871L8.70656 0.977924C8.64636 0.797325 8.53086 0.634224 8.42096 0.576824ZM3.30186 9.27503L1.12276 9.25403V4.68302L3.32286 4.70402L3.30186 9.27503ZM7.78116 12.0708L4.21466 9.42903L4.22306 4.45412L7.81406 1.80462L7.78116 12.0708Z" fill="white"/>
</svg>
