<svg width="20" height="20" viewBox="0 0 20 20" fill="none" xmlns="http://www.w3.org/2000/svg">
<g clip-path="url(#clip0)">
<path opacity="0.2" d="M17.125 2.875C13.25 -1 6.875 -1 3 2.875C-0.875 6.75 -0.875 13.125 3 17C6.875 20.875 13.25 20.875 17.125 17C21 13.125 21 6.875 17.125 2.875Z" fill="#C62828"/>
<path d="M13.375 12.25L11.125 10L13.375 7.75C13.625 7.5 13.625 7 13.375 6.625C13.125 6.25 12.625 6.25 12.25 6.625L10 8.875L9.25 8.25L7.75 6.625C7.375 6.25 6.875 6.25 6.625 6.625C6.25 6.875 6.25 7.375 6.625 7.75L8.25 9.375L8.875 10L6.625 12.25C6.375 12.5 6.375 13 6.625 13.375C6.875 13.625 7.375 13.625 7.75 13.375L10 11.125L12.25 13.375C12.5 13.625 13 13.625 13.375 13.375C13.75 13.125 13.75 12.625 13.375 12.25Z" fill="#C62828"/>
</g>
<defs>
<clipPath id="clip0">
<rect width="20" height="20" fill="white"/>
</clipPath>
</defs>
</svg>
