<svg width="20" height="20" viewBox="0 0 20 20" xmlns="http://www.w3.org/2000/svg">
  <path d="M10 0C4.5 0 0 4.5 0 10C0 15.5 4.5 20 10 20C15.5 20 20 15.5 20 10C20 4.5 15.5 0 10 0ZM10 18.5C7.625 18.5 5.5 17.5 4 16C2.5 14.5 1.5 12.375 1.5 10C1.5 5.375 5.25 1.5 10 1.5C14.75 1.5 18.5 5.25 18.5 10C18.5 12.375 17.5 14.5 16 16C14.5 17.5 12.375 18.5 10 18.5Z"/>
  <path d="M14.375 13.7501L10.25 9.75006V8.12506V4.25006C10.25 3.87506 9.875 3.50006 9.5 3.50006C9.125 3.50006 8.75 3.87506 8.75 4.25006V8.12506V10.0001C8.75 10.2501 8.875 10.3751 9 10.5001L13.375 14.8751C13.375 15.0001 13.625 15.0001 13.75 15.0001C14 15.0001 14.125 14.8751 14.25 14.7501C14.375 14.6251 14.5 14.3751 14.5 14.2501C14.5 14.1251 14.5 14.0001 14.375 13.7501Z"/>
</svg>
