<svg width="16" height="12" viewBox="0 0 16 12" fill="none" xmlns="http://www.w3.org/2000/svg">
<path d="M12.2589 4.47998H11.7812V5.59998H12.1793C12.4977 5.59998 12.6569 5.51998 12.8161 5.43998C12.9753 5.35998 12.9753 5.19998 12.9753 5.03998C12.9753 4.87998 12.8957 4.71998 12.8161 4.63998C12.7365 4.55998 12.4977 4.47998 12.2589 4.47998Z" fill="#EB5953"/>
<path d="M14.0896 0H1.83085C0.79602 0 0 0.8 0 1.84V6V10.16C0 11.2 0.79602 12 1.83085 12H14.1692C15.1244 12 16 11.2 16 10.16V6V1.84C15.9204 0.8 15.1244 0 14.0896 0ZM5.01493 8.56H3.34328L1.43284 3.44H3.10448L4.21891 7.12L5.33333 3.44H6.92537L5.01493 8.56ZM9.23383 8.56H7.64179V3.44H9.23383V8.56ZM14.0896 6.24C13.7711 6.56 13.2935 6.64 12.6567 6.64H11.7811V8.56H10.1891V3.44H12.8159C13.3731 3.44 13.8507 3.6 14.0896 3.84C14.408 4.08 14.4876 4.48 14.4876 5.04C14.4876 5.52 14.3284 5.92 14.0896 6.24Z" fill="#EB5953"/>
</svg>
